SplineFontDB: 3.0
FontName: Jost-Semi
FullName: Jost* 600 Semi
FamilyName: Jost*
Weight: Semi
Copyright: Copyright (c) 2018, Owen Earl,,,
UComments: "2018-6-8: Created with FontForge (http://fontforge.org)"
Version: 003.300
ItalicAngle: 0
UnderlinePosition: -100
UnderlineWidth: 50
Ascent: 800
Descent: 200
InvalidEm: 0
LayerCount: 2
Layer: 0 0 "Back" 1
Layer: 1 0 "Fore" 0
PreferredKerning: 4
XUID: [1021 69 1495626776 9435324]
FSType: 0
OS2Version: 0
OS2_WeightWidthSlopeOnly: 0
OS2_UseTypoMetrics: 0
CreationTime: 1528479894
ModificationTime: 1562964813
PfmFamily: 17
TTFWeight: 600
TTFWidth: 5
LineGap: 100
VLineGap: 0
OS2TypoAscent: 825
OS2TypoAOffset: 0
OS2TypoDescent: -225
OS2TypoDOffset: 0
OS2TypoLinegap: 100
OS2WinAscent: 900
OS2WinAOffset: 0
OS2WinDescent: 300
OS2WinDOffset: 0
HheadAscent: 1030
HheadAOffset: 0
HheadDescent: -350
HheadDOffset: 0
OS2CapHeight: 700
OS2XHeight: 460
OS2Vendor: 'PfEd'
Lookup: 1 0 0 "alt a" { "alt a"  } ['ss01' ('DFLT' <'dflt' > 'latn' <'dflt' > ) ]
Lookup: 1 0 0 "Tabular Numbers lookup" { "Tabular Numbers lookup"  } ['tnum' ('DFLT' <'dflt' > 'grek' <'dflt' > 'latn' <'dflt' > ) ]
Lookup: 258 0 0 "Lets get our kern on" { "kernin like nobodys business" [150,0,4] } ['kern' ('DFLT' <'dflt' > 'latn' <'dflt' > ) ]
MarkAttachClasses: 1
DEI: 91125
KernClass2: 16 14 "kernin like nobodys business"
 43 slash seven V W Wcircumflex uni040E uni0423
 175 quotedbl quotesingle asterisk grave dieresis ordfeminine macron degree acute ordmasculine circumflex breve dotaccent ring tilde quoteleft quoteright quotedblleft quotedblright
 25 nine question F P uni0420
 131 A L backslash Agrave Aacute Acircumflex Atilde Adieresis Aring Amacron Abreve Aogonek Lacute uni013B Lslash uni0410 uni0414 uni041C
 58 three eight B C germandbls uni0411 uni0412 uni0417 uni0421
 29 K X Z uni0416 uni041A uni0425
 157 at D G O Ograve Oacute Ocircumflex Otilde Odieresis Oslash Dcaron Dcroat Gcircumflex Gbreve Gdotaccent uni0122 Omacron Obreve uni041E uni0424 uni042D uni042E

StartChar: H
Encoding: 72 72 0
GlifName: H_
Width: 721
VWidth: 0
Flags: HMW
LayerCount: 2
Fore
SplineSet
164 306 m 1
 209 438 l 1
 700 438 l 1
 654 306 l 1
 164 306 l 1
695 699 m 1
 840 700 l 1
 598 0 l 1
 458 0 l 1
 695 699 l 1
253 699 m 1
 397 700 l 1
 156 0 l 1
 16 0 l 1
 253 699 l 1
EndSplineSet
EndChar

StartChar: O
Encoding: 79 79 1
GlifName: O_
Width: 764
VWidth: 0
Flags: HMW
LayerCount: 2
Fore
SplineSet
246 350 m 0
 209 249 233 125 361 123 c 0
 492 121 606 235 649 350 c 0
 686 451 662 575 534 577 c 0
 403 579 288 465 246 350 c 0
96 350 m 0
 158 546 352 716 563 715 c 0
 767 714 856 531 799 350 c 0
 737 153 543 -20 330 -19 c 0
 124 -18 39 169 96 350 c 0
EndSplineSet
EndChar

StartChar: I
Encoding: 73 73 2
GlifName: I_
Width: 281
VWidth: 0
Flags: HMW
LayerCount: 2
Fore
SplineSet
253 700 m 1
 399 700 l 1
 158 0 l 1
 16 0 l 1
 253 700 l 1
EndSplineSet
EndChar

StartChar: C
Encoding: 67 67 3
GlifName: C_
Width: 654
VWidth: 0
Flags: HMW
LayerCount: 2
Fore
SplineSet
250 350 m 0
 212 245 248 130 373 127 c 0
 462 125 543 172 613 220 c 1
 564 57 l 1
 494 14 419 -16 336 -15 c 0
 132 -14 37 167 96 350 c 0
 159 549 354 714 567 715 c 0
 642 716 703 690 758 641 c 1
 708 478 l 1
 671 539 616 573 543 573 c 0
 414 572 294 468 250 350 c 0
EndSplineSet
EndChar

StartChar: E
Encoding: 69 69 4
GlifName: E_
Width: 553
VWidth: 0
Flags: HMW
LayerCount: 2
Fore
SplineSet
104 0 m 1
 147 123 l 1
 484 123 l 1
 441 0 l 1
 104 0 l 1
302 577 m 1
 344 700 l 1
 680 700 l 1
 638 577 l 1
 302 577 l 1
210 311 m 1
 252 431 l 1
 570 431 l 1
 528 311 l 1
 210 311 l 1
253 700 m 1
 393 700 l 1
 152 0 l 1
 16 0 l 1
 253 700 l 1
EndSplineSet
EndChar

StartChar: F
Encoding: 70 70 6
GlifName: F_
Width: 506
VWidth: 0
Flags: HMW
LayerCount: 2
Fore
SplineSet
300 572 m 1
 344 700 l 1
 643 700 l 1
 599 572 l 1
 300 572 l 1
206 297 m 1
 248 418 l 1
 537 418 l 1
 495 297 l 1
 206 297 l 1
253 700 m 1
 393 700 l 1
 152 0 l 1
 16 0 l 1
 253 700 l 1
EndSplineSet
EndChar

StartChar: G
Encoding: 71 71 7
GlifName: G_
Width: 755
VWidth: 0
Flags: HMW
LayerCount: 2
Fore
SplineSet
422 259 m 1
 464 374 l 1
 790 374 l 1
 728 173 575 -19 340 -19 c 0
 133 -19 37 167 96 350 c 0
 160 550 357 714 572 715 c 0
 688 716 772 655 819 551 c 1
 680 482 l 1
 658 546 615 584 545 583 c 0
 410 582 290 470 245 350 c 0
 206 244 233 113 366 112 c 0
 472 111 543 177 600 259 c 1
 422 259 l 1
EndSplineSet
EndChar

StartChar: T
Encoding: 84 84 8
GlifName: T_
Width: 503
VWidth: 0
Flags: HMW
LayerCount: 2
Fore
SplineSet
141 568 m 1
 188 700 l 1
 686 700 l 1
 640 568 l 1
 463 568 l 1
 268 0 l 1
 126 0 l 1
 320 568 l 1
 141 568 l 1
EndSplineSet
EndChar

StartChar: L
Encoding: 76 76 9
GlifName: L_
Width: 476
VWidth: 0
Flags: HMW
LayerCount: 2
Fore
SplineSet
254 700 m 1
 397 700 l 1
 201 128 l 1
 464 128 l 1
 419 0 l 1
 14 0 l 1
 254 700 l 1
EndSplineSet
EndChar

StartChar: D
Encoding: 68 68 10
GlifName: D_
Width: 675
VWidth: 0
Flags: HMW
LayerCount: 2
Fore
SplineSet
253 699 m 1
 401 700 l 1
 160 0 l 1
 16 0 l 1
 253 699 l 1
251 0 m 2
 103 0 l 1
 149 133 l 1
 275 133 l 2
 408 133 518 226 564 350 c 0
 606 462 566 568 439 568 c 2
 296 568 l 1
 343 700 l 1
 472 700 l 2
 672 700 770 537 710 350 c 0
 647 150 461 0 251 0 c 2
EndSplineSet
EndChar

StartChar: Q
Encoding: 81 81 11
GlifName: Q_
Width: 793
VWidth: 0
Flags: HMW
LayerCount: 2
Fore
SplineSet
246 350 m 0
 207 245 237 116 369 114 c 0
 499 112 614 221 657 336 c 0
 696 441 670 575 536 577 c 0
 405 579 289 466 246 350 c 0
96 350 m 0
 158 546 354 716 565 715 c 0
 769 714 856 530 799 350 c 0
 737 154 546 -20 333 -19 c 0
 127 -18 39 169 96 350 c 0
394 300 m 1
 533 300 l 1
 736 -9 l 1
 593 -9 l 1
 394 300 l 1
EndSplineSet
EndChar

StartChar: A
Encoding: 65 65 12
GlifName: A_
Width: 671
VWidth: 0
Flags: HMW
LayerCount: 2
Fore
SplineSet
161 155 m 1
 215 270 l 1
 538 270 l 1
 513 155 l 1
 161 155 l 1
444 469 m 1
 267 229 l 1
 260 196 l 1
 107 0 l 1
 -61 0 l 1
 534 746 l 1
 616 0 l 1
 463 0 l 1
 448 191 l 1
 459 228 l 1
 444 469 l 1
EndSplineSet
EndChar

StartChar: R
Encoding: 82 82 13
GlifName: R_
Width: 586
VWidth: 0
Flags: HMW
LayerCount: 2
Fore
SplineSet
281 325 m 1
 422 325 l 1
 524 0 l 1
 368 0 l 1
 281 325 l 1
253 700 m 1
 397 700 l 1
 156 0 l 1
 16 0 l 1
 253 700 l 1
296 574 m 1
 339 700 l 1
 471 700 l 2
 601 700 690 611 653 476 c 0
 615 336 474 253 335 253 c 2
 184 253 l 1
 226 369 l 1
 350 369 l 2
 415 369 482 408 506 472 c 0
 528 531 494 574 435 574 c 2
 296 574 l 1
EndSplineSet
EndChar

StartChar: V
Encoding: 86 86 14
GlifName: V_
Width: 671
VWidth: 0
Flags: HMW
LayerCount: 2
Fore
SplineSet
375 253 m 1
 689 699 l 1
 859 699 l 1
 291 -46 l 1
 183 700 l 1
 340 700 l 1
 375 253 l 1
EndSplineSet
EndChar

StartChar: M
Encoding: 77 77 15
GlifName: M_
Width: 817
VWidth: 0
Flags: HMW
LayerCount: 2
Fore
SplineSet
302 387 m 1
 126 0 l 1
 -25 0 l 1
 327 736 l 1
 448 290 l 1
 886 744 l 1
 731 0 l 1
 583 0 l 1
 674 376 l 1
 380 63 l 1
 302 387 l 1
EndSplineSet
EndChar

StartChar: W
Encoding: 87 87 16
GlifName: W_
Width: 982
VWidth: 0
Flags: HMW
LayerCount: 2
Fore
SplineSet
721 260 m 1
 993 699 l 1
 1165 699 l 1
 655 -43 l 1
 589 411 l 1
 237 -44 l 1
 187 700 l 1
 349 700 l 1
 347 263 l 1
 683 740 l 1
 721 260 l 1
EndSplineSet
EndChar

StartChar: N
Encoding: 78 78 17
GlifName: N_
Width: 741
VWidth: 0
Flags: HMW
LayerCount: 2
Fore
SplineSet
721 700 m 1
 859 700 l 1
 608 -32 l 1
 300 430 l 1
 152 0 l 1
 13 0 l 1
 265 732 l 1
 572 270 l 1
 721 700 l 1
EndSplineSet
EndChar

StartChar: a
Encoding: 97 97 18
GlifName: a
Width: 496
VWidth: 0
Flags: HMW
LayerCount: 2
Fore
SplineSet
142 136 m 0
 133 103 157 84 187 82 c 0
 255 78 301 132 333 184 c 1
 331 128 l 1
 292 48 223 -9 130 -9 c 0
 48 -9 -12 48 12 132 c 0
 41 230 148 280 244 280 c 0
 298 280 342 263 381 227 c 1
 361 165 l 1
 330 190 299 205 258 204 c 0
 212 203 154 182 142 136 c 0
170 327 m 1
 150 421 l 1
 214 449 281 473 351 472 c 0
 439 471 532 425 503 325 c 1
 392 0 l 1
 267 0 l 1
 375 304 l 1
 387 342 364 365 322 368 c 0
 270 372 216 347 170 327 c 1
EndSplineSet
Substitution2: "alt a" a.alt
EndChar

StartChar: X
Encoding: 88 88 19
GlifName: X_
Width: 611
VWidth: 0
Flags: HMW
LayerCount: 2
Fore
SplineSet
600 699 m 1
 781 699 l 1
 466 355 l 1
 570 0 l 1
 406 0 l 1
 354 244 l 1
 145 0 l 1
 -36 0 l 1
 306 367 l 1
 212 700 l 1
 378 700 l 1
 420 486 l 1
 600 699 l 1
EndSplineSet
EndChar

StartChar: K
Encoding: 75 75 20
GlifName: K_
Width: 623
VWidth: 0
Flags: HMW
LayerCount: 2
Fore
SplineSet
253 700 m 1
 401 700 l 1
 160 0 l 1
 16 0 l 1
 253 700 l 1
624 699 m 1
 802 699 l 1
 409 366 l 1
 566 0 l 1
 406 0 l 1
 244 375 l 1
 624 699 l 1
EndSplineSet
EndChar

StartChar: Y
Encoding: 89 89 21
GlifName: Y_
Width: 595
VWidth: 0
Flags: HMW
LayerCount: 2
Fore
SplineSet
617 699 m 1
 787 699 l 1
 413 282 l 1
 316 0 l 1
 171 0 l 1
 274 297 l 1
 187 700 l 1
 342 700 l 1
 384 425 l 1
 617 699 l 1
EndSplineSet
EndChar

StartChar: B
Encoding: 66 66 22
GlifName: B_
Width: 597
VWidth: 0
Flags: HMW
LayerCount: 2
Fore
SplineSet
239 355 m 1
 262 420 l 1
 363 421 l 2
 415 422 473 451 492 504 c 0
 509 553 479 583 433 584 c 2
 358 584 l 1
 195 115 l 1
 272 116 l 2
 337 117 410 152 433 218 c 0
 454 280 411 313 354 314 c 2
 225 315 l 1
 253 394 l 1
 380 395 l 2
 495 393 609 330 571 198 c 0
 531 62 393 0 262 0 c 2
 14 0 l 1
 254 700 l 1
 469 700 l 2
 573 700 681 643 644 522 c 0
 609 405 480 357 368 355 c 2
 239 355 l 1
EndSplineSet
EndChar

StartChar: Z
Encoding: 90 90 23
GlifName: Z_
Width: 563
VWidth: 0
Flags: HMW
LayerCount: 2
Fore
SplineSet
184 568 m 1
 231 700 l 1
 741 699 l 1
 225 129 l 1
 513 128 l 1
 468 0 l 1
 -51 0 l 1
 461 567 l 1
 184 568 l 1
EndSplineSet
EndChar

StartChar: o
Encoding: 111 111 24
GlifName: o
Width: 543
VWidth: 0
Flags: HMW
LayerCount: 2
Fore
SplineSet
65 230 m 0
 102 364 234 470 374 470 c 0
 509 470 587 357 552 230 c 0
 515 96 383 -9 243 -9 c 0
 109 -9 30 103 65 230 c 0
196 230 m 0
 177 174 193 104 262 102 c 0
 333 100 399 167 421 230 c 0
 440 286 423 356 354 358 c 0
 283 360 218 293 196 230 c 0
EndSplineSet
EndChar

StartChar: J
Encoding: 74 74 25
GlifName: J_
Width: 287
VWidth: 0
Flags: HMW
LayerCount: 2
Fore
SplineSet
-153 -75 m 1
 -136 -93 -117 -111 -90 -109 c 0
 -45 -106 -9 -64 5 -25 c 2
 254 700 l 1
 405 700 l 1
 148 -56 l 2
 109 -164 9 -234 -107 -233 c 0
 -165 -232 -213 -210 -258 -176 c 1
 -153 -75 l 1
EndSplineSet
EndChar

StartChar: t
Encoding: 116 116 26
GlifName: t
Width: 278
VWidth: 0
Flags: HMW
LayerCount: 2
Fore
SplineSet
108 460 m 1
 382 460 l 1
 342 349 l 1
 67 349 l 1
 108 460 l 1
234 619 m 1
 361 620 l 1
 147 0 l 1
 24 0 l 1
 234 619 l 1
EndSplineSet
EndChar

StartChar: d
Encoding: 100 100 27
GlifName: d
Width: 567
VWidth: 0
Flags: HMW
LayerCount: 2
Fore
SplineSet
596 779 m 1
 727 780 l 1
 458 0 l 1
 331 0 l 1
 596 779 l 1
52 230 m 0
 89 350 204 471 337 470 c 0
 469 469 482 330 450 230 c 0
 414 116 320 -8 190 -9 c 0
 57 -10 18 121 52 230 c 0
185 230 m 0
 164 175 178 101 249 100 c 0
 320 99 386 168 409 230 c 0
 428 283 420 356 352 360 c 0
 279 364 209 293 185 230 c 0
EndSplineSet
EndChar

StartChar: l
Encoding: 108 108 28
GlifName: l
Width: 243
VWidth: 0
Flags: HMW
LayerCount: 2
Fore
SplineSet
269 779 m 1
 400 780 l 1
 131 0 l 1
 4 0 l 1
 269 779 l 1
EndSplineSet
EndChar

StartChar: i
Encoding: 105 105 29
GlifName: i
Width: 255
VWidth: 0
Flags: HMW
LayerCount: 2
Fore
SplineSet
213 637 m 0
 213 680 247 711 291 711 c 0
 335 711 370 680 370 637 c 0
 370 594 335 563 291 563 c 0
 247 563 213 594 213 637 c 0
167 459 m 1
 295 459 l 1
 137 0 l 1
 11 0 l 1
 167 459 l 1
EndSplineSet
EndChar

StartChar: r
Encoding: 114 114 30
GlifName: r
Width: 373
VWidth: 0
Flags: HMW
LayerCount: 2
Fore
SplineSet
288 460 m 1
 129 0 l 1
 2 0 l 1
 161 460 l 1
 288 460 l 1
376 323 m 1
 362 335 349 346 329 347 c 0
 272 349 230 285 212 242 c 1
 196 282 l 1
 229 361 305 469 391 470 c 0
 424 471 444 453 466 431 c 1
 376 323 l 1
EndSplineSet
EndChar

StartChar: c
Encoding: 99 99 31
GlifName: c
Width: 459
VWidth: 0
Flags: HMW
LayerCount: 2
Fore
SplineSet
193 230 m 0
 172 167 197 103 269 100 c 0
 330 98 385 133 430 169 c 1
 395 36 l 1
 348 9 298 -9 242 -9 c 0
 107 -8 27 101 63 230 c 0
 100 366 233 468 374 469 c 0
 425 469 470 454 510 424 c 1
 473 290 l 1
 451 334 417 362 365 361 c 0
 286 360 216 300 193 230 c 0
EndSplineSet
EndChar

StartChar: b
Encoding: 98 98 32
GlifName: b
Width: 567
VWidth: 0
Flags: HMW
LayerCount: 2
Fore
SplineSet
397 780 m 1
 129 0 l 1
 -0 0 l 1
 267 780 l 1
 397 780 l 1
564 230 m 0
 527 110 414 -11 281 -10 c 0
 149 -9 135 130 167 230 c 0
 203 344 297 468 427 469 c 0
 560 470 598 339 564 230 c 0
432 230 m 0
 453 285 439 359 368 360 c 0
 297 361 231 292 208 230 c 0
 189 177 197 104 265 100 c 0
 338 96 408 167 432 230 c 0
EndSplineSet
EndChar

StartChar: p
Encoding: 112 112 33
GlifName: p
Width: 567
VWidth: 0
Flags: HMW
LayerCount: 2
Fore
SplineSet
55 -219 m 1
 -76 -220 l 1
 159 460 l 1
 286 459 l 1
 55 -219 l 1
564 230 m 0
 526 109 414 -17 279 -15 c 0
 144 -13 139 131 171 230 c 0
 207 344 297 473 429 474 c 0
 564 475 598 339 564 230 c 0
432 231 m 0
 453 288 436 353 367 355 c 0
 297 357 230 290 208 229 c 0
 189 175 200 109 267 105 c 0
 339 101 409 168 432 231 c 0
EndSplineSet
EndChar

StartChar: q
Encoding: 113 113 34
GlifName: q
Width: 567
VWidth: 0
Flags: HMW
LayerCount: 2
Fore
SplineSet
254 -220 m 1
 487 460 l 1
 617 460 l 1
 383 -220 l 1
 254 -220 l 1
52 230 m 0
 90 351 203 477 338 475 c 0
 473 473 478 329 446 230 c 0
 410 116 321 -13 189 -14 c 0
 54 -15 18 121 52 230 c 0
185 229 m 0
 164 172 181 107 250 105 c 0
 320 103 387 170 409 231 c 0
 428 285 417 351 350 355 c 0
 278 359 208 292 185 229 c 0
EndSplineSet
EndChar

StartChar: h
Encoding: 104 104 35
GlifName: h
Width: 523
VWidth: 0
Flags: HMW
LayerCount: 2
Fore
SplineSet
400 780 m 1
 132 0 l 1
 3 0 l 1
 270 780 l 1
 400 780 l 1
382 280 m 2
 394 316 400 366 349 371 c 0
 294 376 253 321 228 281 c 1
 200 282 l 1
 237 375 304 473 415 474 c 0
 522 475 540 385 513 299 c 1
 411 0 l 1
 284 0 l 1
 382 280 l 2
EndSplineSet
EndChar

StartChar: n
Encoding: 110 110 36
GlifName: n
Width: 527
VWidth: 0
Flags: HMW
LayerCount: 2
Fore
SplineSet
290 460 m 1
 132 0 l 1
 2 0 l 1
 161 460 l 1
 290 460 l 1
382 280 m 2
 394 316 399 366 348 371 c 0
 293 376 253 322 228 282 c 1
 199 277 l 1
 236 370 302 469 413 470 c 0
 519 471 543 382 516 295 c 1
 415 0 l 1
 284 0 l 1
 382 280 l 2
EndSplineSet
EndChar

StartChar: m
Encoding: 109 109 37
GlifName: m
Width: 761
VWidth: 0
Flags: HMW
LayerCount: 2
Fore
SplineSet
359 280 m 2
 369 312 381 366 333 371 c 0
 282 377 244 320 223 282 c 1
 194 277 l 1
 230 367 293 469 402 470 c 0
 507 471 513 380 490 299 c 2
 388 0 l 1
 260 0 l 1
 359 280 l 2
286 460 m 1
 127 0 l 1
 2 0 l 1
 161 460 l 1
 286 460 l 1
749 295 m 2
 650 0 l 1
 520 0 l 1
 620 280 l 2
 630 312 642 366 594 371 c 0
 543 377 505 320 484 282 c 1
 435 277 l 1
 474 370 551 470 663 470 c 0
 769 470 773 376 749 295 c 2
EndSplineSet
EndChar

StartChar: k
Encoding: 107 107 38
GlifName: k
Width: 507
VWidth: 0
Flags: HMW
LayerCount: 2
Fore
SplineSet
266 779 m 1
 393 780 l 1
 125 0 l 1
 2 0 l 1
 266 779 l 1
431 459 m 1
 596 459 l 1
 333 260 l 1
 446 0 l 1
 306 0 l 1
 188 277 l 1
 431 459 l 1
EndSplineSet
EndChar

StartChar: u
Encoding: 117 117 39
GlifName: u
Width: 527
VWidth: 0
Flags: HMW
LayerCount: 2
Fore
SplineSet
286 0 m 1
 445 460 l 1
 574 460 l 1
 416 0 l 1
 286 0 l 1
195 180 m 1
 184 143 177 94 228 89 c 0
 283 84 324 138 349 178 c 1
 378 183 l 1
 341 90 274 -9 163 -10 c 0
 57 -11 36 78 61 165 c 1
 162 460 l 1
 293 459 l 1
 195 180 l 1
EndSplineSet
EndChar

StartChar: e
Encoding: 101 101 40
GlifName: e
Width: 524
VWidth: 0
Flags: HMW
LayerCount: 2
Fore
SplineSet
131 201 m 1
 154 280 l 1
 413 280 l 1
 423 326 409 375 352 376 c 0
 281 377 230 313 204 255 c 2
 193 230 l 1
 174 172 177 95 253 91 c 0
 306 88 350 124 388 156 c 1
 496 118 l 1
 428 44 340 -10 236 -9 c 0
 100 -7 31 102 65 230 c 0
 70 247 76 263 83 279 c 0
 133 390 246 470 369 469 c 0
 507 468 564 362 533 236 c 0
 530 224 526 213 523 201 c 1
 131 201 l 1
EndSplineSet
EndChar

StartChar: g
Encoding: 103 103 41
GlifName: g
Width: 563
VWidth: 0
Flags: HMW
LayerCount: 2
Fore
SplineSet
-29 -32 m 1
 92 -33 l 1
 88 -87 103 -126 164 -127 c 0
 243 -129 308 -58 332 10 c 2
 487 460 l 1
 613 460 l 1
 459 10 l 2
 412 -125 311 -235 156 -236 c 0
 27 -237 -46 -157 -29 -32 c 1
54 235 m 0
 91 355 205 471 337 470 c 0
 468 469 484 335 452 234 c 0
 417 121 322 1 193 -0 c 0
 61 -1 20 125 54 235 c 0
187 234 m 0
 166 177 183 111 252 109 c 0
 322 107 389 174 411 235 c 0
 430 289 419 358 352 360 c 0
 276 362 210 297 187 234 c 0
EndSplineSet
EndChar

StartChar: f
Encoding: 102 102 42
GlifName: f
Width: 308
VWidth: 0
Flags: HMW
LayerCount: 2
Fore
SplineSet
124 460 m 1
 403 460 l 1
 363 349 l 1
 84 349 l 1
 124 460 l 1
457 649 m 1
 448 661 439 675 422 675 c 0
 385 675 359 628 348 599 c 2
 141 0 l 1
 16 0 l 1
 230 631 l 2
 263 718 336 797 436 794 c 0
 480 793 508 773 538 744 c 1
 457 649 l 1
EndSplineSet
EndChar

StartChar: s
Encoding: 115 115 43
GlifName: s
Width: 415
VWidth: 0
Flags: HMW
LayerCount: 2
Fore
SplineSet
91 171 m 1
 116 133 151 83 204 86 c 0
 229 86 264 103 271 128 c 0
 282 169 233 186 205 199 c 0
 145 227 99 273 118 344 c 0
 140 427 223 469 309 469 c 0
 376 469 430 438 472 393 c 1
 398 315 l 1
 374 344 346 372 304 373 c 0
 281 374 244 362 236 338 c 0
 222 297 291 282 316 270 c 0
 374 243 416 193 399 126 c 0
 377 35 295 -16 200 -16 c 0
 115 -16 56 31 11 90 c 1
 91 171 l 1
EndSplineSet
EndChar

StartChar: y
Encoding: 121 121 44
GlifName: y
Width: 468
VWidth: 0
Flags: HMW
LayerCount: 2
Fore
SplineSet
586 459 m 1
 69 -219 l 1
 -69 -219 l 1
 138 52 l 1
 98 460 l 1
 230 460 l 1
 248 93 l 1
 183 96 l 1
 445 459 l 1
 586 459 l 1
EndSplineSet
EndChar

StartChar: w
Encoding: 119 119 45
GlifName: w
Width: 694
VWidth: 0
Flags: HMW
LayerCount: 2
Fore
SplineSet
101 460 m 1
 230 460 l 1
 236 214 l 1
 459 499 l 1
 484 211 l 1
 666 459 l 1
 809 459 l 1
 422 -34 l 1
 384 255 l 1
 146 -35 l 1
 101 460 l 1
EndSplineSet
EndChar

StartChar: v
Encoding: 118 118 46
GlifName: v
Width: 473
VWidth: 0
Flags: HMW
LayerCount: 2
Fore
SplineSet
107 460 m 1
 241 460 l 1
 260 193 l 1
 447 459 l 1
 590 459 l 1
 189 -53 l 1
 107 460 l 1
EndSplineSet
EndChar

StartChar: x
Encoding: 120 120 47
GlifName: x
Width: 471
VWidth: 0
Flags: HMW
LayerCount: 2
Fore
SplineSet
426 459 m 1
 578 459 l 1
 341 229 l 1
 435 0 l 1
 303 0 l 1
 248 149 l 1
 114 0 l 1
 -42 0 l 1
 207 250 l 1
 119 460 l 1
 256 460 l 1
 302 330 l 1
 426 459 l 1
EndSplineSet
EndChar

StartChar: z
Encoding: 122 122 48
GlifName: z
Width: 474
VWidth: 0
Flags: HMW
LayerCount: 2
Fore
SplineSet
307 340 m 1
 109 340 l 1
 152 460 l 1
 572 460 l 1
 225 120 l 1
 425 120 l 1
 382 0 l 1
 -47 0 l 1
 307 340 l 1
EndSplineSet
EndChar

StartChar: j
Encoding: 106 106 49
GlifName: j
Width: 250
VWidth: 0
Flags: HMW
LayerCount: 2
Fore
SplineSet
207 637 m 0
 207 680 242 711 286 711 c 0
 330 711 364 680 364 637 c 0
 364 594 330 563 286 563 c 0
 242 563 207 594 207 637 c 0
-118 -88 m 1
 -110 -100 -94 -113 -78 -114 c 0
 -42 -116 -18 -65 -8 -38 c 2
 163 460 l 1
 289 460 l 1
 109 -70 l 2
 76 -157 10 -236 -90 -233 c 0
 -134 -232 -169 -212 -199 -183 c 1
 -118 -88 l 1
EndSplineSet
EndChar

StartChar: P
Encoding: 80 80 50
GlifName: P_
Width: 566
VWidth: 0
Flags: HMW
LayerCount: 2
Fore
SplineSet
253 699 m 1
 397 700 l 1
 156 0 l 1
 16 0 l 1
 253 699 l 1
296 577 m 1
 339 700 l 1
 462 700 l 1
 593 698 677 613 644 476 c 0
 610 334 468 255 327 253 c 1
 184 253 l 1
 228 376 l 1
 352 376 l 1
 416 378 483 413 507 477 c 0
 529 537 494 576 436 577 c 2
 296 577 l 1
EndSplineSet
EndChar

StartChar: U
Encoding: 85 85 51
GlifName: U_
Width: 639
VWidth: 0
Flags: HMW
LayerCount: 2
Fore
SplineSet
250 700 m 1
 392 700 l 1
 231 239 l 2
 213 179 219 111 295 110 c 0
 384 109 436 173 461 240 c 1
 620 700 l 1
 762 700 l 1
 602 230 l 2
 552 87 441 -23 268 -23 c 0
 119 -23 46 93 89 230 c 1
 250 700 l 1
EndSplineSet
EndChar

StartChar: S
Encoding: 83 83 52
GlifName: S_
Width: 568
VWidth: 0
Flags: HMW
LayerCount: 2
Fore
SplineSet
157 244 m 1
 171 181 194 111 272 111 c 0
 323 110 377 142 396 191 c 0
 421 257 352 289 304 312 c 0
 218 353 161 423 191 522 c 0
 227 641 356 714 476 714 c 0
 577 714 636 651 661 559 c 1
 538 497 l 1
 523 544 501 586 445 587 c 0
 402 588 351 558 335 517 c 0
 311 456 401 428 442 408 c 0
 530 367 574 290 545 194 c 0
 506 67 376 -19 245 -19 c 0
 127 -19 57 65 36 174 c 1
 157 244 l 1
EndSplineSet
EndChar

StartChar: at
Encoding: 64 64 53
GlifName: at
Width: 724
VWidth: 0
Flags: HMW
LayerCount: 2
Fore
SplineSet
339 320 m 0
 330 294 327 253 361 247 c 0
 414 237 473 323 488 366 c 0
 497 392 499 434 464 439 c 0
 411 448 354 362 339 320 c 0
234 315 m 0
 261 408 353 534 462 529 c 0
 547 526 552 432 533 369 c 0
 506 276 424 155 315 156 c 0
 226 157 213 245 234 315 c 0
75 320 m 0
 141 527 345 720 572 719 c 0
 759 718 836 552 784 390 c 0
 750 284 657 138 529 145 c 0
 454 149 453 208 462 266 c 1
 458 289 l 1
 561 519 l 1
 663 519 l 1
 559 303 l 2
 555 294 550 285 547 276 c 0
 543 262 539 241 557 235 c 0
 613 215 672 352 686 390 c 0
 727 501 699 626 559 628 c 0
 382 630 229 476 173 320 c 0
 128 195 165 74 313 70 c 0
 382 68 448 91 511 115 c 1
 524 32 l 1
 450 -1 372 -22 291 -21 c 0
 94 -18 19 145 75 320 c 0
EndSplineSet
EndChar

StartChar: period
Encoding: 46 46 54
GlifName: period
Width: 297
VWidth: 0
Flags: HMW
LayerCount: 2
Fore
SplineSet
36 60 m 0
 36 105 72 142 120 142 c 0
 168 142 203 105 203 60 c 0
 203 15 168 -21 120 -21 c 0
 72 -21 36 15 36 60 c 0
EndSplineSet
EndChar

StartChar: comma
Encoding: 44 44 55
GlifName: comma
Width: 299
VWidth: 0
Flags: HMW
LayerCount: 2
Fore
SplineSet
99 108 m 1
 222 74 l 1
 23 -170 l 1
 -72 -146 l 1
 99 108 l 1
EndSplineSet
EndChar

StartChar: colon
Encoding: 58 58 56
GlifName: colon
Width: 297
VWidth: 0
Flags: HMW
LayerCount: 2
Fore
SplineSet
32 60 m 0
 32 105 67 142 115 142 c 0
 163 142 198 105 198 60 c 0
 198 15 163 -21 115 -21 c 0
 67 -21 32 15 32 60 c 0
160 435 m 0
 160 480 195 517 243 517 c 0
 291 517 326 480 326 435 c 0
 326 390 291 354 243 354 c 0
 195 354 160 390 160 435 c 0
EndSplineSet
EndChar

StartChar: semicolon
Encoding: 59 59 57
GlifName: semicolon
Width: 353
VWidth: 0
Flags: HMW
LayerCount: 2
Fore
SplineSet
202 431 m 0
 202 476 237 513 285 513 c 0
 333 513 369 476 369 431 c 0
 369 386 333 349 285 349 c 0
 237 349 202 386 202 431 c 0
114 108 m 1
 236 74 l 1
 38 -170 l 1
 -57 -146 l 1
 114 108 l 1
EndSplineSet
EndChar

StartChar: quotedbl
Encoding: 34 34 58
GlifName: quotedbl
Width: 473
VWidth: 0
Flags: HMW
LayerCount: 2
Fore
SplineSet
283 699 m 1
 427 699 l 1
 233 388 l 1
 144 387 l 1
 283 699 l 1
474 699 m 1
 618 699 l 1
 423 388 l 1
 335 387 l 1
 474 699 l 1
EndSplineSet
EndChar

StartChar: exclam
Encoding: 33 33 59
GlifName: exclam
Width: 312
VWidth: 0
Flags: HMW
LayerCount: 2
Fore
SplineSet
262 700 m 1
 421 700 l 1
 232 223 l 1
 126 223 l 1
 262 700 l 1
39 56 m 0
 39 101 74 134 122 134 c 0
 170 134 206 101 206 56 c 0
 206 11 170 -22 122 -22 c 0
 74 -22 39 11 39 56 c 0
EndSplineSet
EndChar

StartChar: quotesingle
Encoding: 39 39 60
GlifName: quotesingle
Width: 283
VWidth: 0
Flags: HMW
LayerCount: 2
Fore
SplineSet
283 699 m 1
 427 699 l 1
 233 388 l 1
 144 387 l 1
 283 699 l 1
EndSplineSet
EndChar

StartChar: numbersign
Encoding: 35 35 61
GlifName: numbersign
Width: 611
VWidth: 0
Flags: HMW
LayerCount: 2
Fore
SplineSet
161 421 m 1
 194 525 l 1
 706 525 l 1
 670 420 l 1
 534 420 l 1
 513 424 l 1
 323 424 l 1
 300 420 l 1
 161 421 l 1
38 180 m 1
 74 285 l 1
 198 285 l 1
 222 281 l 1
 431 281 l 1
 458 285 l 1
 587 285 l 1
 551 180 l 1
 38 180 l 1
619 699 m 1
 741 699 l 1
 339 0 l 1
 221 0 l 1
 351 225 l 1
 369 248 l 1
 488 457 l 1
 498 485 l 1
 619 699 l 1
402 699 m 1
 521 699 l 1
 398 487 l 1
 378 459 l 1
 259 249 l 1
 250 226 l 1
 120 0 l 1
 5 0 l 1
 402 699 l 1
EndSplineSet
EndChar

StartChar: hyphen
Encoding: 45 45 62
GlifName: hyphen
Width: 205
VWidth: 0
Flags: HMW
LayerCount: 2
Fore
SplineSet
10 180 m 1
 50 295 l 1
 252 295 l 1
 211 180 l 1
 10 180 l 1
EndSplineSet
EndChar

StartChar: dollar
Encoding: 36 36 63
GlifName: dollar
Width: 573
VWidth: 0
Flags: HMW
LayerCount: 2
Fore
SplineSet
462 817 m 1
 570 817 l 1
 511 646 l 1
 412 646 l 1
 462 817 l 1
233 57 m 1
 331 57 l 1
 281 -111 l 1
 174 -111 l 1
 233 57 l 1
544 496 m 1
 531 543 512 595 455 596 c 0
 410 597 359 568 344 524 c 0
 319 456 406 431 452 409 c 0
 539 368 588 290 562 194 c 0
 527 65 395 -10 266 -9 c 0
 152 -8 82 71 54 174 c 1
 172 244 l 1
 188 180 215 111 293 111 c 0
 343 111 397 143 413 192 c 0
 435 258 364 289 316 312 c 0
 230 353 171 428 199 527 c 0
 231 640 359 709 471 709 c 0
 572 709 635 650 666 559 c 1
 544 496 l 1
EndSplineSet
EndChar

StartChar: bar
Encoding: 124 124 64
GlifName: bar
Width: 311
VWidth: 0
Flags: HMW
LayerCount: 2
Fore
SplineSet
300 784 m 1
 427 784 l 1
 120 -214 l 1
 -8 -214 l 1
 300 784 l 1
EndSplineSet
EndChar

StartChar: zero
Encoding: 48 48 65
GlifName: zero
Width: 606
VWidth: 0
Flags: HMW
LayerCount: 2
Fore
SplineSet
238 350 m 0
 215 287 169 120 281 116 c 0
 394 112 468 261 500 350 c 0
 523 413 569 580 457 584 c 0
 344 588 270 439 238 350 c 0
101 350 m 0
 155 516 290 713 484 712 c 0
 683 711 684 492 638 350 c 0
 584 183 449 -13 254 -12 c 0
 57 -11 55 209 101 350 c 0
EndSplineSet
Substitution2: "Tabular Numbers lookup" uniFF10
EndChar

StartChar: one
Encoding: 49 49 66
GlifName: one
Width: 463
VWidth: 0
Flags: HMW
LayerCount: 2
Fore
SplineSet
184 513 m 1
 232 648 l 1
 552 714 l 1
 306 0 l 1
 168 0 l 1
 359 555 l 1
 184 513 l 1
EndSplineSet
Substitution2: "Tabular Numbers lookup" uniFF11
EndChar

StartChar: two
Encoding: 50 50 67
GlifName: two
Width: 595
VWidth: 0
Flags: HMW
LayerCount: 2
Fore
SplineSet
-20 0 m 1
 378 331 l 2
 428 372 494 422 513 488 c 0
 527 537 505 582 451 584 c 0
 372 587 323 509 295 447 c 1
 155 447 l 1
 204 588 318 714 478 713 c 0
 598 712 695 619 661 496 c 0
 639 416 577 351 513 302 c 2
 293 136 l 1
 563 135 l 1
 521 0 l 1
 -20 0 l 1
EndSplineSet
Substitution2: "Tabular Numbers lookup" uniFF12
EndChar

StartChar: four
Encoding: 52 52 68
GlifName: four
Width: 627
VWidth: 0
Flags: HMW
LayerCount: 2
Fore
SplineSet
0 130 m 1
 571 698 l 1
 674 699 l 1
 435 0 l 1
 288 0 l 1
 348 176 l 1
 365 187 l 1
 459 455 l 1
 238 239 l 1
 459 238 l 1
 480 254 l 1
 627 254 l 1
 583 129 l 1
 0 130 l 1
EndSplineSet
Substitution2: "Tabular Numbers lookup" uniFF14
EndChar

StartChar: slash
Encoding: 47 47 69
GlifName: slash
Width: 548
VWidth: 0
Flags: HMW
LayerCount: 2
Fore
SplineSet
593 699 m 1
 726 699 l 1
 38 -149 l 1
 -96 -148 l 1
 593 699 l 1
EndSplineSet
EndChar

StartChar: backslash
Encoding: 92 92 70
GlifName: backslash
Width: 505
VWidth: 0
Flags: HMW
LayerCount: 2
Fore
SplineSet
199 701 m 1
 320 700 l 1
 435 0 l 1
 318 0 l 1
 199 701 l 1
EndSplineSet
EndChar

StartChar: eight
Encoding: 56 56 71
GlifName: eight
Width: 568
VWidth: 0
Flags: HMW
LayerCount: 2
Fore
SplineSet
198 532 m 0
 232 643 353 715 465 714 c 0
 569 713 657 640 625 530 c 0
 592 417 470 346 357 346 c 0
 251 346 165 421 198 532 c 0
325 516 m 0
 312 478 324 430 370 429 c 0
 422 428 473 474 489 517 c 0
 503 556 490 603 443 604 c 0
 389 605 341 560 325 516 c 0
58 191 m 0
 95 315 230 395 356 394 c 0
 472 394 570 312 533 189 c 0
 496 66 358 -15 234 -14 c 0
 119 -13 22 71 58 191 c 0
204 210 m 0
 186 162 203 108 260 107 c 0
 323 106 383 158 402 212 c 0
 418 258 398 313 344 314 c 0
 282 315 224 261 204 210 c 0
EndSplineSet
Substitution2: "Tabular Numbers lookup" uniFF18
EndChar

StartChar: nine
Encoding: 57 57 72
GlifName: nine
Width: 605
VWidth: 0
Flags: HMW
LayerCount: 2
Fore
SplineSet
530 459 m 0
 550 519 528 586 457 587 c 0
 383 588 313 525 290 458 c 0
 270 399 292 329 363 328 c 0
 437 327 507 392 530 459 c 0
266 3 m 1
 78 3 l 1
 373 263 l 1
 406 271 l 1
 371 249 334 231 292 232 c 0
 170 234 123 354 152 459 c 0
 191 603 331 714 481 714 c 0
 626 714 707 597 668 459 c 0
 648 388 600 328 549 277 c 2
 266 3 l 1
EndSplineSet
Substitution2: "Tabular Numbers lookup" uniFF19
EndChar

StartChar: three
Encoding: 51 51 73
GlifName: three
Width: 564
VWidth: 0
Flags: HMW
LayerCount: 2
Fore
SplineSet
324 341 m 1
 343 410 l 1
 403 420 484 445 502 512 c 0
 514 552 497 590 452 592 c 0
 395 594 355 548 329 504 c 1
 196 505 l 1
 241 622 342 712 473 712 c 0
 582 712 675 634 643 519 c 0
 605 381 447 347 324 341 c 1
259 -14 m 0
 124 -13 56 84 76 212 c 1
 213 211 l 1
 207 155 220 109 285 107 c 0
 344 105 406 149 424 205 c 0
 450 284 377 304 315 311 c 1
 336 388 l 1
 455 382 600 338 560 189 c 0
 525 60 386 -15 259 -14 c 0
EndSplineSet
Substitution2: "Tabular Numbers lookup" uniFF13
EndChar

StartChar: five
Encoding: 53 53 74
GlifName: five
Width: 585
VWidth: 0
Flags: HMW
LayerCount: 2
Fore
SplineSet
586 225 m 0
 547 84 407 -11 263 -12 c 0
 165 -12 88 31 30 96 c 1
 125 208 l 1
 157 161 199 124 263 123 c 0
 336 122 415 168 438 240 c 0
 458 306 412 350 348 353 c 0
 278 356 210 330 146 306 c 1
 354 700 l 1
 723 700 l 1
 682 573 l 1
 425 573 l 1
 334 431 l 1
 370 445 409 455 448 455 c 0
 574 453 616 332 586 225 c 0
EndSplineSet
Substitution2: "Tabular Numbers lookup" uniFF15
EndChar

StartChar: six
Encoding: 54 54 75
GlifName: six
Width: 605
VWidth: 0
Flags: HMW
LayerCount: 2
Fore
SplineSet
223 241 m 0
 203 181 226 114 297 113 c 0
 371 112 441 175 464 242 c 0
 484 301 461 371 390 372 c 0
 316 373 246 308 223 241 c 0
487 697 m 1
 675 697 l 1
 381 437 l 1
 347 429 l 1
 382 451 419 469 461 468 c 0
 583 466 630 346 601 241 c 0
 562 97 422 -14 272 -14 c 0
 127 -14 46 103 85 241 c 0
 105 312 153 372 204 423 c 2
 487 697 l 1
EndSplineSet
Substitution2: "Tabular Numbers lookup" uniFF16
EndChar

StartChar: seven
Encoding: 55 55 76
GlifName: seven
Width: 546
VWidth: 0
Flags: HMW
LayerCount: 2
Fore
SplineSet
164 563 m 1
 208 700 l 1
 732 699 l 1
 198 0 l 1
 39 0 l 1
 476 563 l 1
 164 563 l 1
EndSplineSet
Substitution2: "Tabular Numbers lookup" uniFF17
EndChar

StartChar: plus
Encoding: 43 43 77
GlifName: plus
Width: 618
VWidth: 0
Flags: HMW
LayerCount: 2
Fore
SplineSet
74 202 m 1
 118 329 l 1
 620 329 l 1
 575 201 l 1
 74 202 l 1
369 529 m 1
 505 530 l 1
 321 1 l 1
 189 1 l 1
 369 529 l 1
EndSplineSet
EndChar

StartChar: equal
Encoding: 61 61 78
GlifName: equal
Width: 585
VWidth: 0
Flags: HMW
LayerCount: 2
Fore
SplineSet
33 100 m 1
 73 215 l 1
 555 215 l 1
 514 99 l 1
 33 100 l 1
98 291 m 1
 138 406 l 1
 620 406 l 1
 580 290 l 1
 98 291 l 1
EndSplineSet
EndChar

StartChar: percent
Encoding: 37 37 79
GlifName: percent
Width: 821
VWidth: 0
Flags: HMW
LayerCount: 2
Fore
SplineSet
152 540 m 0
 180 633 276 716 376 716 c 0
 474 716 523 626 497 538 c 0
 469 445 371 361 271 361 c 0
 173 361 126 452 152 540 c 0
257 537 m 0
 247 507 257 468 298 466 c 0
 337 464 380 505 391 540 c 0
 401 570 392 610 351 612 c 0
 312 614 268 572 257 537 c 0
457 163 m 0
 485 256 581 339 681 339 c 0
 779 339 827 249 801 161 c 0
 773 68 676 -15 576 -15 c 0
 478 -15 431 75 457 163 c 0
562 160 m 0
 552 130 564 91 601 89 c 0
 640 87 681 124 695 163 c 0
 705 193 694 233 657 235 c 0
 618 237 576 199 562 160 c 0
768 699 m 1
 908 699 l 1
 184 0 l 1
 47 0 l 1
 768 699 l 1
EndSplineSet
EndChar

StartChar: ampersand
Encoding: 38 38 80
GlifName: ampersand
Width: 687
VWidth: 0
Flags: HMW
LayerCount: 2
Fore
SplineSet
294 375 m 2
 264 429 231 483 248 548 c 0
 274 648 386 716 486 715 c 0
 579 714 651 643 626 548 c 0
 601 451 497 394 415 351 c 0
 342 313 223 286 196 197 c 0
 179 142 214 105 268 102 c 0
 412 92 541 242 633 333 c 1
 706 264 l 1
 583 137 422 -15 233 -12 c 0
 121 -10 26 68 58 187 c 0
 95 323 238 367 352 419 c 0
 403 443 490 479 506 540 c 0
 514 572 500 606 460 607 c 0
 422 608 383 579 371 540 c 0
 355 492 390 446 411 407 c 2
 634 0 l 1
 499 0 l 1
 294 375 l 2
EndSplineSet
EndChar

StartChar: question
Encoding: 63 63 81
GlifName: question
Width: 571
VWidth: 0
Flags: HMW
LayerCount: 2
Fore
SplineSet
510 500 m 0
 531 558 499 601 439 602 c 0
 372 604 312 559 264 518 c 1
 193 594 l 1
 271 661 364 718 471 716 c 0
 592 714 676 619 639 499 c 0
 602 379 486 312 370 286 c 1
 330 193 l 1
 224 193 l 1
 263 370 l 1
 290 370 l 1
 372 374 480 416 510 500 c 0
144 55 m 0
 144 97 181 128 225 128 c 0
 270 128 306 96 306 55 c 0
 306 12 269 -21 225 -21 c 0
 180 -21 144 12 144 55 c 0
EndSplineSet
EndChar

StartChar: parenleft
Encoding: 40 40 82
GlifName: parenleft
Width: 312
VWidth: 0
Flags: HMW
LayerCount: 2
Fore
SplineSet
382 778 m 1
 502 778 l 1
 397 627 307 466 252 290 c 0
 202 131 180 -35 203 -201 c 1
 90 -201 l 1
 60 -36 75 131 123 290 c 0
 177 468 266 633 382 778 c 1
EndSplineSet
EndChar

StartChar: parenright
Encoding: 41 41 83
GlifName: parenright
Width: 312
VWidth: 0
Flags: HMW
LayerCount: 2
Fore
SplineSet
41 -198 m 1
 -78 -198 l 1
 27 -47 116 114 171 290 c 0
 221 449 243 615 220 781 c 1
 333 781 l 1
 363 616 349 449 301 290 c 0
 247 112 157 -53 41 -198 c 1
EndSplineSet
EndChar

StartChar: asterisk
Encoding: 42 42 84
GlifName: asterisk
Width: 557
VWidth: 0
Flags: HMW
LayerCount: 2
Fore
SplineSet
610 602 m 1
 609 486 l 1
 385 443 l 1
 386 510 l 1
 610 602 l 1
508 326 m 1
 393 256 l 1
 354 461 l 1
 412 495 l 1
 508 326 l 1
240 260 m 1
 165 336 l 1
 363 494 l 1
 407 452 l 1
 240 260 l 1
172 490 m 1
 241 600 l 1
 410 504 l 1
 371 445 l 1
 172 490 l 1
404 699 m 1
 524 699 l 1
 420 476 l 1
 355 476 l 1
 404 699 l 1
EndSplineSet
EndChar

StartChar: less
Encoding: 60 60 85
GlifName: less
Width: 602
VWidth: 0
Flags: HMW
LayerCount: 2
Fore
SplineSet
279 258 m 1
 535 125 l 1
 491 6 l 1
 80 222 l 1
 110 307 l 1
 670 524 l 1
 622 384 l 1
 279 258 l 1
EndSplineSet
EndChar

StartChar: greater
Encoding: 62 62 86
GlifName: greater
Width: 602
VWidth: 0
Flags: HMW
LayerCount: 2
Fore
SplineSet
393 266 m 1
 139 399 l 1
 182 518 l 1
 592 302 l 1
 563 217 l 1
 3 -0 l 1
 50 140 l 1
 393 266 l 1
EndSplineSet
EndChar

StartChar: bracketleft
Encoding: 91 91 87
GlifName: bracketleft
Width: 324
VWidth: 0
Flags: HMW
LayerCount: 2
Fore
SplineSet
385 664 m 1
 147 -104 l 1
 243 -104 l 1
 206 -220 l 1
 -17 -220 l 1
 292 780 l 1
 515 780 l 1
 479 665 l 1
 385 664 l 1
EndSplineSet
EndChar

StartChar: bracketright
Encoding: 93 93 88
GlifName: bracketright
Width: 324
VWidth: 0
Flags: HMW
LayerCount: 2
Fore
SplineSet
45 -104 m 1
 282 664 l 1
 186 664 l 1
 223 780 l 1
 446 780 l 1
 137 -220 l 1
 -86 -220 l 1
 -50 -105 l 1
 45 -104 l 1
EndSplineSet
EndChar

StartChar: asciicircum
Encoding: 94 94 89
GlifName: asciicircum
Width: 479
VWidth: 0
Flags: HMW
LayerCount: 2
Fore
SplineSet
393 588 m 1
 263 452 l 1
 136 452 l 1
 386 709 l 1
 461 710 l 1
 534 450 l 1
 424 450 l 1
 393 588 l 1
EndSplineSet
EndChar

StartChar: underscore
Encoding: 95 95 90
GlifName: underscore
Width: 491
VWidth: 0
Flags: HMW
LayerCount: 2
Fore
SplineSet
-107 -147 m 1
 -78 -64 l 1
 418 -64 l 1
 389 -147 l 1
 -107 -147 l 1
EndSplineSet
EndChar

StartChar: grave
Encoding: 96 96 91
GlifName: grave
Width: 352
VWidth: 0
Flags: HMW
LayerCount: 2
Fore
SplineSet
223 659 m 1
 332 705 l 1
 429 541 l 1
 352 506 l 1
 223 659 l 1
EndSplineSet
EndChar

StartChar: braceleft
Encoding: 123 123 92
GlifName: braceleft
Width: 352
VWidth: 0
Flags: HMW
LayerCount: 2
Fore
SplineSet
389 623 m 2
 347 490 l 2
 313 383 268 302 151 281 c 1
 156 300 l 1
 266 274 249 180 222 90 c 2
 179 -44 l 2
 170 -72 178 -92 207 -93 c 2
 244 -93 l 1
 212 -200 l 1
 139 -200 l 2
 61 -199 16 -134 39 -60 c 2
 98 132 l 2
 112 180 117 210 77 242 c 1
 105 338 l 1
 153 363 176 398 193 449 c 2
 251 641 l 2
 277 719 345 777 427 779 c 1
 513 779 l 1
 483 674 l 1
 451 674 l 2
 419 674 399 654 389 623 c 2
EndSplineSet
EndChar

StartChar: braceright
Encoding: 125 125 93
GlifName: braceright
Width: 352
VWidth: 0
Flags: HMW
LayerCount: 2
Fore
SplineSet
79 -44 m 2
 120 90 l 2
 154 197 199 278 316 299 c 1
 311 280 l 1
 201 306 218 400 245 490 c 2
 288 625 l 2
 297 653 289 672 260 673 c 2
 224 673 l 1
 255 780 l 1
 329 780 l 2
 407 779 451 714 428 640 c 2
 369 448 l 2
 355 400 350 370 390 338 c 1
 363 242 l 1
 315 217 291 182 274 131 c 2
 216 -61 l 2
 191 -139 122 -197 40 -199 c 1
 -46 -199 l 1
 -15 -94 l 1
 16 -94 l 2
 48 -94 69 -75 79 -44 c 2
EndSplineSet
EndChar

StartChar: asciitilde
Encoding: 126 126 94
GlifName: asciitilde
Width: 541
VWidth: 0
Flags: HMW
LayerCount: 2
Fore
SplineSet
164 166 m 1
 62 172 l 1
 63 180 62 189 64 197 c 0
 72 229 93 260 116 284 c 0
 150 318 197 341 245 340 c 0
 286 340 320 317 350 292 c 0
 364 280 383 258 404 259 c 0
 425 260 446 283 454 301 c 0
 458 311 459 323 459 333 c 1
 563 327 l 1
 562 318 563 307 560 298 c 0
 553 266 534 233 511 209 c 0
 482 179 439 158 397 159 c 0
 357 160 326 184 296 208 c 0
 277 223 256 242 230 241 c 0
 203 240 178 217 168 193 c 0
 164 185 165 175 164 166 c 1
EndSplineSet
EndChar

StartChar: exclamdown
Encoding: 161 161 95
GlifName: exclamdown
Width: 312
VWidth: 0
Flags: HMW
LayerCount: 2
Fore
SplineSet
101 -234 m 1
 -59 -234 l 1
 133 243 l 1
 237 243 l 1
 101 -234 l 1
322 408 m 0
 311 368 262 332 221 334 c 0
 179 336 151 370 162 412 c 0
 173 452 222 489 263 487 c 0
 305 485 333 450 322 408 c 0
EndSplineSet
EndChar

StartChar: cent
Encoding: 162 162 96
GlifName: cent
Width: 545
VWidth: 0
Flags: HMW
LayerCount: 2
Fore
SplineSet
190 37 m 1
 287 37 l 1
 241 -111 l 1
 131 -111 l 1
 190 37 l 1
207 230 m 0
 184 168 207 103 279 100 c 0
 340 98 397 134 443 170 c 1
 402 35 l 1
 355 8 304 -9 248 -9 c 0
 113 -8 38 102 77 230 c 0
 118 366 254 468 396 469 c 0
 447 469 490 454 530 424 c 1
 489 288 l 1
 469 333 436 362 384 361 c 0
 309 360 233 299 207 230 c 0
369 577 m 1
 478 577 l 1
 420 429 l 1
 323 429 l 1
 369 577 l 1
EndSplineSet
EndChar

StartChar: sterling
Encoding: 163 163 97
GlifName: sterling
Width: 566
VWidth: 0
Flags: HMW
LayerCount: 2
Fore
SplineSet
134 370 m 1
 490 370 l 1
 456 277 l 1
 100 277 l 1
 134 370 l 1
522 471 m 1
 531 522 534 586 466 589 c 0
 411 592 358 550 338 501 c 0
 306 424 369 347 346 268 c 0
 314 158 200 86 97 53 c 1
 154 123 l 1
 492 123 l 1
 449 0 l 1
 -3 0 l 1
 81 82 188 159 224 276 c 0
 250 360 185 436 209 521 c 0
 242 636 370 710 485 709 c 0
 600 708 661 622 649 514 c 1
 522 471 l 1
EndSplineSet
EndChar

StartChar: currency
Encoding: 164 164 98
GlifName: currency
Width: 543
VWidth: 0
Flags: HMW
LayerCount: 2
Fore
SplineSet
141 506 m 1
 214 562 l 1
 277 457 l 1
 208 406 l 1
 141 506 l 1
45 38 m 1
 4 104 l 1
 126 194 l 1
 167 132 l 1
 45 38 l 1
516 406 m 1
 473 471 l 1
 597 562 l 1
 637 499 l 1
 516 406 l 1
361 140 m 1
 434 194 l 1
 497 90 l 1
 428 39 l 1
 361 140 l 1
94 300 m 0
 133 425 257 539 393 539 c 0
 526 539 583 417 547 300 c 0
 508 175 383 61 247 61 c 0
 114 61 58 183 94 300 c 0
211 299 m 0
 191 246 208 183 273 182 c 0
 341 180 407 241 429 301 c 0
 449 354 433 417 368 418 c 0
 300 420 233 359 211 299 c 0
EndSplineSet
EndChar

StartChar: yen
Encoding: 165 165 99
GlifName: yen
Width: 606
VWidth: 0
Flags: HMW
LayerCount: 2
Fore
SplineSet
79 272 m 1
 112 365 l 1
 635 365 l 1
 603 272 l 1
 79 272 l 1
28 122 m 1
 60 215 l 1
 584 215 l 1
 552 122 l 1
 28 122 l 1
623 699 m 1
 792 699 l 1
 420 285 l 1
 322 0 l 1
 176 0 l 1
 279 298 l 1
 193 700 l 1
 347 700 l 1
 389 425 l 1
 623 699 l 1
EndSplineSet
EndChar

StartChar: brokenbar
Encoding: 166 166 100
GlifName: brokenbar
Width: 311
VWidth: 0
Flags: HMW
LayerCount: 2
Fore
SplineSet
276 694 m 1
 404 694 l 1
 314 437 l 1
 186 437 l 1
 276 694 l 1
256 263 m 1
 167 6 l 1
 39 6 l 1
 128 263 l 1
 256 263 l 1
EndSplineSet
EndChar

StartChar: section
Encoding: 167 167 101
GlifName: section
Width: 499
VWidth: 0
Flags: HMW
LayerCount: 2
Fore
SplineSet
496 559 m 1
 475 586 452 608 415 608 c 0
 394 608 351 596 344 572 c 0
 335 539 395 526 416 516 c 0
 475 492 521 441 502 374 c 0
 472 269 358 240 262 234 c 1
 275 272 l 1
 314 286 363 306 377 350 c 0
 394 402 339 421 302 440 c 0
 246 469 205 515 225 582 c 0
 250 668 347 718 431 719 c 0
 498 720 552 693 585 638 c 1
 496 559 l 1
110 169 m 1
 131 129 161 92 216 93 c 0
 243 93 286 107 295 135 c 0
 308 173 254 187 229 200 c 0
 169 225 112 270 133 342 c 0
 162 446 283 472 376 478 c 1
 365 444 l 1
 326 429 277 412 262 369 c 0
 242 313 305 296 343 276 c 0
 400 247 439 194 421 129 c 0
 395 34 289 -19 197 -19 c 0
 113 -19 53 24 20 91 c 1
 110 169 l 1
EndSplineSet
EndChar

StartChar: dieresis
Encoding: 168 168 102
GlifName: dieresis
Width: 470
VWidth: 0
Flags: HMW
LayerCount: 2
Fore
SplineSet
431 642 m 0
 440 679 487 715 525 713 c 0
 565 711 592 677 583 638 c 0
 574 601 527 564 489 566 c 0
 449 568 422 603 431 642 c 0
213 642 m 0
 222 679 269 715 307 713 c 0
 347 711 374 677 365 638 c 0
 356 601 309 564 271 566 c 0
 231 568 204 603 213 642 c 0
EndSplineSet
EndChar

StartChar: copyright
Encoding: 169 169 103
GlifName: copyright
Width: 752
VWidth: 0
Flags: HMW
LayerCount: 2
Fore
SplineSet
334 350 m 0
 312 286 337 219 411 217 c 0
 464 215 512 243 554 271 c 1
 528 174 l 1
 486 150 444 132 395 132 c 0
 273 132 210 238 241 350 c 0
 274 469 390 567 515 568 c 0
 561 569 598 552 634 524 c 1
 607 427 l 1
 581 461 552 484 507 484 c 0
 430 484 358 421 334 350 c 0
165 350 m 0
 118 206 177 42 347 41 c 0
 523 40 682 189 735 350 c 0
 782 494 723 658 553 659 c 0
 377 660 218 511 165 350 c 0
109 350 m 0
 164 541 347 711 552 710 c 0
 750 709 841 527 791 350 c 0
 736 159 552 -11 347 -10 c 0
 149 -9 59 173 109 350 c 0
EndSplineSet
EndChar

StartChar: registered
Encoding: 174 174 104
GlifName: registered
Width: 752
VWidth: 0
Flags: HMW
LayerCount: 2
Fore
SplineSet
416 336 m 1
 492 336 l 1
 557 149 l 1
 462 149 l 1
 416 336 l 1
383 569 m 1
 470 569 l 1
 340 151 l 1
 254 151 l 1
 383 569 l 1
412 495 m 1
 434 569 l 1
 513 570 l 1
 587 566 651 521 630 439 c 0
 609 356 525 311 444 307 c 1
 352 307 l 1
 374 375 l 1
 449 376 l 1
 485 379 530 399 541 437 c 0
 551 472 526 491 495 495 c 1
 412 495 l 1
165 350 m 0
 118 206 177 42 347 41 c 0
 523 40 682 189 735 350 c 0
 782 494 723 658 553 659 c 0
 377 660 218 511 165 350 c 0
109 350 m 0
 164 540 347 711 552 710 c 0
 750 709 841 527 791 350 c 0
 736 160 552 -11 347 -10 c 0
 149 -9 59 173 109 350 c 0
EndSplineSet
EndChar

StartChar: ordfeminine
Encoding: 170 170 105
GlifName: ordfeminine
Width: 245
VWidth: 0
Flags: HMW
LayerCount: 2
Fore
SplineSet
207 529 m 0
 203 514 214 503 228 502 c 0
 261 500 282 529 301 551 c 1
 301 523 l 1
 277 487 248 455 201 456 c 0
 159 457 129 489 142 531 c 0
 156 577 212 605 257 605 c 0
 285 605 307 595 329 579 c 1
 318 548 l 1
 302 558 287 569 267 568 c 0
 247 567 213 551 207 529 c 0
223 630 m 1
 214 680 l 1
 245 692 278 706 312 705 c 0
 357 704 397 681 389 631 c 1
 332 461 l 1
 268 461 l 1
 325 617 l 1
 321 635 321 646 300 650 c 0
 275 654 245 639 223 630 c 1
EndSplineSet
EndChar

StartChar: ordmasculine
Encoding: 186 186 106
GlifName: ordmasculine
Width: 261
VWidth: 0
Flags: HMW
LayerCount: 2
Fore
SplineSet
160 581 m 0
 179 646 248 700 316 699 c 0
 383 698 424 643 405 579 c 0
 386 514 316 460 248 461 c 0
 181 462 141 517 160 581 c 0
225 579 m 0
 216 554 223 518 255 517 c 0
 289 516 328 551 339 581 c 0
 348 606 341 642 309 643 c 0
 275 644 236 609 225 579 c 0
EndSplineSet
EndChar

StartChar: guillemotleft
Encoding: 171 171 107
GlifName: guillemotleft
Width: 500
VWidth: 0
Flags: HMW
LayerCount: 2
Fore
SplineSet
349 254 m 1
 424 60 l 1
 332 5 l 1
 242 263 l 1
 492 503 l 1
 556 439 l 1
 349 254 l 1
168 254 m 1
 244 60 l 1
 151 5 l 1
 62 263 l 1
 311 503 l 1
 376 439 l 1
 168 254 l 1
EndSplineSet
EndChar

StartChar: guillemotright
Encoding: 187 187 108
GlifName: guillemotright
Width: 500
VWidth: 0
Flags: HMW
LayerCount: 2
Fore
SplineSet
218 256 m 1
 142 450 l 1
 235 505 l 1
 325 247 l 1
 75 7 l 1
 11 71 l 1
 218 256 l 1
399 256 m 1
 323 450 l 1
 416 505 l 1
 505 247 l 1
 255 7 l 1
 191 71 l 1
 399 256 l 1
EndSplineSet
EndChar

StartChar: uni00AD
Encoding: 173 173 109
GlifName: uni00A_D_
Width: 197
VWidth: 0
Flags: HMW
LayerCount: 2
Fore
SplineSet
20 201 m 1
 44 275 l 1
 237 275 l 1
 212 201 l 1
 20 201 l 1
EndSplineSet
EndChar

StartChar: logicalnot
Encoding: 172 172 110
GlifName: logicalnot
Width: 603
VWidth: 0
Flags: HMW
LayerCount: 2
Fore
SplineSet
102 280 m 1
 140 395 l 1
 628 395 l 1
 550 176 l 1
 454 176 l 1
 494 280 l 1
 102 280 l 1
EndSplineSet
EndChar

StartChar: macron
Encoding: 175 175 111
GlifName: macron
Width: 494
VWidth: 0
Flags: HMW
LayerCount: 2
Fore
SplineSet
218 580 m 1
 254 695 l 1
 603 695 l 1
 567 580 l 1
 218 580 l 1
EndSplineSet
EndChar

StartChar: degree
Encoding: 176 176 112
GlifName: degree
Width: 273
VWidth: 0
Flags: HMW
LayerCount: 2
Fore
SplineSet
164 599 m 0
 183 664 253 720 321 719 c 0
 389 718 429 660 410 596 c 0
 391 531 321 475 252 476 c 0
 184 477 145 535 164 599 c 0
227 597 m 0
 218 571 227 535 259 534 c 0
 294 533 335 569 346 599 c 0
 355 625 346 661 314 662 c 0
 279 663 238 627 227 597 c 0
EndSplineSet
EndChar

StartChar: plusminus
Encoding: 177 177 113
GlifName: plusminus
Width: 590
VWidth: 0
Flags: HMW
LayerCount: 2
Fore
SplineSet
27 5 m 1
 63 121 l 1
 537 121 l 1
 500 5 l 1
 27 5 l 1
129 336 m 1
 167 457 l 1
 640 457 l 1
 602 336 l 1
 129 336 l 1
386 620 m 1
 519 620 l 1
 379 173 l 1
 250 173 l 1
 386 620 l 1
EndSplineSet
EndChar

StartChar: uni00B2
Encoding: 178 178 114
GlifName: uni00B_2
Width: 367
VWidth: 0
Flags: HMW
LayerCount: 2
Fore
SplineSet
60 284 m 1
 306 481 l 2
 336 505 381 535 393 575 c 0
 401 601 392 630 362 633 c 0
 314 638 282 585 262 551 c 1
 176 552 l 1
 211 634 279 710 376 709 c 0
 451 708 503 650 481 576 c 0
 467 529 428 493 391 464 c 2
 257 364 l 1
 415 362 l 1
 387 283 l 1
 60 284 l 1
EndSplineSet
EndChar

StartChar: uni00B3
Encoding: 179 179 115
GlifName: uni00B_3
Width: 329
VWidth: 0
Flags: HMW
LayerCount: 2
Fore
SplineSet
253 486 m 1
 266 526 l 1
 303 534 352 547 365 588 c 0
 372 610 362 633 337 635 c 0
 303 637 280 607 262 584 c 1
 179 585 l 1
 212 651 269 706 348 706 c 0
 413 705 469 660 448 591 c 0
 423 509 326 492 253 486 c 1
210 272 m 0
 126 273 92 330 100 407 c 1
 182 407 l 1
 182 376 183 348 222 345 c 0
 255 343 299 373 309 404 c 0
 325 451 279 460 244 467 c 1
 259 512 l 1
 330 506 419 482 393 392 c 0
 372 316 284 271 210 272 c 0
EndSplineSet
EndChar

StartChar: acute
Encoding: 180 180 116
GlifName: acute
Width: 352
VWidth: 0
Flags: HMW
LayerCount: 2
Fore
SplineSet
465 651 m 1
 253 507 l 1
 186 549 l 1
 373 704 l 1
 465 651 l 1
EndSplineSet
EndChar

StartChar: mu
Encoding: 181 181 117
GlifName: mu
Width: 527
VWidth: 0
Flags: HMW
LayerCount: 2
Fore
SplineSet
286 0 m 1
 445 460 l 1
 574 460 l 1
 416 0 l 1
 286 0 l 1
195 180 m 1
 184 143 177 94 228 89 c 0
 283 84 324 138 349 178 c 1
 383 183 l 1
 345 90 275 -9 163 -10 c 0
 57 -11 36 78 61 165 c 1
 162 460 l 1
 293 459 l 1
 195 180 l 1
160 459 m 1
 287 460 l 1
 17 -320 l 1
 -105 -319 l 1
 160 459 l 1
EndSplineSet
EndChar

StartChar: paragraph
Encoding: 182 182 118
GlifName: paragraph
Width: 607
VWidth: 0
Flags: HMW
LayerCount: 2
Fore
SplineSet
424 615 m 1
 454 699 l 1
 667 699 l 1
 638 615 l 1
 424 615 l 1
626 699 m 1
 739 699 l 1
 425 -219 l 1
 312 -219 l 1
 626 699 l 1
454 699 m 1
 567 699 l 1
 252 -219 l 1
 140 -219 l 1
 454 699 l 1
314 271 m 1
 194 284 128 366 166 486 c 0
 207 617 323 699 454 699 c 1
 314 271 l 1
EndSplineSet
EndChar

StartChar: periodcentered
Encoding: 183 183 119
GlifName: periodcentered
Width: 297
VWidth: 0
Flags: HMW
LayerCount: 2
Fore
SplineSet
103 262 m 0
 114 302 164 344 206 342 c 0
 250 340 275 299 264 258 c 0
 253 218 203 177 161 179 c 0
 117 181 92 221 103 262 c 0
EndSplineSet
EndChar

StartChar: uni00B9
Encoding: 185 185 120
GlifName: uni00B_9
Width: 450
VWidth: 0
Flags: HMW
LayerCount: 2
Fore
SplineSet
273 583 m 1
 300 663 l 1
 495 703 l 1
 347 275 l 1
 262 275 l 1
 376 606 l 1
 273 583 l 1
EndSplineSet
EndChar

StartChar: cedilla
Encoding: 184 184 121
GlifName: cedilla
Width: 359
VWidth: 0
Flags: HMW
LayerCount: 2
Fore
SplineSet
139 67 m 1
 240 64 l 1
 118 -54 l 1
 125 -53 133 -52 140 -52 c 0
 188 -58 211 -98 199 -144 c 0
 182 -206 112 -245 52 -246 c 0
 7 -247 -29 -230 -65 -205 c 1
 -10 -149 l 1
 8 -161 26 -173 50 -173 c 0
 70 -173 113 -156 118 -134 c 0
 123 -113 96 -104 81 -103 c 0
 54 -101 25 -110 -1 -117 c 1
 139 67 l 1
EndSplineSet
EndChar

StartChar: questiondown
Encoding: 191 191 122
GlifName: questiondown
Width: 571
VWidth: 0
Flags: HMW
LayerCount: 2
Fore
SplineSet
192 200 m 0
 171 142 203 99 263 98 c 0
 330 96 391 141 439 182 c 1
 510 106 l 1
 432 39 339 -18 232 -16 c 0
 111 -14 27 81 64 201 c 0
 101 321 217 388 333 414 c 1
 372 507 l 1
 478 507 l 1
 439 330 l 1
 413 330 l 1
 331 326 222 284 192 200 c 0
554 644 m 0
 544 605 492 570 453 572 c 0
 413 574 383 607 393 648 c 0
 403 687 454 723 493 721 c 0
 533 719 564 685 554 644 c 0
EndSplineSet
EndChar

StartChar: multiply
Encoding: 215 215 123
GlifName: multiply
Width: 560
VWidth: 0
Flags: HMW
LayerCount: 2
Fore
SplineSet
80 8 m 1
 25 99 l 1
 240 261 l 1
 137 425 l 1
 238 503 l 1
 334 336 l 1
 546 502 l 1
 601 411 l 1
 386 249 l 1
 489 85 l 1
 388 7 l 1
 292 174 l 1
 80 8 l 1
EndSplineSet
EndChar

StartChar: Oslash
Encoding: 216 216 124
GlifName: O_slash
Width: 743
VWidth: 0
Flags: HMW
LayerCount: 2
Fore
SplineSet
246 350 m 0
 209 249 233 125 361 123 c 0
 492 121 606 234 649 350 c 0
 686 451 662 575 534 577 c 0
 403 579 289 466 246 350 c 0
96 350 m 0
 158 546 352 716 563 715 c 0
 767 714 856 531 799 350 c 0
 737 154 542 -20 330 -19 c 0
 125 -18 39 169 96 350 c 0
850 754 m 1
 906 699 l 1
 40 -54 l 1
 -14 -4 l 1
 850 754 l 1
EndSplineSet
EndChar

StartChar: Thorn
Encoding: 222 222 125
GlifName: T_horn
Width: 559
VWidth: 0
Flags: HMW
LayerCount: 2
Fore
SplineSet
257 699 m 1
 386 700 l 1
 145 0 l 1
 20 0 l 1
 257 699 l 1
249 455 m 1
 291 574 l 1
 415 574 l 0
 545 569 640 488 598 351 c 0
 555 211 421 136 281 131 c 0
 138 131 l 1
 181 250 l 1
 304 250 l 1
 373 253 444 284 470 353 c 0
 494 419 451 450 390 454 c 1
 249 455 l 1
EndSplineSet
EndChar

StartChar: divide
Encoding: 247 247 126
GlifName: divide
Width: 597
VWidth: 0
Flags: HMW
LayerCount: 2
Fore
SplineSet
343 527 m 0
 354 567 403 608 445 606 c 0
 489 604 515 564 504 523 c 0
 493 483 443 442 401 444 c 0
 357 446 332 486 343 527 c 0
194 92 m 0
 205 132 256 174 298 172 c 0
 342 170 366 129 355 88 c 0
 344 48 294 7 252 9 c 0
 208 11 183 51 194 92 c 0
63 251 m 1
 104 371 l 1
 640 371 l 1
 598 250 l 1
 63 251 l 1
EndSplineSet
EndChar

StartChar: oslash
Encoding: 248 248 127
GlifName: oslash
Width: 513
VWidth: 0
Flags: HMW
LayerCount: 2
Fore
SplineSet
52 230 m 0
 93 364 228 469 369 469 c 0
 505 469 579 357 540 230 c 0
 499 96 364 -9 223 -9 c 0
 87 -9 13 103 52 230 c 0
175 230 m 0
 153 170 170 99 243 98 c 0
 319 96 393 162 418 230 c 0
 440 288 421 360 349 362 c 0
 274 364 200 297 175 230 c 0
536 503 m 1
 586 470 l 1
 44 -47 l 1
 -5 -16 l 1
 536 503 l 1
EndSplineSet
EndChar

StartChar: circumflex
Encoding: 710 710 128
GlifName: circumflex
Width: 451
VWidth: 0
Flags: HMW
LayerCount: 2
Fore
SplineSet
394 632 m 1
 273 546 l 1
 202 613 l 1
 420 748 l 1
 556 604 l 1
 455 545 l 1
 394 632 l 1
EndSplineSet
EndChar

StartChar: ogonek
Encoding: 731 731 129
GlifName: ogonek
Width: 244
VWidth: 0
Flags: HMW
LayerCount: 2
Fore
SplineSet
111 -116 m 1
 125 -182 l 1
 95 -202 63 -219 26 -219 c 0
 -33 -219 -78 -180 -63 -119 c 0
 -44 -44 45 -6 107 24 c 1
 145 0 l 1
 108 -23 47 -49 35 -96 c 0
 31 -113 35 -131 55 -135 c 0
 73 -138 96 -124 111 -116 c 1
EndSplineSet
EndChar

StartChar: tilde
Encoding: 732 732 130
GlifName: tilde
Width: 498
VWidth: 0
Flags: HMW
LayerCount: 2
Fore
SplineSet
235 637 m 1
 265 679 310 727 367 724 c 0
 409 722 434 673 477 676 c 0
 508 678 533 707 554 726 c 1
 602 657 l 1
 568 620 518 575 463 579 c 0
 421 582 395 633 352 628 c 0
 322 625 305 601 289 579 c 1
 235 637 l 1
EndSplineSet
EndChar

StartChar: ring
Encoding: 730 730 131
GlifName: ring
Width: 295
VWidth: 0
Flags: HMW
LayerCount: 2
Fore
SplineSet
244 776 m 0
 261 835 327 885 389 884 c 0
 451 883 489 831 472 772 c 0
 455 713 388 662 326 663 c 0
 264 664 227 717 244 776 c 0
312 772 m 0
 306 754 315 729 336 726 c 0
 359 723 397 754 403 775 c 0
 409 793 400 819 379 822 c 0
 356 825 318 793 312 772 c 0
EndSplineSet
EndChar

StartChar: dotaccent
Encoding: 729 729 132
GlifName: dotaccent
Width: 282
VWidth: 0
Flags: HMW
LayerCount: 2
Fore
SplineSet
286 809 m 0
 296 846 345 882 383 880 c 0
 423 878 448 843 438 804 c 0
 428 767 380 731 342 733 c 0
 302 735 276 770 286 809 c 0
EndSplineSet
EndChar

StartChar: uni2010
Encoding: 8208 8208 133
GlifName: uni2010
Width: 205
VWidth: 0
Flags: HMW
LayerCount: 2
Fore
SplineSet
10 180 m 1
 50 295 l 1
 252 295 l 1
 211 180 l 1
 10 180 l 1
EndSplineSet
EndChar

StartChar: endash
Encoding: 8211 8211 134
GlifName: endash
Width: 726
VWidth: 0
Flags: HMW
LayerCount: 2
Fore
SplineSet
71 180 m 1
 111 295 l 1
 706 295 l 1
 666 180 l 1
 71 180 l 1
EndSplineSet
EndChar

StartChar: figuredash
Encoding: 8210 8210 135
GlifName: figuredash
Width: 580
VWidth: 0
Flags: HMW
LayerCount: 2
Fore
SplineSet
71 180 m 1
 111 295 l 1
 559 295 l 1
 519 180 l 1
 71 180 l 1
EndSplineSet
EndChar

StartChar: emdash
Encoding: 8212 8212 136
GlifName: emdash
Width: 871
VWidth: 0
Flags: HMW
LayerCount: 2
Fore
SplineSet
71 180 m 1
 111 295 l 1
 854 295 l 1
 814 180 l 1
 71 180 l 1
EndSplineSet
EndChar

StartChar: minus
Encoding: 8722 8722 137
GlifName: minus
Width: 556
VWidth: 0
Flags: HMW
LayerCount: 2
Fore
SplineSet
63 180 m 1
 102 295 l 1
 550 295 l 1
 510 180 l 1
 63 180 l 1
EndSplineSet
EndChar

StartChar: quoteright
Encoding: 8217 8217 138
GlifName: quoteright
Width: 296
VWidth: 0
Flags: HMW
LayerCount: 2
Fore
SplineSet
280 699 m 1
 423 699 l 1
 239 453 l 1
 143 453 l 1
 280 699 l 1
EndSplineSet
EndChar

StartChar: quoteleft
Encoding: 8216 8216 139
GlifName: quoteleft
Width: 296
VWidth: 0
Flags: HMW
LayerCount: 2
Fore
SplineSet
302 452 m 1
 159 453 l 1
 342 698 l 1
 439 698 l 1
 302 452 l 1
EndSplineSet
EndChar

StartChar: quotesinglbase
Encoding: 8218 8218 140
GlifName: quotesinglbase
Width: 296
VWidth: 0
Flags: HMW
LayerCount: 2
Fore
SplineSet
78 79 m 1
 221 79 l 1
 37 -167 l 1
 -59 -167 l 1
 78 79 l 1
EndSplineSet
EndChar

StartChar: quotedblleft
Encoding: 8220 8220 141
GlifName: quotedblleft
Width: 506
VWidth: 0
Flags: HMW
LayerCount: 2
Fore
SplineSet
302 452 m 1
 159 453 l 1
 342 698 l 1
 439 698 l 1
 302 452 l 1
511 452 m 1
 368 453 l 1
 552 698 l 1
 648 698 l 1
 511 452 l 1
EndSplineSet
EndChar

StartChar: quotedblright
Encoding: 8221 8221 142
GlifName: quotedblright
Width: 506
VWidth: 0
Flags: HMW
LayerCount: 2
Fore
SplineSet
280 699 m 1
 423 699 l 1
 239 453 l 1
 143 453 l 1
 280 699 l 1
490 699 m 1
 633 699 l 1
 449 453 l 1
 353 453 l 1
 490 699 l 1
EndSplineSet
EndChar

StartChar: perthousand
Encoding: 8240 8240 143
GlifName: perthousand
Width: 1230
VWidth: 0
Flags: HMW
LayerCount: 2
Fore
SplineSet
865 163 m 0
 893 256 991 339 1091 339 c 0
 1189 339 1236 249 1210 161 c 0
 1182 68 1085 -15 985 -15 c 0
 887 -15 839 75 865 163 c 0
971 160 m 0
 961 130 970 92 1007 89 c 0
 1046 86 1093 128 1104 163 c 0
 1114 193 1106 232 1069 235 c 0
 1030 238 982 195 971 160 c 0
152 540 m 0
 180 633 276 716 376 716 c 0
 474 716 523 626 497 538 c 0
 469 445 371 361 271 361 c 0
 173 361 126 452 152 540 c 0
257 537 m 0
 247 507 256 469 293 466 c 0
 332 463 380 505 391 540 c 0
 401 570 392 609 355 612 c 0
 316 615 268 572 257 537 c 0
457 163 m 0
 485 256 581 339 681 339 c 0
 779 339 827 249 801 161 c 0
 773 68 676 -15 576 -15 c 0
 478 -15 431 75 457 163 c 0
562 160 m 0
 552 130 561 92 598 89 c 0
 637 86 684 128 695 163 c 0
 705 193 697 232 660 235 c 0
 621 238 573 195 562 160 c 0
768 699 m 1
 908 699 l 1
 184 0 l 1
 47 0 l 1
 768 699 l 1
EndSplineSet
EndChar

StartChar: guilsinglleft
Encoding: 8249 8249 144
GlifName: guilsinglleft
Width: 329
VWidth: 0
Flags: HMW
LayerCount: 2
Fore
SplineSet
168 254 m 1
 244 60 l 1
 151 5 l 1
 62 263 l 1
 311 503 l 1
 376 439 l 1
 168 254 l 1
EndSplineSet
EndChar

StartChar: guilsinglright
Encoding: 8250 8250 145
GlifName: guilsinglright
Width: 329
VWidth: 0
Flags: HMW
LayerCount: 2
Fore
SplineSet
226 256 m 1
 151 450 l 1
 243 505 l 1
 333 247 l 1
 84 7 l 1
 19 71 l 1
 226 256 l 1
EndSplineSet
EndChar

StartChar: uni2031
Encoding: 8241 8241 146
GlifName: uni2031
Width: 1639
VWidth: 0
Flags: HMW
LayerCount: 2
Fore
SplineSet
1274 163 m 0
 1302 256 1399 339 1499 339 c 0
 1597 339 1645 249 1619 161 c 0
 1591 68 1494 -15 1394 -15 c 0
 1296 -15 1248 75 1274 163 c 0
1380 160 m 0
 1370 130 1379 92 1416 89 c 0
 1455 86 1502 128 1513 163 c 0
 1523 193 1514 232 1477 235 c 0
 1438 238 1391 195 1380 160 c 0
865 163 m 0
 893 256 991 339 1091 339 c 0
 1189 339 1236 249 1210 161 c 0
 1182 68 1085 -15 985 -15 c 0
 887 -15 839 75 865 163 c 0
971 160 m 0
 961 130 970 92 1007 89 c 0
 1046 86 1093 128 1104 163 c 0
 1114 193 1106 232 1069 235 c 0
 1030 238 982 195 971 160 c 0
152 540 m 0
 180 633 276 716 376 716 c 0
 474 716 523 626 497 538 c 0
 469 445 371 361 271 361 c 0
 173 361 126 452 152 540 c 0
257 537 m 0
 247 507 256 469 293 466 c 0
 332 463 380 505 391 540 c 0
 401 570 392 609 355 612 c 0
 316 615 268 572 257 537 c 0
457 163 m 0
 485 256 581 339 681 339 c 0
 779 339 827 249 801 161 c 0
 773 68 676 -15 576 -15 c 0
 478 -15 431 75 457 163 c 0
562 160 m 0
 552 130 561 92 598 89 c 0
 637 86 684 128 695 163 c 0
 705 193 697 232 660 235 c 0
 621 238 573 195 562 160 c 0
768 699 m 1
 908 699 l 1
 184 0 l 1
 47 0 l 1
 768 699 l 1
EndSplineSet
EndChar

StartChar: uni203D
Encoding: 8253 8253 147
GlifName: uni203D_
Width: 571
VWidth: 0
Flags: HMW
LayerCount: 2
Fore
SplineSet
515 487 m 0
 540 553 503 601 434 602 c 0
 366 603 311 562 264 518 c 1
 193 594 l 1
 268 665 364 717 470 715 c 0
 591 713 676 619 639 499 c 0
 596 360 450 293 316 281 c 1
 308 348 l 1
 392 359 483 401 515 487 c 0
315 505 m 1
 447 504 l 1
 314 193 l 1
 232 193 l 1
 315 505 l 1
149 58 m 0
 160 98 211 135 251 133 c 0
 293 131 322 95 311 54 c 0
 300 14 249 -23 209 -21 c 0
 167 -19 138 17 149 58 c 0
EndSplineSet
EndChar

StartChar: Euro
Encoding: 8364 8364 148
GlifName: E_uro
Width: 596
VWidth: 0
Flags: HMW
LayerCount: 2
Fore
SplineSet
117 389 m 1
 143 462 l 1
 612 462 l 1
 586 389 l 1
 117 389 l 1
63 261 m 1
 89 334 l 1
 548 334 l 1
 522 261 l 1
 63 261 l 1
277 350 m 0
 246 266 223 112 352 108 c 0
 413 106 469 137 520 166 c 1
 478 24 l 1
 430 2 379 -16 326 -16 c 0
 125 -16 102 199 150 350 c 0
 206 525 361 718 561 717 c 0
 611 717 653 700 696 676 c 1
 652 532 l 1
 620 569 586 594 535 594 c 0
 406 594 316 458 277 350 c 0
EndSplineSet
EndChar

StartChar: fraction
Encoding: 8260 8260 149
GlifName: fraction
Width: 679
VWidth: 0
Flags: HMW
LayerCount: 2
Fore
SplineSet
724 698 m 1
 835 698 l 1
 108 0 l 1
 -3 0 l 1
 724 698 l 1
EndSplineSet
EndChar

StartChar: onequarter
Encoding: 188 188 150
GlifName: onequarter
Width: 755
VWidth: 0
Flags: HMW
LayerCount: 2
Fore
SplineSet
768 698 m 1
 863 698 l 1
 135 0 l 1
 41 0 l 1
 768 698 l 1
167 583 m 1
 194 663 l 1
 389 703 l 1
 241 275 l 1
 156 275 l 1
 269 606 l 1
 167 583 l 1
347 79 m 1
 435 141 l 1
 608 143 l 1
 622 152 l 1
 727 152 l 1
 700 78 l 1
 347 79 l 1
449 100 m 1
 342 75 l 1
 691 418 l 1
 756 419 l 1
 612 0 l 1
 522 0 l 1
 556 99 l 1
 565 105 l 1
 623 268 l 1
 449 100 l 1
EndSplineSet
EndChar

StartChar: onehalf
Encoding: 189 189 151
GlifName: onehalf
Width: 821
VWidth: 0
Flags: HMW
LayerCount: 2
Fore
SplineSet
768 698 m 1
 863 698 l 1
 135 0 l 1
 41 0 l 1
 768 698 l 1
167 583 m 1
 194 663 l 1
 389 703 l 1
 241 275 l 1
 156 275 l 1
 269 606 l 1
 167 583 l 1
414 4 m 1
 660 201 l 2
 690 225 735 255 747 295 c 0
 755 321 745 349 715 352 c 0
 667 357 636 305 616 271 c 1
 530 272 l 1
 565 354 632 430 729 429 c 0
 804 428 856 370 834 296 c 0
 820 249 781 213 744 184 c 2
 610 84 l 1
 768 82 l 1
 741 3 l 1
 414 4 l 1
EndSplineSet
EndChar

StartChar: threequarters
Encoding: 190 190 152
GlifName: threequarters
Width: 811
VWidth: 0
Flags: HMW
LayerCount: 2
Fore
SplineSet
829 698 m 1
 923 698 l 1
 196 0 l 1
 102 0 l 1
 829 698 l 1
260 486 m 1
 273 526 l 1
 310 534 358 547 371 588 c 0
 378 610 369 633 344 635 c 0
 310 637 286 607 268 584 c 1
 186 585 l 1
 219 651 275 706 354 706 c 0
 419 705 476 660 455 591 c 0
 430 509 333 492 260 486 c 1
217 272 m 0
 133 273 99 330 107 407 c 1
 189 407 l 1
 189 376 190 348 229 345 c 0
 262 343 306 373 316 404 c 0
 332 451 286 460 251 467 c 1
 266 512 l 1
 337 506 425 482 399 392 c 0
 378 316 291 271 217 272 c 0
404 79 m 1
 492 141 l 1
 665 143 l 1
 678 152 l 1
 783 152 l 1
 757 78 l 1
 404 79 l 1
506 100 m 1
 399 75 l 1
 748 418 l 1
 812 419 l 1
 669 0 l 1
 578 0 l 1
 612 99 l 1
 622 105 l 1
 680 268 l 1
 506 100 l 1
EndSplineSet
EndChar

StartChar: uni2150
Encoding: 8528 8528 153
GlifName: uni2150
Width: 860
VWidth: 0
Flags: HMW
LayerCount: 2
Fore
SplineSet
739 698 m 1
 850 698 l 1
 122 0 l 1
 11 0 l 1
 739 698 l 1
167 583 m 1
 194 663 l 1
 389 703 l 1
 241 275 l 1
 156 275 l 1
 269 606 l 1
 167 583 l 1
587 338 m 1
 615 419 l 1
 934 419 l 1
 599 0 l 1
 500 0 l 1
 771 337 l 1
 587 338 l 1
EndSplineSet
EndChar

StartChar: uni2151
Encoding: 8529 8529 154
GlifName: uni2151
Width: 805
VWidth: 0
Flags: HMW
LayerCount: 2
Fore
SplineSet
734 698 m 1
 845 698 l 1
 118 0 l 1
 7 0 l 1
 734 698 l 1
167 583 m 1
 194 663 l 1
 389 703 l 1
 241 275 l 1
 156 275 l 1
 269 606 l 1
 167 583 l 1
745 278 m 0
 756 312 746 352 705 354 c 0
 662 357 613 314 600 276 c 0
 589 242 599 202 640 199 c 0
 683 196 732 240 745 278 c 0
580 5 m 1
 463 5 l 1
 644 158 l 1
 666 162 l 1
 645 152 623 141 599 142 c 0
 526 143 499 216 517 278 c 0
 541 363 629 430 717 430 c 0
 804 430 855 359 829 276 c 0
 816 234 786 198 755 168 c 1
 580 5 l 1
EndSplineSet
EndChar

StartChar: uni2152
Encoding: 8530 8530 155
GlifName: uni2152
Width: 1105
VWidth: 0
Flags: HMW
LayerCount: 2
Fore
SplineSet
734 698 m 1
 845 698 l 1
 118 0 l 1
 7 0 l 1
 734 698 l 1
167 583 m 1
 194 663 l 1
 389 703 l 1
 241 275 l 1
 156 275 l 1
 269 606 l 1
 167 583 l 1
551 310 m 1
 579 390 l 1
 774 430 l 1
 625 2 l 1
 541 2 l 1
 654 333 l 1
 551 310 l 1
855 210 m 0
 841 172 814 74 879 70 c 0
 946 66 994 159 1013 210 c 0
 1027 248 1054 346 989 350 c 0
 922 354 874 261 855 210 c 0
771 210 m 0
 801 308 885 428 999 427 c 0
 1118 426 1122 297 1095 210 c 0
 1064 111 982 -8 867 -7 c 0
 749 -6 744 123 771 210 c 0
EndSplineSet
EndChar

StartChar: onethird
Encoding: 8531 8531 156
GlifName: onethird
Width: 791
VWidth: 0
Flags: HMW
LayerCount: 2
Fore
SplineSet
734 698 m 1
 845 698 l 1
 118 0 l 1
 7 0 l 1
 734 698 l 1
167 583 m 1
 194 663 l 1
 389 703 l 1
 241 275 l 1
 156 275 l 1
 269 606 l 1
 167 583 l 1
615 206 m 1
 628 246 l 1
 665 254 714 267 727 308 c 0
 734 330 725 353 700 355 c 0
 666 357 642 327 624 304 c 1
 541 305 l 1
 574 371 631 426 710 426 c 0
 775 425 832 380 811 311 c 0
 786 229 688 212 615 206 c 1
572 -8 m 0
 488 -7 455 50 463 127 c 1
 545 127 l 1
 545 96 546 68 585 65 c 0
 618 63 662 93 672 124 c 0
 688 171 641 180 606 187 c 1
 622 232 l 1
 693 226 781 202 755 112 c 0
 734 36 646 -9 572 -8 c 0
EndSplineSet
EndChar

StartChar: twothirds
Encoding: 8532 8532 157
GlifName: twothirds
Width: 914
VWidth: 0
Flags: HMW
LayerCount: 2
Fore
SplineSet
867 698 m 1
 978 698 l 1
 250 0 l 1
 139 0 l 1
 867 698 l 1
65 284 m 1
 311 481 l 2
 341 505 386 535 398 575 c 0
 406 601 396 629 366 632 c 0
 318 637 287 585 267 551 c 1
 181 552 l 1
 216 634 283 710 380 709 c 0
 455 708 507 650 485 576 c 0
 471 529 432 493 395 464 c 2
 262 364 l 1
 420 362 l 1
 392 283 l 1
 65 284 l 1
739 206 m 1
 752 246 l 1
 789 254 838 267 851 308 c 0
 858 330 848 353 823 355 c 0
 789 357 766 327 748 304 c 1
 665 305 l 1
 698 371 755 426 834 426 c 0
 899 425 955 380 934 311 c 0
 909 229 812 212 739 206 c 1
696 -8 m 0
 612 -7 578 50 586 127 c 1
 668 127 l 1
 668 96 669 68 708 65 c 0
 741 63 785 93 795 124 c 0
 811 171 766 180 731 187 c 1
 745 232 l 1
 816 226 905 202 879 112 c 0
 858 36 770 -9 696 -8 c 0
EndSplineSet
EndChar

StartChar: uni2155
Encoding: 8533 8533 158
GlifName: uni2155
Width: 780
VWidth: 0
Flags: HMW
LayerCount: 2
Fore
SplineSet
734 698 m 1
 845 698 l 1
 118 0 l 1
 7 0 l 1
 734 698 l 1
167 583 m 1
 194 663 l 1
 389 703 l 1
 241 275 l 1
 156 275 l 1
 269 606 l 1
 167 583 l 1
752 132 m 0
 727 49 640 -7 555 -8 c 0
 495 -9 450 18 414 57 c 1
 471 123 l 1
 491 97 514 73 552 72 c 0
 593 71 651 100 663 143 c 0
 674 180 649 206 613 210 c 0
 571 214 528 196 489 183 c 1
 554 228 l 1
 587 251 628 273 670 272 c 0
 746 269 772 197 752 132 c 0
665 341 m 1
 591 229 l 1
 477 173 l 1
 620 417 l 1
 843 417 l 1
 817 342 l 1
 665 341 l 1
EndSplineSet
EndChar

StartChar: uni2156
Encoding: 8534 8534 159
GlifName: uni2156
Width: 910
VWidth: 0
Flags: HMW
LayerCount: 2
Fore
SplineSet
867 698 m 1
 978 698 l 1
 250 0 l 1
 139 0 l 1
 867 698 l 1
65 284 m 1
 311 481 l 2
 341 505 386 535 398 575 c 0
 406 601 396 629 366 632 c 0
 318 637 287 585 267 551 c 1
 181 552 l 1
 216 634 283 710 380 709 c 0
 455 708 507 650 485 576 c 0
 471 529 432 493 395 464 c 2
 262 364 l 1
 420 362 l 1
 392 283 l 1
 65 284 l 1
875 132 m 0
 850 49 763 -7 678 -8 c 0
 618 -9 574 18 538 57 c 1
 595 123 l 1
 615 97 638 73 676 72 c 0
 717 71 774 100 786 143 c 0
 797 180 773 206 737 210 c 0
 695 214 651 196 612 183 c 1
 677 228 l 1
 710 251 751 273 793 272 c 0
 869 269 895 197 875 132 c 0
789 341 m 1
 715 229 l 1
 600 173 l 1
 744 417 l 1
 966 417 l 1
 940 342 l 1
 789 341 l 1
EndSplineSet
EndChar

StartChar: uni2157
Encoding: 8535 8535 160
GlifName: uni2157
Width: 849
VWidth: 0
Flags: HMW
LayerCount: 2
Fore
SplineSet
807 698 m 1
 919 698 l 1
 192 0 l 1
 81 0 l 1
 807 698 l 1
258 486 m 1
 270 526 l 1
 307 534 356 547 369 588 c 0
 376 610 367 633 342 635 c 0
 308 637 284 607 266 584 c 1
 183 585 l 1
 216 651 273 706 352 706 c 0
 417 705 474 660 453 591 c 0
 428 509 331 492 258 486 c 1
215 272 m 0
 131 273 97 330 105 407 c 1
 187 407 l 1
 187 376 188 348 227 345 c 0
 260 343 304 373 314 404 c 0
 330 451 284 460 249 467 c 1
 264 512 l 1
 335 506 423 482 397 392 c 0
 376 316 289 271 215 272 c 0
812 132 m 0
 787 49 700 -7 615 -8 c 0
 555 -9 511 18 475 57 c 1
 531 123 l 1
 551 97 574 73 612 72 c 0
 653 71 711 100 723 143 c 0
 734 180 709 206 673 210 c 0
 631 214 588 196 549 183 c 1
 614 228 l 1
 647 251 688 273 730 272 c 0
 806 269 832 197 812 132 c 0
725 341 m 1
 652 229 l 1
 537 173 l 1
 680 417 l 1
 903 417 l 1
 877 342 l 1
 725 341 l 1
EndSplineSet
EndChar

StartChar: uni2158
Encoding: 8536 8536 161
GlifName: uni2158
Width: 916
VWidth: 0
Flags: HMW
LayerCount: 2
Fore
SplineSet
857 698 m 1
 968 697 l 1
 242 0 l 1
 130 0 l 1
 857 698 l 1
85 359 m 1
 173 421 l 1
 346 423 l 1
 359 432 l 1
 464 432 l 1
 438 358 l 1
 85 359 l 1
188 380 m 1
 80 355 l 1
 429 698 l 1
 493 699 l 1
 350 281 l 1
 260 281 l 1
 294 379 l 1
 303 385 l 1
 361 548 l 1
 188 380 l 1
883 132 m 0
 858 49 772 -8 687 -9 c 0
 627 -10 582 17 546 56 c 1
 603 122 l 1
 623 96 645 72 683 71 c 0
 724 70 783 99 795 142 c 0
 806 179 780 205 744 209 c 0
 702 213 660 196 621 183 c 1
 685 227 l 1
 718 250 759 272 801 271 c 0
 877 268 903 197 883 132 c 0
796 341 m 1
 723 229 l 1
 609 172 l 1
 752 417 l 1
 975 417 l 1
 948 342 l 1
 796 341 l 1
EndSplineSet
EndChar

StartChar: uni2159
Encoding: 8537 8537 162
GlifName: uni2159
Width: 784
VWidth: 0
Flags: HMW
LayerCount: 2
Fore
SplineSet
747 698 m 1
 858 698 l 1
 131 0 l 1
 20 0 l 1
 747 698 l 1
167 583 m 1
 194 663 l 1
 389 703 l 1
 241 275 l 1
 156 275 l 1
 269 606 l 1
 167 583 l 1
528 142 m 0
 517 108 527 68 568 66 c 0
 611 63 659 106 672 144 c 0
 683 178 674 218 633 221 c 0
 590 224 541 180 528 142 c 0
693 415 m 1
 810 415 l 1
 630 262 l 1
 607 258 l 1
 628 268 649 278 673 278 c 0
 746 278 774 204 756 142 c 0
 732 57 644 -10 556 -10 c 0
 469 -10 418 61 444 144 c 0
 457 186 487 222 518 252 c 1
 693 415 l 1
EndSplineSet
EndChar

StartChar: uni215A
Encoding: 8538 8538 163
GlifName: uni215A_
Width: 856
VWidth: 0
Flags: HMW
LayerCount: 2
Fore
SplineSet
832 698 m 1
 943 698 l 1
 216 0 l 1
 105 0 l 1
 832 698 l 1
424 412 m 0
 399 329 312 273 227 272 c 0
 167 271 123 298 87 337 c 1
 144 403 l 1
 164 377 187 353 225 352 c 0
 266 351 323 380 335 423 c 0
 346 460 322 486 286 490 c 0
 244 494 200 476 161 463 c 1
 226 508 l 1
 259 531 300 553 342 552 c 0
 418 549 444 477 424 412 c 0
337 621 m 1
 264 509 l 1
 149 453 l 1
 292 697 l 1
 516 697 l 1
 489 622 l 1
 337 621 l 1
600 142 m 0
 589 108 599 68 640 66 c 0
 683 63 731 106 744 144 c 0
 755 178 746 218 705 221 c 0
 662 224 613 180 600 142 c 0
765 415 m 1
 882 415 l 1
 702 262 l 1
 680 258 l 1
 701 268 721 278 745 278 c 0
 818 278 846 204 828 142 c 0
 804 57 716 -10 628 -10 c 0
 541 -10 490 61 516 144 c 0
 529 186 559 222 590 252 c 1
 765 415 l 1
EndSplineSet
EndChar

StartChar: oneeighth
Encoding: 8539 8539 164
GlifName: oneeighth
Width: 804
VWidth: 0
Flags: HMW
LayerCount: 2
Fore
SplineSet
747 698 m 1
 858 698 l 1
 131 0 l 1
 20 0 l 1
 747 698 l 1
167 583 m 1
 194 663 l 1
 389 703 l 1
 241 275 l 1
 156 275 l 1
 269 606 l 1
 167 583 l 1
561 320 m 0
 580 385 655 429 720 428 c 0
 782 427 838 384 819 318 c 0
 801 252 725 208 659 209 c 0
 595 210 542 253 561 320 c 0
638 309 m 0
 631 288 638 260 664 257 c 0
 691 254 727 288 735 312 c 0
 742 334 736 360 710 363 c 0
 682 366 647 334 638 309 c 0
476 115 m 0
 497 188 581 237 654 236 c 0
 724 236 784 187 763 113 c 0
 742 41 658 -9 585 -8 c 0
 516 -7 455 42 476 115 c 0
565 126 m 0
 555 99 565 66 597 64 c 0
 631 62 674 97 684 128 c 0
 693 154 682 186 651 188 c 0
 618 190 576 155 565 126 c 0
EndSplineSet
EndChar

StartChar: threeeighths
Encoding: 8540 8540 165
GlifName: threeeighths
Width: 868
VWidth: 0
Flags: HMW
LayerCount: 2
Fore
SplineSet
812 698 m 1
 923 698 l 1
 196 0 l 1
 85 0 l 1
 812 698 l 1
258 486 m 1
 270 526 l 1
 307 534 356 547 369 588 c 0
 376 610 367 633 342 635 c 0
 308 637 284 607 266 584 c 1
 184 585 l 1
 217 651 273 706 352 706 c 0
 417 705 474 660 453 591 c 0
 428 509 331 492 258 486 c 1
215 272 m 0
 131 273 97 330 105 407 c 1
 187 407 l 1
 187 376 188 348 227 345 c 0
 260 343 304 373 314 404 c 0
 330 451 284 460 249 467 c 1
 264 512 l 1
 335 506 423 482 397 392 c 0
 376 316 289 271 215 272 c 0
625 320 m 0
 644 385 720 429 785 428 c 0
 847 427 903 384 884 318 c 0
 866 252 790 208 724 209 c 0
 660 210 606 253 625 320 c 0
703 309 m 0
 696 288 702 260 728 257 c 0
 755 254 792 288 800 312 c 0
 807 334 801 360 775 363 c 0
 747 366 712 334 703 309 c 0
541 115 m 0
 562 188 646 237 719 236 c 0
 789 236 849 187 828 113 c 0
 807 41 723 -9 650 -8 c 0
 581 -7 520 42 541 115 c 0
630 126 m 0
 620 99 630 66 662 64 c 0
 696 62 738 97 748 128 c 0
 757 154 747 186 716 188 c 0
 683 190 641 155 630 126 c 0
EndSplineSet
EndChar

StartChar: fiveeighths
Encoding: 8541 8541 166
GlifName: fiveeighths
Width: 889
VWidth: 0
Flags: HMW
LayerCount: 2
Fore
SplineSet
832 698 m 1
 943 698 l 1
 216 0 l 1
 105 0 l 1
 832 698 l 1
420 412 m 0
 395 329 308 273 223 272 c 0
 163 271 119 298 83 337 c 1
 139 403 l 1
 159 377 182 353 220 352 c 0
 261 351 319 380 331 423 c 0
 342 460 317 486 281 490 c 0
 239 494 196 476 157 463 c 1
 222 508 l 1
 255 531 296 553 338 552 c 0
 414 549 440 477 420 412 c 0
333 621 m 1
 260 509 l 1
 145 453 l 1
 288 697 l 1
 511 697 l 1
 485 622 l 1
 333 621 l 1
645 320 m 0
 664 385 740 429 805 428 c 0
 867 427 923 384 904 318 c 0
 886 252 810 208 744 209 c 0
 680 210 626 253 645 320 c 0
723 309 m 0
 716 288 723 260 749 257 c 0
 776 254 812 288 820 312 c 0
 827 334 820 360 794 363 c 0
 766 366 732 334 723 309 c 0
561 115 m 0
 582 188 666 237 739 236 c 0
 809 236 869 187 848 113 c 0
 827 41 743 -9 670 -8 c 0
 601 -7 540 42 561 115 c 0
650 126 m 0
 640 99 650 66 682 64 c 0
 716 62 758 97 768 128 c 0
 777 154 766 186 735 188 c 0
 702 190 661 155 650 126 c 0
EndSplineSet
EndChar

StartChar: seveneighths
Encoding: 8542 8542 167
GlifName: seveneighths
Width: 786
VWidth: 0
Flags: HMW
LayerCount: 2
Fore
SplineSet
724 698 m 1
 835 698 l 1
 108 0 l 1
 -3 0 l 1
 724 698 l 1
178 618 m 1
 206 699 l 1
 524 699 l 1
 189 282 l 1
 91 282 l 1
 363 617 l 1
 178 618 l 1
542 320 m 0
 561 385 637 429 702 428 c 0
 764 427 819 384 800 318 c 0
 782 252 706 208 640 209 c 0
 576 210 523 253 542 320 c 0
619 309 m 0
 612 288 619 260 645 257 c 0
 672 254 709 288 717 312 c 0
 724 334 717 360 691 363 c 0
 663 366 628 334 619 309 c 0
458 115 m 0
 479 188 563 237 636 236 c 0
 706 236 765 187 744 113 c 0
 723 41 640 -9 567 -8 c 0
 498 -7 437 42 458 115 c 0
546 126 m 0
 536 99 547 66 579 64 c 0
 613 62 655 97 665 128 c 0
 674 154 663 186 632 188 c 0
 599 190 557 155 546 126 c 0
EndSplineSet
EndChar

StartChar: uni2074
Encoding: 8308 8308 168
GlifName: uni2074
Width: 390
VWidth: 0
Flags: HMW
LayerCount: 2
Fore
SplineSet
81 359 m 1
 168 421 l 1
 342 423 l 1
 355 432 l 1
 460 432 l 1
 434 358 l 1
 81 359 l 1
183 380 m 1
 75 355 l 1
 424 698 l 1
 489 699 l 1
 345 281 l 1
 256 281 l 1
 290 379 l 1
 298 385 l 1
 357 548 l 1
 183 380 l 1
EndSplineSet
EndChar

StartChar: uni2075
Encoding: 8309 8309 169
GlifName: uni2075
Width: 355
VWidth: 0
Flags: HMW
LayerCount: 2
Fore
SplineSet
420 412 m 0
 395 329 308 273 223 272 c 0
 163 271 119 298 83 337 c 1
 139 403 l 1
 159 377 182 353 220 352 c 0
 261 351 319 380 331 423 c 0
 342 460 317 486 281 490 c 0
 239 494 196 476 157 463 c 1
 222 508 l 1
 255 531 296 553 338 552 c 0
 414 549 440 477 420 412 c 0
333 621 m 1
 260 509 l 1
 145 453 l 1
 288 697 l 1
 511 697 l 1
 485 622 l 1
 333 621 l 1
EndSplineSet
EndChar

StartChar: uni2076
Encoding: 8310 8310 170
GlifName: uni2076
Width: 350
VWidth: 0
Flags: HMW
LayerCount: 2
Fore
SplineSet
196 422 m 0
 185 388 195 348 236 346 c 0
 279 343 327 386 340 424 c 0
 351 458 342 498 301 501 c 0
 258 504 209 460 196 422 c 0
361 695 m 1
 478 695 l 1
 297 542 l 1
 275 538 l 1
 296 548 317 558 341 558 c 0
 414 558 442 484 424 422 c 0
 400 337 312 270 224 270 c 0
 137 270 86 341 112 424 c 0
 125 466 155 502 186 532 c 1
 361 695 l 1
EndSplineSet
EndChar

StartChar: uni2077
Encoding: 8311 8311 171
GlifName: uni2077
Width: 349
VWidth: 0
Flags: HMW
LayerCount: 2
Fore
SplineSet
178 618 m 1
 206 699 l 1
 524 699 l 1
 189 282 l 1
 91 282 l 1
 363 617 l 1
 178 618 l 1
EndSplineSet
EndChar

StartChar: uni2078
Encoding: 8312 8312 172
GlifName: uni2078
Width: 329
VWidth: 0
Flags: HMW
LayerCount: 2
Fore
SplineSet
186 600 m 0
 205 665 280 709 345 708 c 0
 407 707 462 664 443 598 c 0
 425 532 350 488 284 489 c 0
 220 490 167 533 186 600 c 0
262 589 m 0
 255 568 262 540 288 537 c 0
 315 534 353 568 361 592 c 0
 368 614 361 640 335 643 c 0
 307 646 271 614 262 589 c 0
102 395 m 0
 123 468 206 517 279 516 c 0
 349 516 409 467 388 393 c 0
 367 321 284 271 211 272 c 0
 142 273 81 322 102 395 c 0
190 406 m 0
 180 379 190 346 222 344 c 0
 256 342 298 377 308 408 c 0
 317 434 307 466 276 468 c 0
 243 470 201 435 190 406 c 0
EndSplineSet
EndChar

StartChar: uni2079
Encoding: 8313 8313 173
GlifName: uni2079
Width: 348
VWidth: 0
Flags: HMW
LayerCount: 2
Fore
SplineSet
389 558 m 0
 400 592 390 632 349 634 c 0
 306 637 257 594 244 556 c 0
 233 522 243 482 284 479 c 0
 327 476 376 520 389 558 c 0
224 285 m 1
 107 285 l 1
 287 438 l 1
 309 442 l 1
 288 432 267 421 243 422 c 0
 170 423 143 496 161 558 c 0
 185 643 273 710 361 710 c 0
 448 710 499 639 473 556 c 0
 460 514 429 478 398 448 c 1
 224 285 l 1
EndSplineSet
EndChar

StartChar: uni2070
Encoding: 8304 8304 174
GlifName: uni2070
Width: 362
VWidth: 0
Flags: HMW
LayerCount: 2
Fore
SplineSet
216 490 m 0
 202 452 175 354 240 350 c 0
 307 346 354 439 373 490 c 0
 387 528 415 626 350 630 c 0
 283 634 235 541 216 490 c 0
132 490 m 0
 162 588 246 708 360 707 c 0
 479 706 484 577 457 490 c 0
 426 391 344 272 229 273 c 0
 111 274 105 403 132 490 c 0
EndSplineSet
EndChar

StartChar: uni2080
Encoding: 8320 8320 175
GlifName: uni2080
Width: 362
VWidth: 0
Flags: HMW
LayerCount: 2
Fore
SplineSet
120 210 m 0
 106 172 79 74 144 70 c 0
 211 66 258 159 277 210 c 0
 291 248 319 346 254 350 c 0
 187 354 139 261 120 210 c 0
37 210 m 0
 67 308 151 428 265 427 c 0
 384 426 388 297 361 210 c 0
 330 111 248 -8 133 -7 c 0
 15 -6 10 123 37 210 c 0
EndSplineSet
EndChar

StartChar: uni2084
Encoding: 8324 8324 176
GlifName: uni2084
Width: 393
VWidth: 0
Flags: HMW
LayerCount: 2
Fore
SplineSet
-16 79 m 1
 73 141 l 1
 245 143 l 1
 259 152 l 1
 364 152 l 1
 337 78 l 1
 -16 79 l 1
87 100 m 1
 -21 75 l 1
 328 418 l 1
 393 419 l 1
 249 0 l 1
 159 0 l 1
 193 99 l 1
 202 105 l 1
 261 268 l 1
 87 100 l 1
EndSplineSet
EndChar

StartChar: uni2085
Encoding: 8325 8325 177
GlifName: uni2085
Width: 361
VWidth: 0
Flags: HMW
LayerCount: 2
Fore
SplineSet
326 132 m 0
 301 49 215 -7 130 -8 c 0
 70 -9 25 18 -11 57 c 1
 46 123 l 1
 66 97 89 73 127 72 c 0
 168 71 226 100 238 143 c 0
 249 180 224 206 188 210 c 0
 146 214 103 196 64 183 c 1
 128 228 l 1
 161 251 203 273 245 272 c 0
 321 269 346 197 326 132 c 0
240 341 m 1
 166 229 l 1
 52 173 l 1
 195 417 l 1
 418 417 l 1
 391 342 l 1
 240 341 l 1
EndSplineSet
EndChar

StartChar: uni2086
Encoding: 8326 8326 178
GlifName: uni2086
Width: 358
VWidth: 0
Flags: HMW
LayerCount: 2
Fore
SplineSet
102 142 m 0
 91 108 101 68 142 66 c 0
 185 63 234 106 247 144 c 0
 258 178 249 218 208 221 c 0
 165 224 115 180 102 142 c 0
268 415 m 1
 385 415 l 1
 204 262 l 1
 182 258 l 1
 203 268 223 278 247 278 c 0
 320 278 348 204 330 142 c 0
 306 57 219 -10 131 -10 c 0
 44 -10 -8 61 18 144 c 0
 31 186 62 222 93 252 c 1
 268 415 l 1
EndSplineSet
EndChar

StartChar: uni2087
Encoding: 8327 8327 179
GlifName: uni2087
Width: 353
VWidth: 0
Flags: HMW
LayerCount: 2
Fore
SplineSet
85 338 m 1
 113 419 l 1
 432 419 l 1
 96 0 l 1
 -2 0 l 1
 270 337 l 1
 85 338 l 1
EndSplineSet
EndChar

StartChar: uni2088
Encoding: 8328 8328 180
GlifName: uni2088
Width: 333
VWidth: 0
Flags: HMW
LayerCount: 2
Fore
SplineSet
93 320 m 0
 112 385 187 429 252 428 c 0
 314 427 370 384 351 318 c 0
 333 252 257 208 191 209 c 0
 127 210 74 253 93 320 c 0
170 309 m 0
 163 288 170 260 196 257 c 0
 223 254 260 288 268 312 c 0
 275 334 268 360 242 363 c 0
 214 366 179 334 170 309 c 0
9 115 m 0
 30 188 113 237 186 236 c 0
 256 236 316 187 295 113 c 0
 274 41 191 -9 118 -8 c 0
 49 -7 -12 42 9 115 c 0
97 126 m 0
 87 99 98 66 130 64 c 0
 164 62 206 97 216 128 c 0
 225 154 214 186 183 188 c 0
 150 190 108 155 97 126 c 0
EndSplineSet
EndChar

StartChar: uni2089
Encoding: 8329 8329 181
GlifName: uni2089
Width: 360
VWidth: 0
Flags: HMW
LayerCount: 2
Fore
SplineSet
290 278 m 0
 301 312 291 352 250 354 c 0
 207 357 158 314 145 276 c 0
 134 242 144 202 185 199 c 0
 228 196 277 240 290 278 c 0
125 5 m 1
 8 5 l 1
 189 158 l 1
 211 162 l 1
 190 152 169 141 145 142 c 0
 72 143 44 216 62 278 c 0
 86 363 174 430 262 430 c 0
 349 430 400 359 374 276 c 0
 361 234 331 198 300 168 c 1
 125 5 l 1
EndSplineSet
EndChar

StartChar: uni2081
Encoding: 8321 8321 182
GlifName: uni2081
Width: 327
VWidth: 0
Flags: HMW
LayerCount: 2
Fore
SplineSet
134 310 m 1
 161 390 l 1
 356 430 l 1
 208 2 l 1
 124 2 l 1
 236 333 l 1
 134 310 l 1
EndSplineSet
EndChar

StartChar: uni2082
Encoding: 8322 8322 183
GlifName: uni2082
Width: 369
VWidth: 0
Flags: HMW
LayerCount: 2
Fore
SplineSet
-33 4 m 1
 213 201 l 2
 243 225 288 255 300 295 c 0
 308 321 299 350 269 353 c 0
 221 358 189 305 169 271 c 1
 83 272 l 1
 118 354 185 430 282 429 c 0
 357 428 409 370 387 296 c 0
 373 249 334 213 297 184 c 2
 163 84 l 1
 321 82 l 1
 294 3 l 1
 -33 4 l 1
EndSplineSet
EndChar

StartChar: uni2083
Encoding: 8323 8323 184
GlifName: uni2083
Width: 333
VWidth: 0
Flags: HMW
LayerCount: 2
Fore
SplineSet
160 206 m 1
 173 246 l 1
 210 254 259 267 272 308 c 0
 279 330 270 353 245 355 c 0
 211 357 187 327 169 304 c 1
 87 305 l 1
 120 371 176 426 255 426 c 0
 320 425 377 380 356 311 c 0
 331 229 233 212 160 206 c 1
117 -8 m 0
 33 -7 0 50 8 127 c 1
 89 127 l 1
 89 96 90 68 129 65 c 0
 162 63 207 93 217 124 c 0
 233 171 186 180 151 187 c 1
 166 232 l 1
 237 226 326 202 300 112 c 0
 279 36 191 -9 117 -8 c 0
EndSplineSet
EndChar

StartChar: Agrave
Encoding: 192 192 185
GlifName: A_grave
Width: 671
VWidth: 0
Flags: HMW
LayerCount: 2
Fore
SplineSet
161 156 m 1
 215 270 l 1
 538 271 l 1
 513 155 l 1
 161 156 l 1
448 469 m 1
 267 229 l 1
 260 196 l 1
 107 0 l 1
 -61 0 l 1
 534 746 l 1
 616 0 l 1
 463 0 l 1
 443 191 l 1
 459 228 l 1
 448 469 l 1
463 956 m 1
 573 1001 l 1
 665 837 l 1
 588 802 l 1
 463 956 l 1
EndSplineSet
EndChar

StartChar: Aacute
Encoding: 193 193 186
GlifName: A_acute
Width: 671
VWidth: 0
Flags: HMW
LayerCount: 2
Fore
SplineSet
161 156 m 1
 215 270 l 1
 538 271 l 1
 513 155 l 1
 161 156 l 1
448 469 m 1
 267 229 l 1
 260 196 l 1
 107 0 l 1
 -61 0 l 1
 534 746 l 1
 616 0 l 1
 463 0 l 1
 443 191 l 1
 459 228 l 1
 448 469 l 1
751 946 m 1
 535 803 l 1
 469 846 l 1
 660 999 l 1
 751 946 l 1
EndSplineSet
EndChar

StartChar: Acircumflex
Encoding: 194 194 187
GlifName: A_circumflex
Width: 671
VWidth: 0
Flags: HMW
LayerCount: 2
Fore
SplineSet
161 156 m 1
 215 270 l 1
 538 271 l 1
 513 155 l 1
 161 156 l 1
448 469 m 1
 267 229 l 1
 260 196 l 1
 107 0 l 1
 -61 0 l 1
 534 746 l 1
 616 0 l 1
 463 0 l 1
 443 191 l 1
 459 228 l 1
 448 469 l 1
585 866 m 1
 464 781 l 1
 392 848 l 1
 611 983 l 1
 747 838 l 1
 645 780 l 1
 585 866 l 1
EndSplineSet
EndChar

StartChar: Atilde
Encoding: 195 195 188
GlifName: A_tilde
Width: 671
VWidth: 0
Flags: HMW
LayerCount: 2
Fore
SplineSet
161 156 m 1
 215 270 l 1
 538 271 l 1
 513 155 l 1
 161 156 l 1
448 469 m 1
 267 229 l 1
 260 196 l 1
 107 0 l 1
 -61 0 l 1
 534 746 l 1
 616 0 l 1
 463 0 l 1
 443 191 l 1
 459 228 l 1
 448 469 l 1
393 852 m 1
 424 894 470 942 527 939 c 0
 569 937 592 888 634 891 c 0
 665 893 692 921 714 940 c 1
 760 872 l 1
 726 836 673 790 618 794 c 0
 577 797 552 848 510 843 c 0
 480 840 461 815 444 794 c 1
 393 852 l 1
EndSplineSet
EndChar

StartChar: Adieresis
Encoding: 196 196 189
GlifName: A_dieresis
Width: 671
VWidth: 0
Flags: HMW
LayerCount: 2
Fore
SplineSet
161 156 m 1
 215 270 l 1
 538 271 l 1
 513 155 l 1
 161 156 l 1
448 469 m 1
 267 229 l 1
 260 196 l 1
 107 0 l 1
 -61 0 l 1
 534 746 l 1
 616 0 l 1
 463 0 l 1
 443 191 l 1
 459 228 l 1
 448 469 l 1
613 838 m 0
 623 875 671 911 709 909 c 0
 749 907 775 872 765 833 c 0
 755 796 707 760 669 762 c 0
 629 764 603 799 613 838 c 0
366 842 m 0
 376 879 425 916 463 914 c 0
 503 912 529 877 519 838 c 0
 509 801 460 764 422 766 c 0
 382 768 356 803 366 842 c 0
EndSplineSet
EndChar

StartChar: Aring
Encoding: 197 197 190
GlifName: A_ring
Width: 671
VWidth: 0
Flags: HMW
LayerCount: 2
Fore
SplineSet
161 156 m 1
 215 270 l 1
 538 271 l 1
 513 155 l 1
 161 156 l 1
448 469 m 1
 267 229 l 1
 260 196 l 1
 107 0 l 1
 -61 0 l 1
 534 746 l 1
 616 0 l 1
 463 0 l 1
 443 191 l 1
 459 228 l 1
 448 469 l 1
441 802 m 0
 458 861 524 911 586 910 c 0
 648 909 686 857 669 798 c 0
 652 739 585 688 523 689 c 0
 461 690 424 743 441 802 c 0
510 798 m 0
 504 780 512 755 533 752 c 0
 556 749 594 780 600 801 c 0
 606 819 597 845 576 848 c 0
 553 851 516 819 510 798 c 0
EndSplineSet
EndChar

StartChar: AE
Encoding: 198 198 191
GlifName: A_E_
Width: 988
VWidth: 0
Flags: HMW
LayerCount: 2
Fore
SplineSet
241 167 m 1
 292 301 l 1
 579 301 l 1
 532 167 l 1
 241 167 l 1
602 700 m 1
 715 655 l 1
 133 0 l 1
 -48 0 l 1
 602 700 l 1
514 0 m 1
 556 123 l 1
 915 123 l 1
 872 0 l 1
 514 0 l 1
727 577 m 1
 602 700 l 1
 1111 700 l 1
 1069 577 l 1
 727 577 l 1
620 311 m 1
 661 431 l 1
 1001 431 l 1
 959 310 l 1
 620 311 l 1
683 699 m 1
 836 700 l 1
 595 0 l 1
 446 0 l 1
 683 699 l 1
EndSplineSet
EndChar

StartChar: Ccedilla
Encoding: 199 199 192
GlifName: C_cedilla
Width: 654
VWidth: 0
Flags: HMW
LayerCount: 2
Fore
SplineSet
250 350 m 0
 212 245 248 130 373 127 c 0
 462 125 543 172 613 220 c 1
 564 57 l 1
 494 14 419 -16 336 -15 c 0
 132 -14 37 167 96 350 c 0
 159 549 354 714 567 715 c 0
 642 716 703 690 758 641 c 1
 708 478 l 1
 671 539 616 573 543 573 c 0
 414 572 294 468 250 350 c 0
300 49 m 1
 401 47 l 1
 278 -71 l 1
 285 -70 295 -69 302 -69 c 0
 350 -75 373 -116 360 -161 c 0
 343 -222 273 -261 213 -263 c 0
 168 -264 131 -246 95 -222 c 1
 151 -166 l 1
 169 -178 187 -190 211 -190 c 0
 231 -190 274 -173 279 -151 c 0
 284 -130 257 -121 242 -120 c 0
 215 -118 186 -127 160 -134 c 1
 300 49 l 1
EndSplineSet
EndChar

StartChar: Egrave
Encoding: 200 200 193
GlifName: E_grave
Width: 553
VWidth: 0
Flags: HMW
LayerCount: 2
Fore
SplineSet
104 0 m 1
 147 123 l 1
 484 123 l 1
 441 0 l 1
 104 0 l 1
302 577 m 1
 344 700 l 1
 680 700 l 1
 638 577 l 1
 302 577 l 1
210 311 m 1
 252 431 l 1
 570 431 l 1
 528 310 l 1
 210 311 l 1
253 699 m 1
 393 700 l 1
 152 0 l 1
 16 0 l 1
 253 699 l 1
400 933 m 1
 511 979 l 1
 602 814 l 1
 525 779 l 1
 400 933 l 1
EndSplineSet
EndChar

StartChar: Eacute
Encoding: 201 201 194
GlifName: E_acute
Width: 553
VWidth: 0
Flags: HMW
LayerCount: 2
Fore
SplineSet
104 0 m 1
 147 123 l 1
 484 123 l 1
 441 0 l 1
 104 0 l 1
302 577 m 1
 344 700 l 1
 680 700 l 1
 638 577 l 1
 302 577 l 1
210 311 m 1
 252 431 l 1
 570 431 l 1
 528 310 l 1
 210 311 l 1
253 699 m 1
 393 700 l 1
 152 0 l 1
 16 0 l 1
 253 699 l 1
688 923 m 1
 473 781 l 1
 406 823 l 1
 598 977 l 1
 688 923 l 1
EndSplineSet
EndChar

StartChar: Ecircumflex
Encoding: 202 202 195
GlifName: E_circumflex
Width: 553
VWidth: 0
Flags: HMW
LayerCount: 2
Fore
SplineSet
104 0 m 1
 147 123 l 1
 484 123 l 1
 441 0 l 1
 104 0 l 1
302 577 m 1
 344 700 l 1
 680 700 l 1
 638 577 l 1
 302 577 l 1
210 311 m 1
 252 431 l 1
 570 431 l 1
 528 310 l 1
 210 311 l 1
253 699 m 1
 393 700 l 1
 152 0 l 1
 16 0 l 1
 253 699 l 1
540 877 m 1
 402 784 l 1
 361 828 l 1
 555 964 l 1
 666 820 l 1
 610 784 l 1
 540 877 l 1
EndSplineSet
EndChar

StartChar: Edieresis
Encoding: 203 203 196
GlifName: E_dieresis
Width: 553
VWidth: 0
Flags: HMW
LayerCount: 2
Fore
SplineSet
104 0 m 1
 147 123 l 1
 484 123 l 1
 441 0 l 1
 104 0 l 1
302 577 m 1
 344 700 l 1
 680 700 l 1
 638 577 l 1
 302 577 l 1
210 311 m 1
 252 431 l 1
 570 431 l 1
 528 310 l 1
 210 311 l 1
253 699 m 1
 393 700 l 1
 152 0 l 1
 16 0 l 1
 253 699 l 1
559 862 m 0
 569 899 618 936 656 934 c 0
 696 932 721 897 711 858 c 0
 701 821 653 784 615 786 c 0
 575 788 549 823 559 862 c 0
341 862 m 0
 351 899 399 936 437 934 c 0
 477 932 503 897 493 858 c 0
 483 821 435 784 397 786 c 0
 357 788 331 823 341 862 c 0
EndSplineSet
EndChar

StartChar: Igrave
Encoding: 204 204 197
GlifName: I_grave
Width: 281
VWidth: 0
Flags: HMW
LayerCount: 2
Fore
SplineSet
253 699 m 1
 399 700 l 1
 158 0 l 1
 16 0 l 1
 253 699 l 1
256 933 m 1
 366 979 l 1
 457 814 l 1
 380 779 l 1
 256 933 l 1
EndSplineSet
EndChar

StartChar: Iacute
Encoding: 205 205 198
GlifName: I_acute
Width: 281
VWidth: 0
Flags: HMW
LayerCount: 2
Fore
SplineSet
253 699 m 1
 399 700 l 1
 158 0 l 1
 16 0 l 1
 253 699 l 1
543 923 m 1
 327 780 l 1
 262 823 l 1
 453 977 l 1
 543 923 l 1
EndSplineSet
EndChar

StartChar: Icircumflex
Encoding: 206 206 199
GlifName: I_circumflex
Width: 281
VWidth: 0
Flags: HMW
LayerCount: 2
Fore
SplineSet
253 699 m 1
 399 700 l 1
 158 0 l 1
 16 0 l 1
 253 699 l 1
389 877 m 1
 251 784 l 1
 211 828 l 1
 405 964 l 1
 515 820 l 1
 460 784 l 1
 389 877 l 1
EndSplineSet
EndChar

StartChar: Idieresis
Encoding: 207 207 200
GlifName: I_dieresis
Width: 281
VWidth: 0
Flags: HMW
LayerCount: 2
Fore
SplineSet
253 699 m 1
 399 700 l 1
 158 0 l 1
 16 0 l 1
 253 699 l 1
410 852 m 0
 420 889 468 925 506 923 c 0
 546 921 572 886 562 847 c 0
 552 810 504 774 466 776 c 0
 426 778 400 813 410 852 c 0
192 852 m 0
 202 889 249 925 287 923 c 0
 327 921 354 886 344 847 c 0
 334 810 285 774 247 776 c 0
 207 778 182 813 192 852 c 0
EndSplineSet
EndChar

StartChar: Ntilde
Encoding: 209 209 201
GlifName: N_tilde
Width: 741
VWidth: 0
Flags: HMW
LayerCount: 2
Fore
SplineSet
721 700 m 1
 859 700 l 1
 608 -32 l 1
 300 430 l 1
 152 0 l 1
 13 0 l 1
 265 732 l 1
 572 270 l 1
 721 700 l 1
397 825 m 1
 428 867 473 915 530 912 c 0
 572 910 596 861 638 864 c 0
 669 866 695 895 717 914 c 1
 763 845 l 1
 729 809 677 763 622 767 c 0
 581 770 555 821 513 816 c 0
 483 813 465 788 448 767 c 1
 397 825 l 1
EndSplineSet
EndChar

StartChar: Eth
Encoding: 208 208 202
GlifName: E_th
Width: 675
VWidth: 0
Flags: HMW
LayerCount: 2
Fore
SplineSet
53 305 m 1
 86 398 l 1
 407 398 l 1
 374 305 l 1
 53 305 l 1
253 699 m 1
 401 700 l 1
 160 0 l 1
 16 0 l 1
 253 699 l 1
251 0 m 0
 103 0 l 1
 149 133 l 1
 275 133 l 0
 408 138 518 226 564 350 c 0
 606 462 566 561 439 567 c 1
 296 568 l 1
 343 700 l 1
 472 700 l 0
 672 694 770 537 710 350 c 0
 647 150 461 6 251 0 c 0
EndSplineSet
EndChar

StartChar: Ograve
Encoding: 210 210 203
GlifName: O_grave
Width: 764
VWidth: 0
Flags: HMW
LayerCount: 2
Fore
SplineSet
246 350 m 0
 209 249 233 125 361 123 c 0
 492 121 606 235 649 350 c 0
 686 451 662 575 534 577 c 0
 403 579 288 465 246 350 c 0
96 350 m 0
 158 546 352 716 563 715 c 0
 767 714 856 531 799 350 c 0
 737 153 543 -20 330 -19 c 0
 124 -18 39 169 96 350 c 0
513 933 m 1
 623 979 l 1
 715 814 l 1
 638 779 l 1
 513 933 l 1
EndSplineSet
EndChar

StartChar: Oacute
Encoding: 211 211 204
GlifName: O_acute
Width: 764
VWidth: 0
Flags: HMW
LayerCount: 2
Fore
SplineSet
246 350 m 0
 209 249 233 125 361 123 c 0
 492 121 606 235 649 350 c 0
 686 451 662 575 534 577 c 0
 403 579 288 465 246 350 c 0
96 350 m 0
 158 546 352 716 563 715 c 0
 767 714 856 531 799 350 c 0
 737 153 543 -20 330 -19 c 0
 124 -18 39 169 96 350 c 0
790 923 m 1
 574 781 l 1
 508 823 l 1
 699 977 l 1
 790 923 l 1
EndSplineSet
EndChar

StartChar: Ocircumflex
Encoding: 212 212 205
GlifName: O_circumflex
Width: 764
VWidth: 0
Flags: HMW
LayerCount: 2
Fore
SplineSet
246 350 m 0
 209 249 233 125 361 123 c 0
 492 121 606 235 649 350 c 0
 686 451 662 575 534 577 c 0
 403 579 288 465 246 350 c 0
96 350 m 0
 158 546 352 716 563 715 c 0
 767 714 856 531 799 350 c 0
 737 153 543 -20 330 -19 c 0
 124 -18 39 169 96 350 c 0
642 877 m 1
 504 784 l 1
 463 828 l 1
 658 964 l 1
 768 820 l 1
 713 784 l 1
 642 877 l 1
EndSplineSet
EndChar

StartChar: Otilde
Encoding: 213 213 206
GlifName: O_tilde
Width: 764
VWidth: 0
Flags: HMW
LayerCount: 2
Fore
SplineSet
246 350 m 0
 209 249 233 125 361 123 c 0
 492 121 606 235 649 350 c 0
 686 451 662 575 534 577 c 0
 403 579 288 465 246 350 c 0
96 350 m 0
 158 546 352 716 563 715 c 0
 767 714 856 531 799 350 c 0
 737 153 543 -20 330 -19 c 0
 124 -18 39 169 96 350 c 0
457 836 m 1
 448 876 549 914 577 913 c 0
 616 911 638 866 678 869 c 0
 706 871 731 898 750 915 c 1
 785 869 l 1
 756 838 714 796 667 800 c 0
 629 803 608 847 569 845 c 0
 539 843 518 817 501 796 c 1
 457 836 l 1
EndSplineSet
EndChar

StartChar: Odieresis
Encoding: 214 214 207
GlifName: O_dieresis
Width: 764
VWidth: 0
Flags: HMW
LayerCount: 2
Fore
SplineSet
246 350 m 0
 209 249 233 125 361 123 c 0
 492 121 606 235 649 350 c 0
 686 451 662 575 534 577 c 0
 403 579 288 465 246 350 c 0
96 350 m 0
 158 546 352 716 563 715 c 0
 767 714 856 531 799 350 c 0
 737 153 543 -20 330 -19 c 0
 124 -18 39 169 96 350 c 0
651 852 m 0
 661 889 709 925 747 923 c 0
 787 921 813 886 803 847 c 0
 793 810 745 774 707 776 c 0
 667 778 641 813 651 852 c 0
433 852 m 0
 443 889 491 925 529 923 c 0
 569 921 595 886 585 847 c 0
 575 810 527 774 489 776 c 0
 449 778 423 813 433 852 c 0
EndSplineSet
EndChar

StartChar: Ugrave
Encoding: 217 217 208
GlifName: U_grave
Width: 639
VWidth: 0
Flags: HMW
LayerCount: 2
Fore
SplineSet
250 700 m 1
 392 700 l 1
 231 239 l 2
 213 179 219 112 295 110 c 0
 373 108 434 173 461 240 c 1
 620 700 l 1
 762 700 l 1
 602 230 l 2
 551 88 424 -23 267 -23 c 0
 118 -23 49 92 89 230 c 0
 250 700 l 1
438 928 m 1
 548 974 l 1
 639 809 l 1
 563 775 l 1
 438 928 l 1
EndSplineSet
EndChar

StartChar: Uacute
Encoding: 218 218 209
GlifName: U_acute
Width: 639
VWidth: 0
Flags: HMW
LayerCount: 2
Fore
SplineSet
250 700 m 1
 392 700 l 1
 231 239 l 2
 213 179 219 112 295 110 c 0
 373 108 434 173 461 240 c 1
 620 700 l 1
 762 700 l 1
 602 230 l 2
 551 88 424 -23 267 -23 c 0
 118 -23 49 92 89 230 c 0
 250 700 l 1
727 919 m 1
 511 776 l 1
 445 818 l 1
 637 972 l 1
 727 919 l 1
EndSplineSet
EndChar

StartChar: Ucircumflex
Encoding: 219 219 210
GlifName: U_circumflex
Width: 639
VWidth: 0
Flags: HMW
LayerCount: 2
Fore
SplineSet
250 700 m 1
 392 700 l 1
 231 239 l 2
 213 179 219 112 295 110 c 0
 373 108 434 173 461 240 c 1
 620 700 l 1
 762 700 l 1
 602 230 l 2
 551 88 424 -23 267 -23 c 0
 118 -23 49 92 89 230 c 0
 250 700 l 1
567 861 m 1
 446 775 l 1
 375 842 l 1
 593 977 l 1
 729 833 l 1
 627 774 l 1
 567 861 l 1
EndSplineSet
EndChar

StartChar: Udieresis
Encoding: 220 220 211
GlifName: U_dieresis
Width: 639
VWidth: 0
Flags: HMW
LayerCount: 2
Fore
SplineSet
250 700 m 1
 392 700 l 1
 231 239 l 2
 213 179 219 112 295 110 c 0
 373 108 434 173 461 240 c 1
 620 700 l 1
 762 700 l 1
 602 230 l 2
 551 88 424 -23 267 -23 c 0
 118 -23 49 92 89 230 c 0
 250 700 l 1
602 852 m 0
 612 889 660 925 698 923 c 0
 738 921 764 886 754 847 c 0
 744 810 696 774 658 776 c 0
 618 778 592 813 602 852 c 0
358 852 m 0
 368 889 416 925 454 923 c 0
 494 921 520 886 510 847 c 0
 500 810 451 774 413 776 c 0
 373 778 348 813 358 852 c 0
EndSplineSet
EndChar

StartChar: Yacute
Encoding: 221 221 212
GlifName: Y_acute
Width: 595
VWidth: 0
Flags: HMW
LayerCount: 2
Fore
SplineSet
705 919 m 1
 489 776 l 1
 423 818 l 1
 615 972 l 1
 705 919 l 1
617 699 m 1
 787 699 l 1
 413 282 l 1
 316 0 l 1
 171 0 l 1
 274 297 l 1
 187 700 l 1
 342 700 l 1
 384 425 l 1
 617 699 l 1
EndSplineSet
EndChar

StartChar: agrave
Encoding: 224 224 213
GlifName: agrave
Width: 496
VWidth: 0
Flags: HMW
LayerCount: 2
Fore
SplineSet
142 136 m 0
 131 102 156 84 187 82 c 0
 255 78 301 131 333 184 c 1
 331 128 l 1
 292 48 223 -9 130 -9 c 0
 49 -9 -13 44 11 128 c 0
 40 226 147 280 244 280 c 0
 298 280 342 263 381 227 c 1
 361 165 l 1
 330 190 299 205 258 204 c 0
 215 203 156 181 142 136 c 0
170 327 m 1
 150 421 l 1
 214 449 281 473 351 472 c 0
 439 471 528 426 503 325 c 1
 392 0 l 1
 267 0 l 1
 375 304 l 1
 379 343 364 365 322 368 c 0
 270 372 216 347 170 327 c 1
272 686 m 1
 382 732 l 1
 474 567 l 1
 397 532 l 1
 272 686 l 1
EndSplineSet
Substitution2: "alt a" agrave.alt
EndChar

StartChar: aacute
Encoding: 225 225 214
GlifName: aacute
Width: 496
VWidth: 0
Flags: HMW
LayerCount: 2
Fore
SplineSet
142 136 m 0
 131 102 156 84 187 82 c 0
 255 78 301 131 333 184 c 1
 331 128 l 1
 292 48 223 -9 130 -9 c 0
 49 -9 -13 44 11 128 c 0
 40 226 147 280 244 280 c 0
 298 280 342 263 381 227 c 1
 361 165 l 1
 330 190 299 205 258 204 c 0
 215 203 156 181 142 136 c 0
170 327 m 1
 150 421 l 1
 214 449 281 473 351 472 c 0
 439 471 528 426 503 325 c 1
 392 0 l 1
 267 0 l 1
 375 304 l 1
 379 343 364 365 322 368 c 0
 270 372 216 347 170 327 c 1
592 676 m 1
 376 534 l 1
 311 576 l 1
 502 730 l 1
 592 676 l 1
EndSplineSet
Substitution2: "alt a" aacute.alt
EndChar

StartChar: acircumflex
Encoding: 226 226 215
GlifName: acircumflex
Width: 496
VWidth: 0
Flags: HMW
LayerCount: 2
Fore
SplineSet
142 136 m 0
 131 102 156 84 187 82 c 0
 255 78 301 131 333 184 c 1
 331 128 l 1
 292 48 223 -9 130 -9 c 0
 49 -9 -13 44 11 128 c 0
 40 226 147 280 244 280 c 0
 298 280 342 263 381 227 c 1
 361 165 l 1
 330 190 299 205 258 204 c 0
 215 203 156 181 142 136 c 0
170 327 m 1
 150 421 l 1
 214 449 281 473 351 472 c 0
 439 471 528 426 503 325 c 1
 392 0 l 1
 267 0 l 1
 375 304 l 1
 379 343 364 365 322 368 c 0
 270 372 216 347 170 327 c 1
417 619 m 1
 295 533 l 1
 224 600 l 1
 443 735 l 1
 579 591 l 1
 477 532 l 1
 417 619 l 1
EndSplineSet
Substitution2: "alt a" acircumflex.alt
EndChar

StartChar: atilde
Encoding: 227 227 216
GlifName: atilde
Width: 496
VWidth: 0
Flags: HMW
LayerCount: 2
Fore
SplineSet
142 136 m 0
 131 102 156 84 187 82 c 0
 255 78 301 131 333 184 c 1
 331 128 l 1
 292 48 223 -9 130 -9 c 0
 49 -9 -13 44 11 128 c 0
 40 226 147 280 244 280 c 0
 298 280 342 263 381 227 c 1
 361 165 l 1
 330 190 299 205 258 204 c 0
 215 203 156 181 142 136 c 0
170 327 m 1
 150 421 l 1
 214 449 281 473 351 472 c 0
 439 471 528 426 503 325 c 1
 392 0 l 1
 267 0 l 1
 375 304 l 1
 379 343 364 365 322 368 c 0
 270 372 216 347 170 327 c 1
221 594 m 1
 252 636 298 683 355 680 c 0
 397 678 421 629 463 632 c 0
 494 634 520 663 542 682 c 1
 587 613 l 1
 553 577 502 531 447 535 c 0
 406 538 380 590 338 585 c 0
 308 582 290 557 273 536 c 1
 221 594 l 1
EndSplineSet
Substitution2: "alt a" atilde.alt
EndChar

StartChar: adieresis
Encoding: 228 228 217
GlifName: adieresis
Width: 496
VWidth: 0
Flags: HMW
LayerCount: 2
Fore
SplineSet
142 136 m 0
 131 102 156 84 187 82 c 0
 255 78 301 131 333 184 c 1
 331 128 l 1
 292 48 223 -9 130 -9 c 0
 49 -9 -13 44 11 128 c 0
 40 226 147 280 244 280 c 0
 298 280 342 263 381 227 c 1
 361 165 l 1
 330 190 299 205 258 204 c 0
 215 203 156 181 142 136 c 0
170 327 m 1
 150 421 l 1
 214 449 281 473 351 472 c 0
 439 471 528 426 503 325 c 1
 392 0 l 1
 267 0 l 1
 375 304 l 1
 379 343 364 365 322 368 c 0
 270 372 216 347 170 327 c 1
439 609 m 0
 449 646 496 682 534 680 c 0
 574 678 601 643 591 604 c 0
 581 567 532 531 494 533 c 0
 454 535 429 570 439 609 c 0
221 609 m 0
 231 646 278 682 316 680 c 0
 356 678 382 643 372 604 c 0
 362 567 314 531 276 533 c 0
 236 535 211 570 221 609 c 0
EndSplineSet
Substitution2: "alt a" adieresis.alt
EndChar

StartChar: aring
Encoding: 229 229 218
GlifName: aring
Width: 496
VWidth: 0
Flags: HMW
LayerCount: 2
Fore
SplineSet
142 136 m 0
 131 102 156 84 187 82 c 0
 255 78 301 131 333 184 c 1
 331 128 l 1
 292 48 223 -9 130 -9 c 0
 49 -9 -13 44 11 128 c 0
 40 226 147 280 244 280 c 0
 298 280 342 263 381 227 c 1
 361 165 l 1
 330 190 299 205 258 204 c 0
 215 203 156 181 142 136 c 0
170 327 m 1
 150 421 l 1
 214 449 281 473 351 472 c 0
 439 471 528 426 503 325 c 1
 392 0 l 1
 267 0 l 1
 375 304 l 1
 379 343 364 365 322 368 c 0
 270 372 216 347 170 327 c 1
304 646 m 0
 321 705 387 755 449 754 c 0
 511 753 549 701 532 642 c 0
 515 583 448 532 386 533 c 0
 324 534 287 587 304 646 c 0
373 642 m 0
 367 624 375 599 396 596 c 0
 419 593 457 624 463 645 c 0
 469 663 460 689 439 692 c 0
 416 695 379 663 373 642 c 0
EndSplineSet
Substitution2: "alt a" aring.alt
EndChar

StartChar: germandbls
Encoding: 223 223 219
GlifName: germandbls
Width: 551
VWidth: 0
Flags: HMW
LayerCount: 2
Fore
SplineSet
242 110 m 1
 323 124 399 169 428 250 c 0
 458 334 395 367 322 377 c 1
 350 468 l 1
 486 458 593 371 548 224 c 0
 501 71 355 1 206 -9 c 1
 242 110 l 1
334 417 m 1
 360 498 l 1
 418 506 487 525 507 588 c 0
 522 634 498 673 448 674 c 0
 394 675 347 641 330 592 c 2
 126 0 l 1
 0 0 l 1
 207 607 l 2
 245 718 351 794 475 794 c 0
 586 794 671 720 637 605 c 0
 596 470 462 424 334 417 c 1
EndSplineSet
EndChar

StartChar: ae
Encoding: 230 230 220
GlifName: ae
Width: 824
VWidth: 0
Flags: HMW
LayerCount: 2
Fore
SplineSet
141 136 m 0
 130 102 155 84 186 82 c 0
 254 78 298 131 329 184 c 1
 377 127 l 1
 333 38 253 -9 153 -9 c 0
 71 -9 -16 33 11 128 c 0
 39 226 148 280 244 280 c 0
 298 280 342 263 381 227 c 1
 361 165 l 1
 330 190 298 205 257 204 c 0
 214 203 155 181 141 136 c 0
170 327 m 1
 150 421 l 1
 213 449 281 473 351 472 c 0
 444 470 486 415 462 325 c 1
 397 131 l 1
 312 131 l 1
 374 299 l 1
 383 338 363 364 323 368 c 0
 272 373 216 347 170 327 c 1
406 202 m 1
 431 280 l 1
 818 281 l 1
 809 201 l 1
 406 202 l 1
692 245 m 2
 708 295 719 372 647 376 c 0
 575 380 522 313 494 255 c 2
 482 230 l 1
 461 173 459 96 536 91 c 0
 589 88 636 123 674 155 c 1
 780 117 l 1
 711 44 621 -11 517 -9 c 0
 381 -6 336 112 379 230 c 0
 386 247 394 263 403 279 c 0
 460 382 559 470 683 469 c 0
 816 468 853 348 822 236 c 0
 819 224 814 214 810 202 c 1
 683 222 l 1
 692 245 l 2
EndSplineSet
EndChar

StartChar: ccedilla
Encoding: 231 231 221
GlifName: ccedilla
Width: 459
VWidth: 0
Flags: HMW
LayerCount: 2
Fore
SplineSet
181 230 m 0
 158 168 180 103 252 100 c 0
 313 97 370 133 416 169 c 1
 376 36 l 1
 329 9 278 -9 222 -9 c 0
 87 -8 11 102 50 230 c 0
 91 366 227 468 369 469 c 0
 420 469 464 454 504 424 c 1
 462 290 l 1
 442 335 410 362 358 361 c 0
 283 360 207 299 181 230 c 0
190 58 m 1
 290 56 l 1
 168 -62 l 1
 175 -61 184 -60 191 -60 c 0
 239 -66 262 -107 249 -152 c 0
 232 -213 161 -252 101 -254 c 0
 56 -255 20 -237 -16 -213 c 1
 41 -157 l 1
 59 -169 76 -181 100 -181 c 0
 120 -181 164 -163 169 -141 c 0
 174 -120 146 -112 131 -111 c 0
 104 -109 75 -118 49 -125 c 1
 190 58 l 1
EndSplineSet
EndChar

StartChar: egrave
Encoding: 232 232 222
GlifName: egrave
Width: 524
VWidth: 0
Flags: HMW
LayerCount: 2
Fore
SplineSet
118 202 m 1
 143 280 l 1
 398 281 l 1
 405 327 402 373 345 376 c 0
 273 380 221 312 193 255 c 2
 181 230 l 1
 160 173 159 96 235 91 c 0
 288 88 336 123 374 155 c 1
 479 117 l 1
 409 43 322 -10 217 -9 c 0
 80 -7 16 104 53 230 c 0
 58 247 64 263 72 279 c 0
 125 390 240 470 364 469 c 0
 503 468 555 361 521 236 c 0
 518 224 515 214 511 202 c 1
 118 202 l 1
298 690 m 1
 408 735 l 1
 499 571 l 1
 423 536 l 1
 298 690 l 1
EndSplineSet
EndChar

StartChar: eacute
Encoding: 233 233 223
GlifName: eacute
Width: 524
VWidth: 0
Flags: HMW
LayerCount: 2
Fore
SplineSet
118 202 m 1
 143 280 l 1
 398 281 l 1
 405 327 402 373 345 376 c 0
 273 380 221 312 193 255 c 2
 181 230 l 1
 160 173 159 96 235 91 c 0
 288 88 336 123 374 155 c 1
 479 117 l 1
 409 43 322 -10 217 -9 c 0
 80 -7 16 104 53 230 c 0
 58 247 64 263 72 279 c 0
 125 390 240 470 364 469 c 0
 503 468 555 361 521 236 c 0
 518 224 515 214 511 202 c 1
 118 202 l 1
608 680 m 1
 392 537 l 1
 326 580 l 1
 517 734 l 1
 608 680 l 1
EndSplineSet
EndChar

StartChar: ecircumflex
Encoding: 234 234 224
GlifName: ecircumflex
Width: 524
VWidth: 0
Flags: HMW
LayerCount: 2
Fore
SplineSet
118 202 m 1
 143 280 l 1
 398 281 l 1
 405 327 402 373 345 376 c 0
 273 380 221 312 193 255 c 2
 181 230 l 1
 160 173 159 96 235 91 c 0
 288 88 336 123 374 155 c 1
 479 117 l 1
 409 43 322 -10 217 -9 c 0
 80 -7 16 104 53 230 c 0
 58 247 64 263 72 279 c 0
 125 390 240 470 364 469 c 0
 503 468 555 361 521 236 c 0
 518 224 515 214 511 202 c 1
 118 202 l 1
430 617 m 1
 309 531 l 1
 238 598 l 1
 456 733 l 1
 592 589 l 1
 490 530 l 1
 430 617 l 1
EndSplineSet
EndChar

StartChar: edieresis
Encoding: 235 235 225
GlifName: edieresis
Width: 524
VWidth: 0
Flags: HMW
LayerCount: 2
Fore
SplineSet
118 202 m 1
 143 280 l 1
 398 281 l 1
 405 327 402 373 345 376 c 0
 273 380 221 312 193 255 c 2
 181 230 l 1
 160 173 159 96 235 91 c 0
 288 88 336 123 374 155 c 1
 479 117 l 1
 409 43 322 -10 217 -9 c 0
 80 -7 16 104 53 230 c 0
 58 247 64 263 72 279 c 0
 125 390 240 470 364 469 c 0
 503 468 555 361 521 236 c 0
 518 224 515 214 511 202 c 1
 118 202 l 1
452 607 m 0
 462 644 510 681 548 679 c 0
 588 677 614 642 604 603 c 0
 594 566 546 529 508 531 c 0
 468 533 442 568 452 607 c 0
234 607 m 0
 244 644 292 681 330 679 c 0
 370 677 396 642 386 603 c 0
 376 566 327 529 289 531 c 0
 249 533 224 568 234 607 c 0
EndSplineSet
EndChar

StartChar: igrave
Encoding: 236 236 226
GlifName: igrave
Width: 255
VWidth: 0
Flags: HMW
LayerCount: 2
Fore
SplineSet
167 459 m 1
 295 460 l 1
 135 0 l 1
 11 0 l 1
 167 459 l 1
145 695 m 1
 255 741 l 1
 347 576 l 1
 269 541 l 1
 145 695 l 1
EndSplineSet
EndChar

StartChar: dotlessi
Encoding: 305 305 227
GlifName: dotlessi
Width: 255
VWidth: 0
Flags: HMW
LayerCount: 2
Fore
SplineSet
167 459 m 1
 295 460 l 1
 135 0 l 1
 11 0 l 1
 167 459 l 1
EndSplineSet
EndChar

StartChar: kgreenlandic
Encoding: 312 312 228
GlifName: kgreenlandic
Width: 507
VWidth: 0
Flags: HMW
LayerCount: 2
Fore
SplineSet
157 459 m 1
 284 460 l 1
 125 0 l 1
 2 0 l 1
 157 459 l 1
431 459 m 1
 596 459 l 1
 335 264 l 1
 446 0 l 1
 306 0 l 1
 188 277 l 1
 431 459 l 1
EndSplineSet
EndChar

StartChar: iacute
Encoding: 237 237 229
GlifName: iacute
Width: 255
VWidth: 0
Flags: HMW
LayerCount: 2
Fore
SplineSet
167 459 m 1
 295 460 l 1
 135 0 l 1
 11 0 l 1
 167 459 l 1
470 685 m 1
 255 543 l 1
 188 585 l 1
 380 739 l 1
 470 685 l 1
EndSplineSet
EndChar

StartChar: icircumflex
Encoding: 238 238 230
GlifName: icircumflex
Width: 255
VWidth: 0
Flags: HMW
LayerCount: 2
Fore
SplineSet
167 459 m 1
 295 460 l 1
 135 0 l 1
 11 0 l 1
 167 459 l 1
293 622 m 1
 172 536 l 1
 101 603 l 1
 319 739 l 1
 454 594 l 1
 353 536 l 1
 293 622 l 1
EndSplineSet
EndChar

StartChar: idieresis
Encoding: 239 239 231
GlifName: idieresis
Width: 255
VWidth: 0
Flags: HMW
LayerCount: 2
Fore
SplineSet
167 459 m 1
 295 460 l 1
 135 0 l 1
 11 0 l 1
 167 459 l 1
319 624 m 0
 329 661 377 697 415 695 c 0
 455 693 481 658 471 619 c 0
 461 582 413 546 375 548 c 0
 335 550 309 585 319 624 c 0
101 624 m 0
 111 661 159 697 197 695 c 0
 237 693 263 658 253 619 c 0
 243 582 195 546 157 548 c 0
 117 550 91 585 101 624 c 0
EndSplineSet
EndChar

StartChar: ntilde
Encoding: 241 241 232
GlifName: ntilde
Width: 527
VWidth: 0
Flags: HMW
LayerCount: 2
Fore
SplineSet
290 460 m 1
 132 0 l 1
 2 0 l 1
 161 460 l 1
 290 460 l 1
382 280 m 1
 393 317 399 366 348 371 c 0
 293 376 253 322 228 282 c 1
 194 277 l 1
 232 370 301 469 413 470 c 0
 519 471 541 382 516 295 c 1
 415 0 l 1
 284 0 l 1
 382 280 l 1
233 592 m 1
 264 634 309 681 366 678 c 0
 408 676 432 627 474 630 c 0
 505 632 531 661 553 680 c 1
 598 611 l 1
 563 575 512 530 457 534 c 0
 416 537 391 588 349 583 c 0
 319 580 300 555 283 534 c 1
 233 592 l 1
EndSplineSet
EndChar

StartChar: ograve
Encoding: 242 242 233
GlifName: ograve
Width: 543
VWidth: 0
Flags: HMW
LayerCount: 2
Fore
SplineSet
52 230 m 0
 93 363 228 470 369 470 c 0
 504 470 579 356 540 230 c 0
 499 97 364 -9 223 -9 c 0
 88 -9 13 104 52 230 c 0
183 230 m 0
 162 175 175 104 245 102 c 0
 317 100 385 167 409 230 c 0
 430 285 417 356 347 358 c 0
 275 360 207 293 183 230 c 0
303 695 m 1
 413 741 l 1
 504 576 l 1
 428 541 l 1
 303 695 l 1
EndSplineSet
EndChar

StartChar: oacute
Encoding: 243 243 234
GlifName: oacute
Width: 543
VWidth: 0
Flags: HMW
LayerCount: 2
Fore
SplineSet
52 230 m 0
 93 363 228 470 369 470 c 0
 504 470 579 356 540 230 c 0
 499 97 364 -9 223 -9 c 0
 88 -9 13 104 52 230 c 0
183 230 m 0
 162 175 175 104 245 102 c 0
 317 100 385 167 409 230 c 0
 430 285 417 356 347 358 c 0
 275 360 207 293 183 230 c 0
606 685 m 1
 391 543 l 1
 324 585 l 1
 516 739 l 1
 606 685 l 1
EndSplineSet
EndChar

StartChar: ocircumflex
Encoding: 244 244 235
GlifName: ocircumflex
Width: 543
VWidth: 0
Flags: HMW
LayerCount: 2
Fore
SplineSet
52 230 m 0
 93 363 228 470 369 470 c 0
 504 470 579 356 540 230 c 0
 499 97 364 -9 223 -9 c 0
 88 -9 13 104 52 230 c 0
183 230 m 0
 162 175 175 104 245 102 c 0
 317 100 385 167 409 230 c 0
 430 285 417 356 347 358 c 0
 275 360 207 293 183 230 c 0
439 628 m 1
 318 542 l 1
 247 609 l 1
 465 744 l 1
 601 600 l 1
 499 541 l 1
 439 628 l 1
EndSplineSet
EndChar

StartChar: otilde
Encoding: 245 245 236
GlifName: otilde
Width: 543
VWidth: 0
Flags: HMW
LayerCount: 2
Fore
SplineSet
52 230 m 0
 93 363 228 470 369 470 c 0
 504 470 579 356 540 230 c 0
 499 97 364 -9 223 -9 c 0
 88 -9 13 104 52 230 c 0
183 230 m 0
 162 175 175 104 245 102 c 0
 317 100 385 167 409 230 c 0
 430 285 417 356 347 358 c 0
 275 360 207 293 183 230 c 0
240 591 m 1
 231 637 340 679 373 678 c 0
 415 676 438 627 481 630 c 0
 512 632 538 661 560 680 c 1
 606 611 l 1
 572 575 521 530 466 534 c 0
 425 537 398 588 356 583 c 0
 326 580 308 555 291 534 c 1
 240 591 l 1
EndSplineSet
EndChar

StartChar: odieresis
Encoding: 246 246 237
GlifName: odieresis
Width: 543
VWidth: 0
Flags: HMW
LayerCount: 2
Fore
SplineSet
52 230 m 0
 93 363 228 470 369 470 c 0
 504 470 579 356 540 230 c 0
 499 97 364 -9 223 -9 c 0
 88 -9 13 104 52 230 c 0
183 230 m 0
 162 175 175 104 245 102 c 0
 317 100 385 167 409 230 c 0
 430 285 417 356 347 358 c 0
 275 360 207 293 183 230 c 0
463 624 m 0
 473 661 521 697 559 695 c 0
 599 693 625 658 615 619 c 0
 605 582 556 546 518 548 c 0
 478 550 453 585 463 624 c 0
245 624 m 0
 255 661 303 697 341 695 c 0
 381 693 406 658 396 619 c 0
 386 582 338 546 300 548 c 0
 260 550 235 585 245 624 c 0
EndSplineSet
EndChar

StartChar: ugrave
Encoding: 249 249 238
GlifName: ugrave
Width: 527
VWidth: 0
Flags: HMW
LayerCount: 2
Fore
SplineSet
286 0 m 1
 445 460 l 1
 574 460 l 1
 416 0 l 1
 286 0 l 1
195 180 m 1
 184 143 177 94 228 89 c 0
 283 84 324 138 349 178 c 1
 383 183 l 1
 345 90 275 -9 163 -10 c 0
 57 -11 36 78 61 165 c 1
 162 460 l 1
 293 459 l 1
 195 180 l 1
316 695 m 1
 426 741 l 1
 517 576 l 1
 440 541 l 1
 316 695 l 1
EndSplineSet
EndChar

StartChar: uacute
Encoding: 250 250 239
GlifName: uacute
Width: 527
VWidth: 0
Flags: HMW
LayerCount: 2
Fore
SplineSet
286 0 m 1
 445 460 l 1
 574 460 l 1
 416 0 l 1
 286 0 l 1
195 180 m 1
 184 143 177 94 228 89 c 0
 283 84 324 138 349 178 c 1
 383 183 l 1
 345 90 275 -9 163 -10 c 0
 57 -11 36 78 61 165 c 1
 162 460 l 1
 293 459 l 1
 195 180 l 1
577 685 m 1
 362 542 l 1
 296 585 l 1
 488 739 l 1
 577 685 l 1
EndSplineSet
EndChar

StartChar: ucircumflex
Encoding: 251 251 240
GlifName: ucircumflex
Width: 527
VWidth: 0
Flags: HMW
LayerCount: 2
Fore
SplineSet
286 0 m 1
 445 460 l 1
 574 460 l 1
 416 0 l 1
 286 0 l 1
195 180 m 1
 184 143 177 94 228 89 c 0
 283 84 324 138 349 178 c 1
 383 183 l 1
 345 90 275 -9 163 -10 c 0
 57 -11 36 78 61 165 c 1
 162 460 l 1
 293 459 l 1
 195 180 l 1
431 628 m 1
 310 542 l 1
 238 609 l 1
 457 744 l 1
 593 600 l 1
 491 541 l 1
 431 628 l 1
EndSplineSet
EndChar

StartChar: udieresis
Encoding: 252 252 241
GlifName: udieresis
Width: 527
VWidth: 0
Flags: HMW
LayerCount: 2
Fore
SplineSet
286 0 m 1
 445 460 l 1
 574 460 l 1
 416 0 l 1
 286 0 l 1
195 180 m 1
 184 143 177 94 228 89 c 0
 283 84 324 138 349 178 c 1
 383 183 l 1
 345 90 275 -9 163 -10 c 0
 57 -11 36 78 61 165 c 1
 162 460 l 1
 293 459 l 1
 195 180 l 1
454 618 m 0
 464 655 511 691 549 689 c 0
 589 687 616 652 606 613 c 0
 596 576 547 540 509 542 c 0
 469 544 444 579 454 618 c 0
236 618 m 0
 246 655 293 691 331 689 c 0
 371 687 397 652 387 613 c 0
 377 576 329 540 291 542 c 0
 251 544 226 579 236 618 c 0
EndSplineSet
EndChar

StartChar: yacute
Encoding: 253 253 242
GlifName: yacute
Width: 468
VWidth: 0
Flags: HMW
LayerCount: 2
Fore
SplineSet
586 459 m 1
 69 -219 l 1
 -69 -219 l 1
 138 52 l 1
 98 460 l 1
 234 460 l 1
 248 93 l 1
 183 96 l 1
 445 459 l 1
 586 459 l 1
562 685 m 1
 346 543 l 1
 281 585 l 1
 472 739 l 1
 562 685 l 1
EndSplineSet
EndChar

StartChar: thorn
Encoding: 254 254 243
GlifName: thorn
Width: 567
VWidth: 0
Flags: HMW
LayerCount: 2
Fore
SplineSet
55 -219 m 1
 -76 -220 l 1
 268 780 l 1
 396 779 l 1
 55 -219 l 1
564 230 m 0
 527 110 414 -11 281 -10 c 0
 149 -9 133 130 165 230 c 0
 201 344 297 468 427 469 c 0
 560 470 598 339 564 230 c 0
432 230 m 0
 453 285 439 359 368 360 c 0
 297 361 229 292 206 230 c 0
 187 177 197 104 265 100 c 0
 338 96 408 167 432 230 c 0
EndSplineSet
EndChar

StartChar: ydieresis
Encoding: 255 255 244
GlifName: ydieresis
Width: 468
VWidth: 0
Flags: HMW
LayerCount: 2
Fore
SplineSet
586 459 m 1
 69 -219 l 1
 -69 -219 l 1
 138 52 l 1
 98 460 l 1
 234 460 l 1
 248 93 l 1
 183 96 l 1
 445 459 l 1
 586 459 l 1
420 607 m 0
 430 644 479 681 517 679 c 0
 557 677 582 642 572 603 c 0
 562 566 514 529 476 531 c 0
 436 533 410 568 420 607 c 0
202 607 m 0
 212 644 260 681 298 679 c 0
 338 677 364 642 354 603 c 0
 344 566 296 529 258 531 c 0
 218 533 192 568 202 607 c 0
EndSplineSet
EndChar

StartChar: Amacron
Encoding: 256 256 245
GlifName: A_macron
Width: 671
VWidth: 0
Flags: HMW
LayerCount: 2
Fore
SplineSet
161 156 m 1
 215 270 l 1
 538 271 l 1
 513 155 l 1
 161 156 l 1
448 469 m 1
 267 229 l 1
 260 196 l 1
 107 0 l 1
 -61 0 l 1
 534 746 l 1
 616 0 l 1
 463 0 l 1
 443 191 l 1
 459 228 l 1
 448 469 l 1
382 802 m 1
 422 918 l 1
 771 918 l 1
 731 802 l 1
 382 802 l 1
EndSplineSet
EndChar

StartChar: amacron
Encoding: 257 257 246
GlifName: amacron
Width: 496
VWidth: 0
Flags: HMW
LayerCount: 2
Fore
SplineSet
142 136 m 0
 131 102 156 84 187 82 c 0
 255 78 301 131 333 184 c 1
 331 128 l 1
 292 48 223 -9 130 -9 c 0
 49 -9 -13 44 11 128 c 0
 40 226 147 280 244 280 c 0
 298 280 342 263 381 227 c 1
 361 165 l 1
 330 190 299 205 258 204 c 0
 215 203 156 181 142 136 c 0
170 327 m 1
 150 421 l 1
 214 449 281 473 351 472 c 0
 439 471 528 426 503 325 c 1
 392 0 l 1
 267 0 l 1
 375 304 l 1
 379 343 364 365 322 368 c 0
 270 372 216 347 170 327 c 1
210 544 m 1
 250 659 l 1
 599 659 l 1
 559 543 l 1
 210 544 l 1
EndSplineSet
Substitution2: "alt a" amacron.alt
EndChar

StartChar: breve
Encoding: 728 728 247
GlifName: breve
Width: 513
VWidth: 0
Flags: HMW
LayerCount: 2
Fore
SplineSet
329 850 m 1
 414 850 l 1
 414 819 419 789 457 787 c 0
 498 785 526 819 546 849 c 1
 638 848 l 1
 604 768 539 706 447 706 c 0
 357 706 320 767 329 850 c 1
EndSplineSet
EndChar

StartChar: Abreve
Encoding: 258 258 248
GlifName: A_breve
Width: 671
VWidth: 0
Flags: HMW
LayerCount: 2
Fore
SplineSet
161 156 m 1
 215 270 l 1
 538 271 l 1
 513 155 l 1
 161 156 l 1
448 469 m 1
 267 229 l 1
 260 196 l 1
 107 0 l 1
 -61 0 l 1
 534 746 l 1
 616 0 l 1
 463 0 l 1
 443 191 l 1
 459 228 l 1
 448 469 l 1
449 946 m 1
 534 946 l 1
 533 915 537 886 575 884 c 0
 616 882 644 916 666 945 c 1
 758 944 l 1
 721 864 655 803 563 803 c 0
 472 803 438 864 449 946 c 1
EndSplineSet
EndChar

StartChar: abreve
Encoding: 259 259 249
GlifName: abreve
Width: 496
VWidth: 0
Flags: HMW
LayerCount: 2
Fore
SplineSet
142 136 m 0
 131 102 156 84 187 82 c 0
 255 78 301 131 333 184 c 1
 331 128 l 1
 292 48 223 -9 130 -9 c 0
 49 -9 -13 44 11 128 c 0
 40 226 147 280 244 280 c 0
 298 280 342 263 381 227 c 1
 361 165 l 1
 330 190 299 205 258 204 c 0
 215 203 156 181 142 136 c 0
170 327 m 1
 150 421 l 1
 214 449 281 473 351 472 c 0
 439 471 528 426 503 325 c 1
 392 0 l 1
 267 0 l 1
 375 304 l 1
 379 343 364 365 322 368 c 0
 270 372 216 347 170 327 c 1
273 677 m 1
 359 676 l 1
 358 645 361 616 399 614 c 0
 440 612 469 647 491 676 c 1
 583 674 l 1
 546 595 480 533 388 533 c 0
 297 533 262 595 273 677 c 1
EndSplineSet
Substitution2: "alt a" abreve.alt
EndChar

StartChar: Aogonek
Encoding: 260 260 250
GlifName: A_ogonek
Width: 671
VWidth: 0
Flags: HMW
LayerCount: 2
Fore
SplineSet
161 156 m 1
 215 270 l 1
 538 271 l 1
 513 155 l 1
 161 156 l 1
448 469 m 1
 267 229 l 1
 260 196 l 1
 107 0 l 1
 -61 0 l 1
 534 746 l 1
 616 0 l 1
 463 0 l 1
 443 191 l 1
 459 228 l 1
 448 469 l 1
546 -116 m 1
 559 -183 l 1
 528 -203 496 -219 459 -219 c 0
 400 -219 357 -180 374 -119 c 0
 395 -44 484 -6 547 24 c 1
 585 0 l 1
 548 -24 486 -49 472 -96 c 0
 467 -113 470 -131 490 -135 c 0
 508 -138 531 -124 546 -116 c 1
EndSplineSet
EndChar

StartChar: aogonek
Encoding: 261 261 251
GlifName: aogonek
Width: 496
VWidth: 0
Flags: HMW
LayerCount: 2
Fore
SplineSet
142 136 m 0
 133 103 157 84 187 82 c 0
 255 78 301 132 333 184 c 1
 331 128 l 1
 292 48 223 -9 130 -9 c 0
 48 -9 -12 48 12 132 c 0
 41 230 148 280 244 280 c 0
 298 280 342 263 381 227 c 1
 361 165 l 1
 330 190 299 205 258 204 c 0
 215 203 155 182 142 136 c 0
170 327 m 1
 150 421 l 1
 214 449 281 473 351 472 c 0
 439 471 528 426 503 325 c 1
 392 0 l 1
 267 0 l 1
 375 304 l 1
 379 343 364 365 322 368 c 0
 270 372 216 347 170 327 c 1
332 -116 m 1
 345 -183 l 1
 314 -203 282 -219 245 -219 c 0
 186 -219 142 -180 159 -119 c 0
 180 -44 270 -6 333 24 c 1
 371 0 l 1
 334 -24 272 -49 258 -96 c 0
 253 -113 256 -131 276 -135 c 0
 294 -138 317 -124 332 -116 c 1
EndSplineSet
Substitution2: "alt a" aogonek.alt
EndChar

StartChar: Cacute
Encoding: 262 262 252
GlifName: C_acute
Width: 654
VWidth: 0
Flags: HMW
LayerCount: 2
Fore
SplineSet
250 350 m 0
 212 245 248 130 373 127 c 0
 462 125 543 172 613 220 c 1
 564 57 l 1
 494 14 419 -16 336 -15 c 0
 132 -14 37 167 96 350 c 0
 159 549 354 714 567 715 c 0
 642 716 703 690 758 641 c 1
 708 478 l 1
 671 539 616 573 543 573 c 0
 414 572 294 468 250 350 c 0
771 919 m 1
 556 776 l 1
 490 818 l 1
 682 972 l 1
 771 919 l 1
EndSplineSet
EndChar

StartChar: cacute
Encoding: 263 263 253
GlifName: cacute
Width: 459
VWidth: 0
Flags: HMW
LayerCount: 2
Fore
SplineSet
181 230 m 0
 158 168 180 103 252 100 c 0
 313 97 370 133 416 169 c 1
 376 36 l 1
 329 9 278 -9 222 -9 c 0
 87 -8 11 102 50 230 c 0
 91 366 227 468 369 469 c 0
 420 469 464 454 504 424 c 1
 462 290 l 1
 442 335 410 362 358 361 c 0
 283 360 207 299 181 230 c 0
574 675 m 1
 358 532 l 1
 292 574 l 1
 483 728 l 1
 574 675 l 1
EndSplineSet
EndChar

StartChar: Ccircumflex
Encoding: 264 264 254
GlifName: C_circumflex
Width: 654
VWidth: 0
Flags: HMW
LayerCount: 2
Fore
SplineSet
250 350 m 0
 212 245 248 130 373 127 c 0
 462 125 543 172 613 220 c 1
 564 57 l 1
 494 14 419 -16 336 -15 c 0
 132 -14 37 167 96 350 c 0
 159 549 354 714 567 715 c 0
 642 716 703 690 758 641 c 1
 708 478 l 1
 671 539 616 573 543 573 c 0
 414 572 294 468 250 350 c 0
633 861 m 1
 512 775 l 1
 441 842 l 1
 659 977 l 1
 795 833 l 1
 693 774 l 1
 633 861 l 1
EndSplineSet
EndChar

StartChar: ccircumflex
Encoding: 265 265 255
GlifName: ccircumflex
Width: 459
VWidth: 0
Flags: HMW
LayerCount: 2
Fore
SplineSet
181 230 m 0
 158 168 180 103 252 100 c 0
 313 97 370 133 416 169 c 1
 376 36 l 1
 329 9 278 -9 222 -9 c 0
 87 -8 11 102 50 230 c 0
 91 366 227 468 369 469 c 0
 420 469 464 454 504 424 c 1
 462 290 l 1
 442 335 410 362 358 361 c 0
 283 360 207 299 181 230 c 0
414 617 m 1
 292 531 l 1
 221 598 l 1
 439 733 l 1
 575 589 l 1
 474 530 l 1
 414 617 l 1
EndSplineSet
EndChar

StartChar: Cdotaccent
Encoding: 266 266 256
GlifName: C_dotaccent
Width: 654
VWidth: 0
Flags: HMW
LayerCount: 2
Fore
SplineSet
250 350 m 0
 212 245 248 130 373 127 c 0
 462 125 543 172 613 220 c 1
 564 57 l 1
 494 14 419 -16 336 -15 c 0
 132 -14 37 167 96 350 c 0
 159 549 354 714 567 715 c 0
 642 716 703 690 758 641 c 1
 708 478 l 1
 671 539 616 573 543 573 c 0
 414 572 294 468 250 350 c 0
529 852 m 0
 539 889 587 925 625 923 c 0
 665 921 691 886 681 847 c 0
 671 810 622 774 584 776 c 0
 544 778 519 813 529 852 c 0
EndSplineSet
EndChar

StartChar: cdotaccent
Encoding: 267 267 257
GlifName: cdotaccent
Width: 459
VWidth: 0
Flags: HMW
LayerCount: 2
Fore
SplineSet
181 230 m 0
 158 168 180 103 252 100 c 0
 313 97 370 133 416 169 c 1
 376 36 l 1
 329 9 278 -9 222 -9 c 0
 87 -8 11 102 50 230 c 0
 91 366 227 468 369 469 c 0
 420 469 464 454 504 424 c 1
 462 290 l 1
 442 335 410 362 358 361 c 0
 283 360 207 299 181 230 c 0
332 612 m 0
 342 649 391 685 429 683 c 0
 469 681 494 646 484 607 c 0
 474 570 426 534 388 536 c 0
 348 538 322 573 332 612 c 0
EndSplineSet
EndChar

StartChar: Ccaron
Encoding: 268 268 258
GlifName: C_caron
Width: 654
VWidth: 0
Flags: HMW
LayerCount: 2
Fore
SplineSet
250 350 m 0
 212 245 248 130 373 127 c 0
 462 125 543 172 613 220 c 1
 564 57 l 1
 494 14 419 -16 336 -15 c 0
 132 -14 37 167 96 350 c 0
 159 549 354 714 567 715 c 0
 642 716 703 690 758 641 c 1
 708 478 l 1
 671 539 616 573 543 573 c 0
 414 572 294 468 250 350 c 0
629 891 m 1
 750 977 l 1
 821 910 l 1
 603 775 l 1
 467 919 l 1
 569 978 l 1
 629 891 l 1
EndSplineSet
EndChar

StartChar: ccaron
Encoding: 269 269 259
GlifName: ccaron
Width: 459
VWidth: 0
Flags: HMW
LayerCount: 2
Fore
SplineSet
181 230 m 0
 158 168 180 103 252 100 c 0
 313 97 370 133 416 169 c 1
 376 36 l 1
 329 9 278 -9 222 -9 c 0
 87 -8 11 102 50 230 c 0
 91 366 227 468 369 469 c 0
 420 469 464 454 504 424 c 1
 462 290 l 1
 442 335 410 362 358 361 c 0
 283 360 207 299 181 230 c 0
410 647 m 1
 530 733 l 1
 602 666 l 1
 383 530 l 1
 247 675 l 1
 349 734 l 1
 410 647 l 1
EndSplineSet
EndChar

StartChar: Dcaron
Encoding: 270 270 260
GlifName: D_caron
Width: 675
VWidth: 0
Flags: HMW
LayerCount: 2
Fore
SplineSet
253 699 m 1
 401 700 l 1
 160 0 l 1
 16 0 l 1
 253 699 l 1
251 0 m 0
 103 0 l 1
 149 133 l 1
 275 133 l 0
 408 138 518 226 564 350 c 0
 606 462 566 561 439 567 c 1
 296 568 l 1
 343 700 l 1
 472 700 l 0
 672 694 770 537 710 350 c 0
 647 150 461 6 251 0 c 0
584 891 m 1
 705 977 l 1
 776 910 l 1
 558 775 l 1
 423 919 l 1
 524 978 l 1
 584 891 l 1
EndSplineSet
EndChar

StartChar: dcaron
Encoding: 271 271 261
GlifName: dcaron
Width: 567
VWidth: 0
Flags: HMW
LayerCount: 2
Fore
SplineSet
596 779 m 1
 727 780 l 1
 458 0 l 1
 331 0 l 1
 596 779 l 1
52 230 m 0
 89 350 204 471 337 470 c 0
 469 469 483 330 451 230 c 0
 415 116 320 -8 190 -9 c 0
 57 -10 18 121 52 230 c 0
185 230 m 0
 164 175 178 101 249 100 c 0
 320 99 387 168 410 230 c 0
 429 283 420 356 352 360 c 0
 279 364 209 293 185 230 c 0
829 778 m 1
 953 744 l 1
 754 500 l 1
 659 524 l 1
 829 778 l 1
EndSplineSet
EndChar

StartChar: Dcroat
Encoding: 272 272 262
GlifName: D_croat
Width: 675
VWidth: 0
Flags: HMW
LayerCount: 2
Fore
SplineSet
52 301 m 1
 84 394 l 1
 401 394 l 1
 368 301 l 1
 52 301 l 1
253 699 m 1
 401 700 l 1
 160 0 l 1
 16 0 l 1
 253 699 l 1
251 0 m 0
 103 0 l 1
 149 133 l 1
 275 133 l 0
 408 138 518 226 564 350 c 0
 606 462 566 561 439 567 c 1
 296 568 l 1
 343 700 l 1
 472 700 l 0
 672 694 770 537 710 350 c 0
 647 150 461 6 251 0 c 0
EndSplineSet
EndChar

StartChar: dcroat
Encoding: 273 273 263
GlifName: dcroat
Width: 567
VWidth: 0
Flags: HMW
LayerCount: 2
Fore
SplineSet
417 572 m 1
 449 665 l 1
 775 665 l 1
 742 572 l 1
 417 572 l 1
596 779 m 1
 727 780 l 1
 458 0 l 1
 331 0 l 1
 596 779 l 1
52 230 m 0
 89 350 204 471 337 470 c 0
 469 469 483 330 451 230 c 0
 415 116 320 -8 190 -9 c 0
 57 -10 18 121 52 230 c 0
185 230 m 0
 164 175 178 101 249 100 c 0
 320 99 387 168 410 230 c 0
 429 283 420 356 352 360 c 0
 279 364 209 293 185 230 c 0
EndSplineSet
EndChar

StartChar: Emacron
Encoding: 274 274 264
GlifName: E_macron
Width: 553
VWidth: 0
Flags: HMW
LayerCount: 2
Fore
SplineSet
104 0 m 1
 147 123 l 1
 484 123 l 1
 441 0 l 1
 104 0 l 1
302 577 m 1
 344 700 l 1
 680 700 l 1
 638 577 l 1
 302 577 l 1
210 311 m 1
 252 431 l 1
 570 431 l 1
 528 310 l 1
 210 311 l 1
253 699 m 1
 393 700 l 1
 152 0 l 1
 16 0 l 1
 253 699 l 1
318 775 m 1
 358 890 l 1
 707 890 l 1
 667 775 l 1
 318 775 l 1
EndSplineSet
EndChar

StartChar: emacron
Encoding: 275 275 265
GlifName: emacron
Width: 524
VWidth: 0
Flags: HMW
LayerCount: 2
Fore
SplineSet
118 202 m 1
 143 280 l 1
 398 281 l 1
 405 327 402 373 345 376 c 0
 273 380 221 312 193 255 c 2
 181 230 l 1
 160 173 159 96 235 91 c 0
 288 88 336 123 374 155 c 1
 479 117 l 1
 409 43 322 -10 217 -9 c 0
 80 -7 16 104 53 230 c 0
 58 247 64 263 72 279 c 0
 125 390 240 470 364 469 c 0
 503 468 555 361 521 236 c 0
 518 224 515 214 511 202 c 1
 118 202 l 1
220 531 m 1
 260 646 l 1
 609 646 l 1
 568 530 l 1
 220 531 l 1
EndSplineSet
EndChar

StartChar: Ebreve
Encoding: 276 276 266
GlifName: E_breve
Width: 553
VWidth: 0
Flags: HMW
LayerCount: 2
Fore
SplineSet
104 0 m 1
 147 123 l 1
 484 123 l 1
 441 0 l 1
 104 0 l 1
302 577 m 1
 344 700 l 1
 680 700 l 1
 638 577 l 1
 302 577 l 1
210 311 m 1
 252 431 l 1
 570 431 l 1
 528 310 l 1
 210 311 l 1
253 699 m 1
 393 700 l 1
 152 0 l 1
 16 0 l 1
 253 699 l 1
384 919 m 1
 470 919 l 1
 469 888 472 858 510 856 c 0
 551 854 580 889 602 918 c 1
 695 917 l 1
 658 837 591 776 499 776 c 0
 408 776 373 837 384 919 c 1
EndSplineSet
EndChar

StartChar: ebreve
Encoding: 277 277 267
GlifName: ebreve
Width: 524
VWidth: 0
Flags: HMW
LayerCount: 2
Fore
SplineSet
118 202 m 1
 143 280 l 1
 398 281 l 1
 405 327 402 373 345 376 c 0
 273 380 221 312 193 255 c 2
 181 230 l 1
 160 173 159 96 235 91 c 0
 288 88 336 123 374 155 c 1
 479 117 l 1
 409 43 322 -10 217 -9 c 0
 80 -7 16 104 53 230 c 0
 58 247 64 263 72 279 c 0
 125 390 240 470 364 469 c 0
 503 468 555 361 521 236 c 0
 518 224 515 214 511 202 c 1
 118 202 l 1
287 675 m 1
 373 674 l 1
 372 643 375 614 413 612 c 0
 454 610 482 645 504 674 c 1
 597 673 l 1
 560 594 493 531 401 531 c 0
 310 531 276 593 287 675 c 1
EndSplineSet
EndChar

StartChar: Edotaccent
Encoding: 278 278 268
GlifName: E_dotaccent
Width: 553
VWidth: 0
Flags: HMW
LayerCount: 2
Fore
SplineSet
104 0 m 1
 147 123 l 1
 484 123 l 1
 441 0 l 1
 104 0 l 1
302 577 m 1
 344 700 l 1
 680 700 l 1
 638 577 l 1
 302 577 l 1
210 311 m 1
 252 431 l 1
 570 431 l 1
 528 310 l 1
 210 311 l 1
253 699 m 1
 393 700 l 1
 152 0 l 1
 16 0 l 1
 253 699 l 1
441 852 m 0
 451 889 499 925 537 923 c 0
 577 921 603 886 593 847 c 0
 583 810 535 774 497 776 c 0
 457 778 431 813 441 852 c 0
EndSplineSet
EndChar

StartChar: edotaccent
Encoding: 279 279 269
GlifName: edotaccent
Width: 524
VWidth: 0
Flags: HMW
LayerCount: 2
Fore
SplineSet
118 202 m 1
 143 280 l 1
 398 281 l 1
 405 327 402 373 345 376 c 0
 273 380 221 312 193 255 c 2
 181 230 l 1
 160 173 159 96 235 91 c 0
 288 88 336 123 374 155 c 1
 479 117 l 1
 409 43 322 -10 217 -9 c 0
 80 -7 16 104 53 230 c 0
 58 247 64 263 72 279 c 0
 125 390 240 470 364 469 c 0
 503 468 555 361 521 236 c 0
 518 224 515 214 511 202 c 1
 118 202 l 1
343 607 m 0
 353 644 401 681 439 679 c 0
 479 677 505 642 495 603 c 0
 485 566 436 529 398 531 c 0
 358 533 333 568 343 607 c 0
EndSplineSet
EndChar

StartChar: Eogonek
Encoding: 280 280 270
GlifName: E_ogonek
Width: 553
VWidth: 0
Flags: HMW
LayerCount: 2
Fore
SplineSet
104 0 m 1
 147 123 l 1
 484 123 l 1
 441 0 l 1
 104 0 l 1
302 577 m 1
 344 700 l 1
 680 700 l 1
 638 577 l 1
 302 577 l 1
210 311 m 1
 252 431 l 1
 570 431 l 1
 528 310 l 1
 210 311 l 1
253 699 m 1
 393 700 l 1
 152 0 l 1
 16 0 l 1
 253 699 l 1
271 -116 m 1
 283 -183 l 1
 252 -203 220 -219 183 -219 c 0
 124 -219 81 -180 98 -119 c 0
 119 -44 208 -6 271 24 c 1
 310 0 l 1
 273 -24 211 -49 197 -96 c 0
 192 -113 195 -131 215 -135 c 0
 233 -138 256 -124 271 -116 c 1
EndSplineSet
EndChar

StartChar: eogonek
Encoding: 281 281 271
GlifName: eogonek
Width: 524
VWidth: 0
Flags: HMW
LayerCount: 2
Fore
SplineSet
118 202 m 1
 143 280 l 1
 398 281 l 1
 405 327 402 373 345 376 c 0
 273 380 221 312 193 255 c 2
 181 230 l 1
 160 173 159 96 235 91 c 0
 288 88 336 123 374 155 c 1
 479 117 l 1
 409 43 322 -10 217 -9 c 0
 80 -7 16 104 53 230 c 0
 58 247 64 263 72 279 c 0
 125 390 240 470 364 469 c 0
 503 468 555 361 521 236 c 0
 518 224 515 214 511 202 c 1
 118 202 l 1
206 -111 m 1
 219 -178 l 1
 189 -198 156 -214 119 -214 c 0
 60 -214 17 -174 34 -113 c 0
 55 -38 144 0 207 30 c 1
 245 1 l 1
 206 -18 146 -44 132 -90 c 0
 127 -107 130 -126 150 -130 c 0
 168 -133 191 -119 206 -111 c 1
EndSplineSet
EndChar

StartChar: Ecaron
Encoding: 282 282 272
GlifName: E_caron
Width: 553
VWidth: 0
Flags: HMW
LayerCount: 2
Fore
SplineSet
104 0 m 1
 147 123 l 1
 484 123 l 1
 441 0 l 1
 104 0 l 1
302 577 m 1
 344 700 l 1
 680 700 l 1
 638 577 l 1
 302 577 l 1
210 311 m 1
 252 431 l 1
 570 431 l 1
 528 310 l 1
 210 311 l 1
253 699 m 1
 393 700 l 1
 152 0 l 1
 16 0 l 1
 253 699 l 1
524 891 m 1
 645 977 l 1
 716 910 l 1
 498 775 l 1
 363 919 l 1
 464 978 l 1
 524 891 l 1
EndSplineSet
EndChar

StartChar: ecaron
Encoding: 283 283 273
GlifName: ecaron
Width: 524
VWidth: 0
Flags: HMW
LayerCount: 2
Fore
SplineSet
118 202 m 1
 143 280 l 1
 398 281 l 1
 405 327 402 373 345 376 c 0
 273 380 221 312 193 255 c 2
 181 230 l 1
 160 173 159 96 235 91 c 0
 288 88 336 123 374 155 c 1
 479 117 l 1
 409 43 322 -10 217 -9 c 0
 80 -7 16 104 53 230 c 0
 58 247 64 263 72 279 c 0
 125 390 240 470 364 469 c 0
 503 468 555 361 521 236 c 0
 518 224 515 214 511 202 c 1
 118 202 l 1
426 647 m 1
 547 733 l 1
 618 666 l 1
 400 530 l 1
 265 675 l 1
 366 734 l 1
 426 647 l 1
EndSplineSet
EndChar

StartChar: Gcircumflex
Encoding: 284 284 274
GlifName: G_circumflex
Width: 755
VWidth: 0
Flags: HMW
LayerCount: 2
Fore
SplineSet
422 259 m 1
 464 375 l 1
 790 374 l 1
 728 173 560 -19 335 -19 c 0
 128 -19 37 167 96 350 c 0
 160 550 357 715 572 715 c 0
 688 715 772 655 819 551 c 1
 680 482 l 1
 658 546 615 583 545 583 c 0
 410 585 290 470 245 350 c 0
 206 244 233 114 366 112 c 0
 472 111 553 183 614 260 c 1
 422 259 l 1
638 861 m 1
 516 775 l 1
 446 842 l 1
 664 977 l 1
 799 833 l 1
 698 774 l 1
 638 861 l 1
EndSplineSet
EndChar

StartChar: gcircumflex
Encoding: 285 285 275
GlifName: gcircumflex
Width: 563
VWidth: 0
Flags: HMW
LayerCount: 2
Fore
SplineSet
-29 -32 m 1
 92 -33 l 1
 88 -87 103 -126 164 -127 c 0
 243 -129 305 -57 332 10 c 1
 487 460 l 1
 613 460 l 1
 459 10 l 2
 410 -124 298 -235 149 -236 c 0
 20 -237 -46 -157 -29 -32 c 1
54 235 m 0
 91 355 205 471 337 470 c 0
 468 469 485 335 453 234 c 0
 418 121 322 1 193 -0 c 0
 61 -1 20 125 54 235 c 0
187 234 m 0
 166 177 183 111 252 109 c 0
 322 107 390 174 412 235 c 0
 431 289 419 356 352 360 c 0
 280 364 210 297 187 234 c 0
450 617 m 1
 328 531 l 1
 257 598 l 1
 476 733 l 1
 611 589 l 1
 509 530 l 1
 450 617 l 1
EndSplineSet
EndChar

StartChar: Gbreve
Encoding: 286 286 276
GlifName: G_breve
Width: 755
VWidth: 0
Flags: HMW
LayerCount: 2
Fore
SplineSet
422 259 m 1
 464 375 l 1
 790 374 l 1
 728 173 560 -19 335 -19 c 0
 128 -19 37 167 96 350 c 0
 160 550 357 715 572 715 c 0
 688 715 772 655 819 551 c 1
 680 482 l 1
 658 546 615 583 545 583 c 0
 410 585 290 470 245 350 c 0
 206 244 233 114 366 112 c 0
 472 111 553 183 614 260 c 1
 422 259 l 1
494 919 m 1
 580 919 l 1
 579 888 582 858 620 856 c 0
 661 854 690 889 712 918 c 1
 804 917 l 1
 767 837 701 776 609 776 c 0
 518 776 483 837 494 919 c 1
EndSplineSet
EndChar

StartChar: gbreve
Encoding: 287 287 277
GlifName: gbreve
Width: 563
VWidth: 0
Flags: HMW
LayerCount: 2
Fore
SplineSet
-29 -32 m 1
 92 -33 l 1
 88 -87 103 -126 164 -127 c 0
 243 -129 305 -57 332 10 c 1
 487 460 l 1
 613 460 l 1
 459 10 l 2
 410 -124 298 -235 149 -236 c 0
 20 -237 -46 -157 -29 -32 c 1
54 235 m 0
 91 355 205 471 337 470 c 0
 468 469 485 335 453 234 c 0
 418 121 322 1 193 -0 c 0
 61 -1 20 125 54 235 c 0
187 234 m 0
 166 177 183 111 252 109 c 0
 322 107 390 174 412 235 c 0
 431 289 419 356 352 360 c 0
 280 364 210 297 187 234 c 0
307 675 m 1
 392 674 l 1
 391 643 394 614 432 612 c 0
 473 610 501 645 523 674 c 1
 616 673 l 1
 579 594 512 531 420 531 c 0
 329 531 296 593 307 675 c 1
EndSplineSet
EndChar

StartChar: Gdotaccent
Encoding: 288 288 278
GlifName: G_dotaccent
Width: 755
VWidth: 0
Flags: HMW
LayerCount: 2
Fore
SplineSet
422 259 m 1
 464 375 l 1
 790 374 l 1
 728 173 560 -19 335 -19 c 0
 128 -19 37 167 96 350 c 0
 160 550 357 715 572 715 c 0
 688 715 772 655 819 551 c 1
 680 482 l 1
 658 546 615 583 545 583 c 0
 410 585 290 470 245 350 c 0
 206 244 233 114 366 112 c 0
 472 111 553 183 614 260 c 1
 422 259 l 1
551 852 m 0
 561 889 608 925 646 923 c 0
 686 921 713 886 703 847 c 0
 693 810 645 774 607 776 c 0
 567 778 541 813 551 852 c 0
EndSplineSet
EndChar

StartChar: gdotaccent
Encoding: 289 289 279
GlifName: gdotaccent
Width: 563
VWidth: 0
Flags: HMW
LayerCount: 2
Fore
SplineSet
-29 -32 m 1
 92 -33 l 1
 88 -87 103 -126 164 -127 c 0
 243 -129 305 -57 332 10 c 1
 487 460 l 1
 613 460 l 1
 459 10 l 2
 410 -124 298 -235 149 -236 c 0
 20 -237 -46 -157 -29 -32 c 1
54 235 m 0
 91 355 205 471 337 470 c 0
 468 469 485 335 453 234 c 0
 418 121 322 1 193 -0 c 0
 61 -1 20 125 54 235 c 0
187 234 m 0
 166 177 183 111 252 109 c 0
 322 107 390 174 412 235 c 0
 431 289 419 356 352 360 c 0
 280 364 210 297 187 234 c 0
367 629 m 0
 377 666 425 702 463 700 c 0
 503 698 529 663 519 624 c 0
 509 587 461 551 423 553 c 0
 383 555 357 590 367 629 c 0
EndSplineSet
EndChar

StartChar: uni0122
Encoding: 290 290 280
GlifName: uni0122
Width: 755
VWidth: 0
Flags: HMW
LayerCount: 2
Fore
SplineSet
422 259 m 1
 464 375 l 1
 790 374 l 1
 728 173 560 -19 335 -19 c 0
 128 -19 37 167 96 350 c 0
 160 550 357 715 572 715 c 0
 688 715 772 655 819 551 c 1
 680 482 l 1
 658 546 615 583 545 583 c 0
 410 585 290 470 245 350 c 0
 206 244 233 114 366 112 c 0
 472 111 553 183 614 260 c 1
 422 259 l 1
258 -81 m 1
 382 -115 l 1
 182 -359 l 1
 88 -335 l 1
 258 -81 l 1
EndSplineSet
EndChar

StartChar: Hcircumflex
Encoding: 292 292 281
GlifName: H_circumflex
Width: 721
VWidth: 0
Flags: HMW
LayerCount: 2
Fore
SplineSet
164 306 m 1
 209 438 l 1
 700 438 l 1
 654 306 l 1
 164 306 l 1
695 699 m 1
 840 700 l 1
 598 0 l 1
 458 0 l 1
 695 699 l 1
253 699 m 1
 397 700 l 1
 156 0 l 1
 16 0 l 1
 253 699 l 1
608 861 m 1
 487 775 l 1
 416 842 l 1
 634 977 l 1
 770 833 l 1
 669 774 l 1
 608 861 l 1
EndSplineSet
EndChar

StartChar: hcircumflex
Encoding: 293 293 282
GlifName: hcircumflex
Width: 523
VWidth: 0
Flags: HMW
LayerCount: 2
Fore
SplineSet
400 780 m 1
 132 0 l 1
 3 0 l 1
 270 780 l 1
 400 780 l 1
382 280 m 1
 393 317 400 366 349 371 c 0
 294 376 253 322 228 282 c 1
 195 282 l 1
 233 375 303 473 415 474 c 0
 522 475 538 385 513 299 c 0
 411 0 l 1
 284 0 l 1
 382 280 l 1
459 926 m 1
 338 841 l 1
 267 908 l 1
 485 1043 l 1
 621 898 l 1
 520 840 l 1
 459 926 l 1
EndSplineSet
EndChar

StartChar: Itilde
Encoding: 296 296 283
GlifName: I_tilde
Width: 281
VWidth: 0
Flags: HMW
LayerCount: 2
Fore
SplineSet
253 699 m 1
 399 700 l 1
 158 0 l 1
 16 0 l 1
 253 699 l 1
193 836 m 1
 224 878 269 926 326 923 c 0
 368 921 392 871 434 874 c 0
 465 876 491 905 513 924 c 1
 559 855 l 1
 524 819 473 774 418 778 c 0
 377 781 351 832 309 827 c 0
 279 824 260 799 243 778 c 1
 193 836 l 1
EndSplineSet
EndChar

StartChar: itilde
Encoding: 297 297 284
GlifName: itilde
Width: 255
VWidth: 0
Flags: HMW
LayerCount: 2
Fore
SplineSet
167 459 m 1
 295 460 l 1
 135 0 l 1
 11 0 l 1
 167 459 l 1
96 592 m 1
 127 634 172 681 229 678 c 0
 271 676 295 627 337 630 c 0
 368 632 395 661 417 680 c 1
 462 611 l 1
 427 575 376 530 321 534 c 0
 280 537 255 588 213 583 c 0
 183 580 164 555 147 534 c 1
 96 592 l 1
EndSplineSet
EndChar

StartChar: Imacron
Encoding: 298 298 285
GlifName: I_macron
Width: 281
VWidth: 0
Flags: HMW
LayerCount: 2
Fore
SplineSet
253 699 m 1
 399 700 l 1
 158 0 l 1
 16 0 l 1
 253 699 l 1
177 775 m 1
 217 890 l 1
 567 890 l 1
 526 775 l 1
 177 775 l 1
EndSplineSet
EndChar

StartChar: imacron
Encoding: 299 299 286
GlifName: imacron
Width: 255
VWidth: 0
Flags: HMW
LayerCount: 2
Fore
SplineSet
167 459 m 1
 295 460 l 1
 135 0 l 1
 11 0 l 1
 167 459 l 1
81 531 m 1
 121 646 l 1
 470 646 l 1
 430 530 l 1
 81 531 l 1
EndSplineSet
EndChar

StartChar: Ibreve
Encoding: 300 300 287
GlifName: I_breve
Width: 281
VWidth: 0
Flags: HMW
LayerCount: 2
Fore
SplineSet
253 699 m 1
 399 700 l 1
 158 0 l 1
 16 0 l 1
 253 699 l 1
245 919 m 1
 330 919 l 1
 329 888 333 858 371 856 c 0
 412 854 440 889 462 918 c 1
 554 917 l 1
 517 838 451 776 359 776 c 0
 268 776 234 837 245 919 c 1
EndSplineSet
EndChar

StartChar: ibreve
Encoding: 301 301 288
GlifName: ibreve
Width: 255
VWidth: 0
Flags: HMW
LayerCount: 2
Fore
SplineSet
167 459 m 1
 295 460 l 1
 135 0 l 1
 11 0 l 1
 167 459 l 1
147 675 m 1
 233 674 l 1
 232 643 235 614 273 612 c 0
 314 610 343 645 365 674 c 1
 457 673 l 1
 420 594 354 531 262 531 c 0
 171 531 136 593 147 675 c 1
EndSplineSet
EndChar

StartChar: Iogonek
Encoding: 302 302 289
GlifName: I_ogonek
Width: 281
VWidth: 0
Flags: HMW
LayerCount: 2
Fore
SplineSet
253 699 m 1
 399 700 l 1
 158 0 l 1
 16 0 l 1
 253 699 l 1
101 -115 m 1
 115 -182 l 1
 84 -202 52 -218 15 -218 c 0
 -44 -218 -88 -178 -71 -117 c 0
 -50 -42 39 -4 102 26 c 1
 141 -1 l 1
 102 -23 42 -48 28 -95 c 0
 23 -112 26 -130 46 -134 c 0
 64 -137 86 -123 101 -115 c 1
EndSplineSet
EndChar

StartChar: iogonek
Encoding: 303 303 290
GlifName: iogonek
Width: 255
VWidth: 0
Flags: HMW
LayerCount: 2
Fore
SplineSet
215 640 m 0
 225 677 273 713 311 711 c 0
 351 709 378 674 368 635 c 0
 358 598 309 562 271 564 c 0
 231 566 205 601 215 640 c 0
167 459 m 1
 295 460 l 1
 135 0 l 1
 11 0 l 1
 167 459 l 1
79 -116 m 1
 92 -183 l 1
 61 -203 30 -219 -7 -219 c 0
 -66 -219 -110 -180 -93 -119 c 0
 -72 -44 18 -6 81 24 c 1
 118 0 l 1
 81 -24 19 -49 5 -96 c 0
 0 -113 4 -131 24 -135 c 0
 42 -138 64 -124 79 -116 c 1
EndSplineSet
EndChar

StartChar: Idotaccent
Encoding: 304 304 291
GlifName: I_dotaccent
Width: 281
VWidth: 0
Flags: HMW
LayerCount: 2
Fore
SplineSet
253 699 m 1
 399 700 l 1
 158 0 l 1
 16 0 l 1
 253 699 l 1
300 852 m 0
 310 889 359 925 397 923 c 0
 437 921 462 886 452 847 c 0
 442 810 394 774 356 776 c 0
 316 778 290 813 300 852 c 0
EndSplineSet
EndChar

StartChar: uni0136
Encoding: 310 310 292
GlifName: uni0136
Width: 623
VWidth: 0
Flags: HMW
LayerCount: 2
Fore
SplineSet
253 699 m 1
 401 700 l 1
 160 0 l 1
 16 0 l 1
 253 699 l 1
624 699 m 1
 802 699 l 1
 409 366 l 1
 566 0 l 1
 406 0 l 1
 244 375 l 1
 624 699 l 1
229 -62 m 1
 354 -96 l 1
 154 -340 l 1
 59 -316 l 1
 229 -62 l 1
EndSplineSet
EndChar

StartChar: uni0137
Encoding: 311 311 293
GlifName: uni0137
Width: 507
VWidth: 0
Flags: HMW
LayerCount: 2
Fore
SplineSet
266 779 m 1
 393 780 l 1
 125 0 l 1
 2 0 l 1
 266 779 l 1
431 459 m 1
 596 459 l 1
 335 264 l 1
 446 0 l 1
 306 0 l 1
 188 277 l 1
 431 459 l 1
163 -62 m 1
 287 -96 l 1
 87 -340 l 1
 -7 -316 l 1
 163 -62 l 1
EndSplineSet
EndChar

StartChar: Lacute
Encoding: 313 313 294
GlifName: L_acute
Width: 476
VWidth: 0
Flags: HMW
LayerCount: 2
Fore
SplineSet
254 700 m 1
 397 700 l 1
 201 128 l 1
 464 128 l 1
 419 0 l 1
 14 0 l 1
 254 700 l 1
679 919 m 1
 463 776 l 1
 397 818 l 1
 588 972 l 1
 679 919 l 1
EndSplineSet
EndChar

StartChar: lacute
Encoding: 314 314 295
GlifName: lacute
Width: 243
VWidth: 0
Flags: HMW
LayerCount: 2
Fore
SplineSet
269 779 m 1
 400 780 l 1
 131 0 l 1
 4 0 l 1
 269 779 l 1
552 984 m 1
 336 842 l 1
 270 884 l 1
 461 1038 l 1
 552 984 l 1
EndSplineSet
EndChar

StartChar: uni013B
Encoding: 315 315 296
GlifName: uni013B_
Width: 476
VWidth: 0
Flags: HMW
LayerCount: 2
Fore
SplineSet
254 700 m 1
 397 700 l 1
 201 128 l 1
 464 128 l 1
 419 0 l 1
 14 0 l 1
 254 700 l 1
171 -62 m 1
 294 -96 l 1
 95 -340 l 1
 0 -316 l 1
 171 -62 l 1
EndSplineSet
EndChar

StartChar: uni013C
Encoding: 316 316 297
GlifName: uni013C_
Width: 243
VWidth: 0
Flags: HMW
LayerCount: 2
Fore
SplineSet
269 779 m 1
 400 780 l 1
 131 0 l 1
 4 0 l 1
 269 779 l 1
21 -62 m 1
 145 -96 l 1
 -54 -340 l 1
 -149 -316 l 1
 21 -62 l 1
EndSplineSet
EndChar

StartChar: Lcaron
Encoding: 317 317 298
GlifName: L_caron
Width: 476
VWidth: 0
Flags: HMW
LayerCount: 2
Fore
SplineSet
254 700 m 1
 397 700 l 1
 201 128 l 1
 464 128 l 1
 419 0 l 1
 14 0 l 1
 254 700 l 1
551 713 m 1
 674 679 l 1
 476 435 l 1
 381 458 l 1
 551 713 l 1
EndSplineSet
EndChar

StartChar: lcaron
Encoding: 318 318 299
GlifName: lcaron
Width: 243
VWidth: 0
Flags: HMW
LayerCount: 2
Fore
SplineSet
269 779 m 1
 400 780 l 1
 131 0 l 1
 4 0 l 1
 269 779 l 1
521 778 m 1
 645 744 l 1
 446 500 l 1
 351 524 l 1
 521 778 l 1
EndSplineSet
EndChar

StartChar: Ldot
Encoding: 319 319 300
GlifName: L_dot
Width: 476
VWidth: 0
Flags: HMW
LayerCount: 2
Fore
SplineSet
254 700 m 1
 397 700 l 1
 201 128 l 1
 464 128 l 1
 419 0 l 1
 14 0 l 1
 254 700 l 1
376 428 m 0
 387 468 437 510 479 508 c 0
 523 506 549 465 538 424 c 0
 527 384 476 343 434 345 c 0
 390 347 365 387 376 428 c 0
EndSplineSet
EndChar

StartChar: ldot
Encoding: 320 320 301
GlifName: ldot
Width: 421
VWidth: 0
Flags: HMW
LayerCount: 2
Fore
SplineSet
269 779 m 1
 400 780 l 1
 131 0 l 1
 4 0 l 1
 269 779 l 1
312 412 m 0
 323 452 373 494 415 492 c 0
 459 490 484 449 473 408 c 0
 462 368 412 327 370 329 c 0
 326 331 301 371 312 412 c 0
EndSplineSet
EndChar

StartChar: eth
Encoding: 240 240 302
GlifName: eth
Width: 605
VWidth: 0
Flags: HMW
LayerCount: 2
Fore
SplineSet
451 242 m 0
 473 300 455 371 383 372 c 0
 308 374 236 308 211 241 c 0
 189 182 209 114 280 113 c 0
 354 112 426 175 451 242 c 0
474 698 m 1
 579 423 l 2
 601 364 609 302 590 241 c 0
 546 98 405 -14 253 -14 c 0
 107 -14 29 106 72 242 c 0
 108 357 221 467 346 469 c 0
 390 470 419 452 449 422 c 1
 429 434 l 1
 308 698 l 1
 474 698 l 1
257 521 m 1
 280 594 l 1
 660 594 l 1
 637 521 l 1
 257 521 l 1
EndSplineSet
EndChar

StartChar: racute
Encoding: 341 341 303
GlifName: racute
Width: 369
VWidth: 0
Flags: HMW
LayerCount: 2
Fore
SplineSet
288 460 m 1
 129 0 l 1
 2 0 l 1
 161 460 l 1
 288 460 l 1
371 323 m 1
 357 335 344 346 324 347 c 0
 267 349 235 285 213 242 c 1
 188 282 l 1
 221 361 286 472 386 470 c 0
 419 470 439 453 461 431 c 1
 371 323 l 1
536 675 m 1
 320 532 l 1
 255 575 l 1
 446 729 l 1
 536 675 l 1
EndSplineSet
EndChar

StartChar: rcaron
Encoding: 345 345 304
GlifName: rcaron
Width: 369
VWidth: 0
Flags: HMW
LayerCount: 2
Fore
SplineSet
288 460 m 1
 129 0 l 1
 2 0 l 1
 161 460 l 1
 288 460 l 1
371 323 m 1
 357 335 344 346 324 347 c 0
 267 349 235 285 213 242 c 1
 187 282 l 1
 220 361 286 472 386 470 c 0
 419 470 439 453 461 431 c 1
 371 323 l 1
372 647 m 1
 493 733 l 1
 564 666 l 1
 346 531 l 1
 210 675 l 1
 312 734 l 1
 372 647 l 1
EndSplineSet
EndChar

StartChar: Rcaron
Encoding: 344 344 305
GlifName: R_caron
Width: 586
VWidth: 0
Flags: HMW
LayerCount: 2
Fore
SplineSet
281 325 m 1
 422 325 l 1
 524 0 l 1
 368 0 l 1
 281 325 l 1
253 699 m 1
 397 700 l 1
 156 0 l 1
 16 0 l 1
 253 699 l 1
296 575 m 1
 339 700 l 1
 471 700 l 0
 601 695 694 611 653 476 c 0
 611 337 474 258 335 253 c 0
 184 253 l 1
 226 369 l 1
 350 369 l 1
 415 373 482 408 506 472 c 0
 528 531 494 569 435 574 c 1
 296 575 l 1
523 891 m 1
 644 977 l 1
 714 910 l 1
 496 775 l 1
 360 919 l 1
 463 978 l 1
 523 891 l 1
EndSplineSet
EndChar

StartChar: uni0213
Encoding: 531 531 306
GlifName: uni0213
Width: 369
VWidth: 0
Flags: HMW
LayerCount: 2
Fore
SplineSet
288 460 m 1
 129 0 l 1
 2 0 l 1
 161 460 l 1
 288 460 l 1
371 323 m 1
 357 335 344 346 324 347 c 0
 267 349 235 285 213 242 c 1
 187 282 l 1
 220 361 286 472 386 470 c 0
 419 470 439 453 461 431 c 1
 371 323 l 1
185 530 m 1
 271 531 l 1
 292 561 319 595 360 594 c 0
 401 593 407 565 408 530 c 1
 488 531 l 1
 507 608 487 672 397 674 c 0
 300 676 230 608 185 530 c 1
EndSplineSet
EndChar

StartChar: uni0212
Encoding: 530 530 307
GlifName: uni0212
Width: 586
VWidth: 0
Flags: HMW
LayerCount: 2
Fore
SplineSet
281 325 m 1
 422 325 l 1
 524 0 l 1
 368 0 l 1
 281 325 l 1
253 699 m 1
 397 700 l 1
 156 0 l 1
 16 0 l 1
 253 699 l 1
296 575 m 1
 339 700 l 1
 471 700 l 0
 601 695 694 611 653 476 c 0
 611 337 474 258 335 253 c 0
 184 253 l 1
 226 369 l 1
 350 369 l 1
 415 373 482 408 506 472 c 0
 528 531 494 569 435 574 c 1
 296 575 l 1
349 774 m 1
 436 775 l 1
 457 805 483 838 524 837 c 0
 565 836 572 809 573 774 c 1
 653 775 l 1
 672 852 652 916 562 918 c 0
 465 920 394 852 349 774 c 1
EndSplineSet
EndChar

StartChar: OE
Encoding: 338 338 308
GlifName: O_E_
Width: 926
VWidth: 0
Flags: HMW
LayerCount: 2
Fore
SplineSet
579 311 m 1
 621 431 l 1
 962 431 l 1
 920 310 l 1
 579 311 l 1
635 669 m 1
 775 670 l 1
 554 30 l 1
 417 31 l 1
 635 669 l 1
872 122 m 1
 833 0 l 1
 322 0 l 0
 127 7 40 173 96 350 c 0
 157 542 338 694 542 700 c 0
 1073 700 l 1
 1029 577 l 1
 686 577 l 1
 667 570 l 1
 538 570 l 0
 403 565 289 476 242 350 c 0
 200 236 241 137 370 131 c 0
 498 130 l 1
 518 123 l 1
 872 122 l 1
EndSplineSet
EndChar

StartChar: oe
Encoding: 339 339 309
GlifName: oe
Width: 846
VWidth: 0
Flags: HMW
LayerCount: 2
Fore
SplineSet
715 250 m 2
 731 299 739 371 671 376 c 0
 601 381 546 316 519 260 c 2
 505 230 l 1
 484 174 480 93 558 89 c 0
 611 86 658 123 696 155 c 1
 801 117 l 1
 738 50 653 -10 557 -9 c 0
 425 -7 395 123 427 230 c 0
 432 247 438 263 446 279 c 0
 495 380 598 471 716 469 c 0
 846 467 871 337 842 234 c 0
 839 223 835 213 831 202 c 1
 708 231 l 1
 715 250 l 2
468 202 m 1
 492 280 l 1
 837 280 l 1
 830 201 l 1
 468 202 l 1
55 230 m 0
 93 352 210 470 345 469 c 0
 480 468 498 335 465 230 c 0
 428 113 332 -8 199 -9 c 0
 65 -10 20 117 55 230 c 0
181 230 m 0
 160 175 172 103 243 102 c 0
 313 101 373 169 396 230 c 0
 415 281 414 355 345 358 c 0
 272 362 205 293 181 230 c 0
EndSplineSet
EndChar

StartChar: a.alt
Encoding: 65536 -1 310
GlifName: a.alt
Width: 567
VWidth: 0
Flags: HMW
LayerCount: 2
Fore
SplineSet
489 459 m 1
 618 460 l 1
 458 0 l 1
 333 0 l 1
 489 459 l 1
52 230 m 0
 89 350 204 471 337 470 c 0
 469 469 482 330 450 230 c 0
 414 116 320 -8 190 -9 c 0
 57 -10 18 121 52 230 c 0
185 230 m 0
 164 175 178 101 249 100 c 0
 320 99 386 168 409 230 c 0
 428 283 420 356 352 360 c 0
 279 364 209 293 185 230 c 0
EndSplineSet
EndChar

StartChar: Jcircumflex
Encoding: 308 308 312
GlifName: J_circumflex
Width: 287
VWidth: 0
Flags: HMW
LayerCount: 2
Fore
SplineSet
-153 -75 m 1
 -136 -93 -117 -111 -90 -109 c 0
 -45 -106 -12 -63 5 -25 c 1
 254 700 l 1
 405 700 l 1
 148 -56 l 2
 108 -164 9 -234 -107 -233 c 0
 -165 -232 -213 -210 -258 -176 c 1
 -153 -75 l 1
390 861 m 1
 270 775 l 1
 198 842 l 1
 416 977 l 1
 552 833 l 1
 451 774 l 1
 390 861 l 1
EndSplineSet
EndChar

StartChar: jcircumflex
Encoding: 309 309 313
GlifName: jcircumflex
Width: 250
VWidth: 0
Flags: HMW
LayerCount: 2
Fore
SplineSet
-118 -88 m 1
 -109 -100 -100 -114 -83 -114 c 0
 -46 -114 -21 -67 -8 -38 c 1
 163 460 l 1
 289 460 l 1
 109 -70 l 2
 76 -157 4 -236 -96 -233 c 0
 -140 -232 -169 -212 -199 -183 c 1
 -118 -88 l 1
286 617 m 1
 165 531 l 1
 94 598 l 1
 312 733 l 1
 447 589 l 1
 346 530 l 1
 286 617 l 1
EndSplineSet
EndChar

StartChar: Nacute
Encoding: 323 323 314
GlifName: N_acute
Width: 741
VWidth: 0
Flags: HMW
LayerCount: 2
Fore
SplineSet
721 700 m 1
 859 700 l 1
 608 -32 l 1
 300 430 l 1
 152 0 l 1
 13 0 l 1
 265 732 l 1
 572 270 l 1
 721 700 l 1
777 904 m 1
 561 761 l 1
 495 803 l 1
 686 957 l 1
 777 904 l 1
EndSplineSet
EndChar

StartChar: nacute
Encoding: 324 324 315
GlifName: nacute
Width: 527
VWidth: 0
Flags: HMW
LayerCount: 2
Fore
SplineSet
290 460 m 1
 132 0 l 1
 2 0 l 1
 161 460 l 1
 290 460 l 1
382 280 m 1
 393 317 399 366 348 371 c 0
 293 376 253 322 228 282 c 1
 199 277 l 1
 236 370 302 469 413 470 c 0
 519 471 541 382 516 295 c 1
 415 0 l 1
 284 0 l 1
 382 280 l 1
592 675 m 1
 377 531 l 1
 312 574 l 1
 503 728 l 1
 592 675 l 1
EndSplineSet
EndChar

StartChar: uni0145
Encoding: 325 325 316
GlifName: uni0145
Width: 741
VWidth: 0
Flags: HMW
LayerCount: 2
Fore
SplineSet
275 -51 m 1
 398 -84 l 1
 199 -328 l 1
 105 -305 l 1
 275 -51 l 1
721 700 m 1
 859 700 l 1
 608 -32 l 1
 300 430 l 1
 152 0 l 1
 13 0 l 1
 265 732 l 1
 572 270 l 1
 721 700 l 1
EndSplineSet
EndChar

StartChar: uni0146
Encoding: 326 326 317
GlifName: uni0146
Width: 527
VWidth: 0
Flags: HMW
LayerCount: 2
Fore
SplineSet
290 460 m 1
 132 0 l 1
 2 0 l 1
 161 460 l 1
 290 460 l 1
382 280 m 1
 393 317 399 366 348 371 c 0
 293 376 253 322 228 282 c 1
 194 277 l 1
 232 370 301 469 413 470 c 0
 519 471 541 382 516 295 c 1
 415 0 l 1
 284 0 l 1
 382 280 l 1
163 -62 m 1
 287 -96 l 1
 88 -340 l 1
 -7 -316 l 1
 163 -62 l 1
EndSplineSet
EndChar

StartChar: Ncaron
Encoding: 327 327 318
GlifName: N_caron
Width: 741
VWidth: 0
Flags: HMW
LayerCount: 2
Fore
SplineSet
604 898 m 1
 725 984 l 1
 796 917 l 1
 578 781 l 1
 443 926 l 1
 544 984 l 1
 604 898 l 1
721 700 m 1
 859 700 l 1
 608 -32 l 1
 300 430 l 1
 152 0 l 1
 13 0 l 1
 265 732 l 1
 572 270 l 1
 721 700 l 1
EndSplineSet
EndChar

StartChar: ncaron
Encoding: 328 328 319
GlifName: ncaron
Width: 527
VWidth: 0
Flags: HMW
LayerCount: 2
Fore
SplineSet
290 460 m 1
 132 0 l 1
 2 0 l 1
 161 460 l 1
 290 460 l 1
382 280 m 1
 393 317 399 366 348 371 c 0
 293 376 253 322 228 282 c 1
 194 277 l 1
 232 370 301 469 413 470 c 0
 519 471 541 382 516 295 c 1
 415 0 l 1
 284 0 l 1
 382 280 l 1
423 647 m 1
 545 733 l 1
 615 666 l 1
 397 530 l 1
 261 675 l 1
 362 734 l 1
 423 647 l 1
EndSplineSet
EndChar

StartChar: Omacron
Encoding: 332 332 320
GlifName: O_macron
Width: 764
VWidth: 0
Flags: HMW
LayerCount: 2
Fore
SplineSet
246 350 m 0
 209 249 233 125 361 123 c 0
 492 121 606 235 649 350 c 0
 686 451 662 575 534 577 c 0
 403 579 288 465 246 350 c 0
96 350 m 0
 158 546 352 716 563 715 c 0
 767 714 856 531 799 350 c 0
 737 153 543 -20 330 -19 c 0
 124 -18 39 169 96 350 c 0
419 775 m 1
 459 890 l 1
 808 890 l 1
 767 775 l 1
 419 775 l 1
EndSplineSet
EndChar

StartChar: omacron
Encoding: 333 333 321
GlifName: omacron
Width: 543
VWidth: 0
Flags: HMW
LayerCount: 2
Fore
SplineSet
52 230 m 0
 93 363 228 470 369 470 c 0
 504 470 579 356 540 230 c 0
 499 97 364 -9 223 -9 c 0
 88 -9 13 104 52 230 c 0
183 230 m 0
 162 175 175 104 245 102 c 0
 317 100 385 167 409 230 c 0
 430 285 417 356 347 358 c 0
 275 360 207 293 183 230 c 0
225 531 m 1
 265 646 l 1
 614 646 l 1
 573 530 l 1
 225 531 l 1
EndSplineSet
EndChar

StartChar: Obreve
Encoding: 334 334 322
GlifName: O_breve
Width: 764
VWidth: 0
Flags: HMW
LayerCount: 2
Fore
SplineSet
246 350 m 0
 209 249 233 125 361 123 c 0
 492 121 606 235 649 350 c 0
 686 451 662 575 534 577 c 0
 403 579 288 465 246 350 c 0
96 350 m 0
 158 546 352 716 563 715 c 0
 767 714 856 531 799 350 c 0
 737 153 543 -20 330 -19 c 0
 124 -18 39 169 96 350 c 0
486 919 m 1
 571 919 l 1
 570 888 574 858 612 856 c 0
 653 854 681 889 703 918 c 1
 795 917 l 1
 758 838 692 776 600 776 c 0
 509 776 475 837 486 919 c 1
EndSplineSet
EndChar

StartChar: obreve
Encoding: 335 335 323
GlifName: obreve
Width: 543
VWidth: 0
Flags: HMW
LayerCount: 2
Fore
SplineSet
52 230 m 0
 93 363 228 470 369 470 c 0
 504 470 579 356 540 230 c 0
 499 97 364 -9 223 -9 c 0
 88 -9 13 104 52 230 c 0
183 230 m 0
 162 175 175 104 245 102 c 0
 317 100 385 167 409 230 c 0
 430 285 417 356 347 358 c 0
 275 360 207 293 183 230 c 0
292 675 m 1
 378 674 l 1
 377 643 380 614 418 612 c 0
 459 610 488 645 510 674 c 1
 601 673 l 1
 564 594 499 531 407 531 c 0
 316 531 281 593 292 675 c 1
EndSplineSet
EndChar

StartChar: Racute
Encoding: 340 340 324
GlifName: R_acute
Width: 586
VWidth: 0
Flags: HMW
LayerCount: 2
Fore
SplineSet
281 325 m 1
 422 325 l 1
 524 0 l 1
 368 0 l 1
 281 325 l 1
253 699 m 1
 397 700 l 1
 156 0 l 1
 16 0 l 1
 253 699 l 1
296 575 m 1
 339 700 l 1
 471 700 l 0
 601 695 694 611 653 476 c 0
 611 337 474 258 335 253 c 0
 184 253 l 1
 226 369 l 1
 350 369 l 1
 415 373 482 408 506 472 c 0
 528 531 494 569 435 574 c 1
 296 575 l 1
688 919 m 1
 473 776 l 1
 406 818 l 1
 598 972 l 1
 688 919 l 1
EndSplineSet
EndChar

StartChar: uni0156
Encoding: 342 342 325
GlifName: uni0156
Width: 586
VWidth: 0
Flags: HMW
LayerCount: 2
Fore
SplineSet
281 325 m 1
 422 325 l 1
 524 0 l 1
 368 0 l 1
 281 325 l 1
253 699 m 1
 397 700 l 1
 156 0 l 1
 16 0 l 1
 253 699 l 1
296 575 m 1
 339 700 l 1
 471 700 l 0
 601 695 694 611 653 476 c 0
 611 337 474 258 335 253 c 0
 184 253 l 1
 226 369 l 1
 350 369 l 1
 415 373 482 408 506 472 c 0
 528 531 494 569 435 574 c 1
 296 575 l 1
226 -62 m 1
 349 -96 l 1
 150 -340 l 1
 56 -316 l 1
 226 -62 l 1
EndSplineSet
EndChar

StartChar: uni0157
Encoding: 343 343 326
GlifName: uni0157
Width: 369
VWidth: 0
Flags: HMW
LayerCount: 2
Fore
SplineSet
288 460 m 1
 129 0 l 1
 2 0 l 1
 161 460 l 1
 288 460 l 1
371 323 m 1
 357 335 344 346 324 347 c 0
 267 349 235 285 213 242 c 1
 187 282 l 1
 220 361 286 472 386 470 c 0
 419 470 439 453 461 431 c 1
 371 323 l 1
20 -62 m 1
 144 -96 l 1
 -55 -340 l 1
 -149 -316 l 1
 20 -62 l 1
EndSplineSet
EndChar

StartChar: Scedilla
Encoding: 350 350 327
GlifName: S_cedilla
Width: 568
VWidth: 0
Flags: HMW
LayerCount: 2
Fore
SplineSet
157 244 m 1
 171 181 194 111 272 111 c 0
 323 110 377 142 396 191 c 0
 421 257 352 289 304 312 c 0
 218 353 162 423 192 522 c 0
 228 640 352 714 472 714 c 0
 574 714 639 656 661 559 c 1
 538 497 l 1
 523 544 501 586 445 587 c 0
 402 588 351 558 335 517 c 0
 311 456 401 428 442 408 c 0
 530 367 574 290 545 194 c 0
 506 64 374 -19 241 -19 c 0
 123 -19 54 64 36 174 c 1
 157 244 l 1
237 59 m 1
 338 56 l 1
 215 -62 l 1
 222 -61 231 -59 238 -59 c 0
 286 -65 309 -107 296 -152 c 0
 279 -213 209 -252 149 -254 c 0
 104 -255 68 -237 32 -213 c 1
 88 -157 l 1
 106 -169 124 -181 148 -181 c 0
 168 -181 211 -163 216 -141 c 0
 221 -120 194 -112 179 -111 c 0
 152 -109 122 -118 96 -125 c 1
 237 59 l 1
EndSplineSet
EndChar

StartChar: scedilla
Encoding: 351 351 328
GlifName: scedilla
Width: 415
VWidth: 0
Flags: HMW
LayerCount: 2
Fore
SplineSet
77 171 m 1
 101 133 133 84 186 87 c 0
 211 87 246 104 255 129 c 0
 268 170 220 187 192 200 c 0
 132 228 88 271 110 342 c 0
 135 424 223 470 304 470 c 0
 372 470 424 439 466 394 c 1
 389 315 l 1
 366 345 339 374 298 374 c 0
 275 375 237 362 228 338 c 0
 213 297 280 283 305 271 c 0
 363 244 403 196 384 130 c 0
 359 39 271 -15 181 -15 c 0
 96 -15 37 31 -6 91 c 1
 77 171 l 1
173 61 m 1
 275 59 l 1
 152 -59 l 1
 159 -58 167 -57 174 -57 c 0
 222 -63 246 -103 234 -149 c 0
 217 -211 145 -250 85 -251 c 0
 40 -252 5 -234 -31 -210 c 1
 24 -154 l 1
 42 -166 60 -178 84 -178 c 0
 104 -178 147 -161 152 -139 c 0
 157 -118 129 -109 114 -108 c 0
 88 -106 59 -115 33 -122 c 1
 173 61 l 1
EndSplineSet
EndChar

StartChar: Zcaron
Encoding: 381 381 329
GlifName: Z_caron
Width: 563
VWidth: 0
Flags: HMW
LayerCount: 2
Fore
SplineSet
184 568 m 1
 231 700 l 1
 741 699 l 1
 225 129 l 1
 513 128 l 1
 468 0 l 1
 -51 0 l 1
 461 567 l 1
 184 568 l 1
542 891 m 1
 662 977 l 1
 733 910 l 1
 516 775 l 1
 380 919 l 1
 481 978 l 1
 542 891 l 1
EndSplineSet
EndChar

StartChar: zcaron
Encoding: 382 382 330
GlifName: zcaron
Width: 470
VWidth: 0
Flags: HMW
LayerCount: 2
Fore
SplineSet
416 647 m 1
 537 732 l 1
 608 665 l 1
 390 530 l 1
 254 674 l 1
 355 733 l 1
 416 647 l 1
308 338 m 1
 109 340 l 1
 152 460 l 1
 572 459 l 1
 224 122 l 1
 425 120 l 1
 382 0 l 1
 -47 0 l 1
 308 338 l 1
EndSplineSet
EndChar

StartChar: Ydieresis
Encoding: 376 376 331
GlifName: Y_dieresis
Width: 595
VWidth: 0
Flags: HMW
LayerCount: 2
Fore
SplineSet
339 859 m 0
 349 896 396 932 434 930 c 0
 474 928 500 893 490 854 c 0
 480 817 432 781 394 783 c 0
 354 785 329 820 339 859 c 0
582 859 m 0
 592 896 640 932 678 930 c 0
 718 928 745 893 735 854 c 0
 725 817 675 781 637 783 c 0
 597 785 572 820 582 859 c 0
617 699 m 1
 787 699 l 1
 413 282 l 1
 316 0 l 1
 171 0 l 1
 274 297 l 1
 187 700 l 1
 342 700 l 1
 384 425 l 1
 617 699 l 1
EndSplineSet
EndChar

StartChar: Scaron
Encoding: 352 352 332
GlifName: S_caron
Width: 568
VWidth: 0
Flags: HMW
LayerCount: 2
Fore
SplineSet
157 244 m 1
 171 181 194 111 272 111 c 0
 323 110 377 142 396 191 c 0
 421 257 352 288 304 312 c 0
 219 354 163 428 192 525 c 0
 228 642 354 715 472 714 c 0
 573 713 641 656 661 559 c 1
 538 496 l 1
 524 542 506 586 450 587 c 0
 406 588 351 560 335 517 c 0
 311 456 401 428 442 408 c 0
 530 367 574 290 545 194 c 0
 506 63 375 -20 241 -19 c 0
 123 -18 54 64 36 174 c 1
 157 244 l 1
534 891 m 1
 655 977 l 1
 726 910 l 1
 508 775 l 1
 372 919 l 1
 474 978 l 1
 534 891 l 1
EndSplineSet
EndChar

StartChar: scaron
Encoding: 353 353 333
GlifName: scaron
Width: 415
VWidth: 0
Flags: HMW
LayerCount: 2
Fore
SplineSet
79 170 m 1
 99 129 129 89 184 89 c 0
 209 88 246 103 255 129 c 0
 268 167 202 187 176 201 c 0
 122 230 83 278 102 341 c 0
 127 425 222 468 304 469 c 0
 372 470 427 440 466 393 c 1
 389 315 l 1
 363 344 334 368 292 368 c 0
 270 368 229 357 222 333 c 0
 211 297 281 279 304 268 c 0
 360 241 401 194 384 129 c 0
 360 37 267 -16 176 -16 c 0
 91 -16 30 27 -6 90 c 1
 79 170 l 1
362 638 m 1
 484 724 l 1
 555 657 l 1
 336 521 l 1
 200 666 l 1
 302 724 l 1
 362 638 l 1
EndSplineSet
EndChar

StartChar: Lslash
Encoding: 321 321 334
GlifName: L_slash
Width: 480
VWidth: 0
Flags: HMW
LayerCount: 2
Fore
SplineSet
63 318 m 1
 51 391 l 1
 443 611 l 1
 456 539 l 1
 63 318 l 1
254 700 m 1
 397 700 l 1
 201 128 l 1
 464 128 l 1
 419 0 l 1
 14 0 l 1
 254 700 l 1
EndSplineSet
EndChar

StartChar: lslash
Encoding: 322 322 335
GlifName: lslash
Width: 243
VWidth: 0
Flags: HMW
LayerCount: 2
Fore
SplineSet
55 318 m 1
 43 391 l 1
 400 587 l 1
 411 515 l 1
 55 318 l 1
269 779 m 1
 400 780 l 1
 131 0 l 1
 4 0 l 1
 269 779 l 1
EndSplineSet
EndChar

StartChar: uni0218
Encoding: 536 536 336
GlifName: uni0218
Width: 568
VWidth: 0
Flags: HMW
LayerCount: 2
Fore
SplineSet
157 244 m 1
 171 181 194 111 272 111 c 0
 323 110 377 142 396 191 c 0
 421 257 352 288 304 312 c 0
 219 354 163 428 192 525 c 0
 228 642 354 715 472 714 c 0
 573 713 641 656 661 559 c 1
 538 496 l 1
 524 542 506 586 450 587 c 0
 406 588 351 560 335 517 c 0
 311 456 401 428 442 408 c 0
 530 367 574 290 545 194 c 0
 506 63 375 -20 241 -19 c 0
 123 -18 54 64 36 174 c 1
 157 244 l 1
171 -72 m 1
 295 -106 l 1
 96 -350 l 1
 1 -326 l 1
 171 -72 l 1
EndSplineSet
EndChar

StartChar: uni0219
Encoding: 537 537 337
GlifName: uni0219
Width: 415
VWidth: 0
Flags: HMW
LayerCount: 2
Fore
SplineSet
79 170 m 1
 99 129 129 89 184 89 c 0
 209 88 246 103 255 129 c 0
 268 167 202 187 176 201 c 0
 122 230 83 278 102 341 c 0
 127 425 222 468 304 469 c 0
 372 470 427 440 466 393 c 1
 389 315 l 1
 363 344 334 368 292 368 c 0
 270 368 229 357 222 333 c 0
 211 297 281 279 304 268 c 0
 360 241 401 194 384 129 c 0
 360 37 267 -16 176 -16 c 0
 91 -16 30 27 -6 90 c 1
 79 170 l 1
107 -70 m 1
 230 -104 l 1
 32 -348 l 1
 -63 -324 l 1
 107 -70 l 1
EndSplineSet
EndChar

StartChar: pi
Encoding: 960 960 338
GlifName: pi
Width: 550
VWidth: 0
Flags: HMW
LayerCount: 2
Fore
SplineSet
174 429 m 1
 299 430 l 1
 149 0 l 1
 29 0 l 1
 174 429 l 1
129 460 m 1
 620 460 l 1
 580 349 l 1
 90 349 l 1
 129 460 l 1
411 430 m 1
 534 430 l 1
 441 168 l 1
 430 129 432 113 469 98 c 1
 435 -8 l 1
 347 -4 278 18 306 121 c 1
 411 430 l 1
EndSplineSet
EndChar

StartChar: trademark
Encoding: 8482 8482 339
GlifName: trademark
Width: 680
VWidth: 0
Flags: HMW
LayerCount: 2
Fore
SplineSet
189 634 m 1
 211 699 l 1
 462 699 l 1
 440 634 l 1
 351 634 l 1
 253 351 l 1
 180 351 l 1
 277 634 l 1
 189 634 l 1
704 600 m 1
 803 729 l 1
 721 350 l 1
 647 351 l 1
 704 600 l 1
518 718 m 1
 528 586 l 1
 419 351 l 1
 341 352 l 1
 518 718 l 1
806 730 m 1
 760 603 l 1
 546 380 l 1
 483 619 l 1
 518 717 l 1
 576 497 l 1
 806 730 l 1
EndSplineSet
EndChar

StartChar: uni2219
Encoding: 8729 8729 340
GlifName: uni2219
Width: 297
VWidth: 0
Flags: HMW
LayerCount: 2
Fore
SplineSet
163 437 m 0
 174 477 224 519 266 517 c 0
 310 515 335 474 324 433 c 0
 313 393 263 352 221 354 c 0
 177 356 152 396 163 437 c 0
EndSplineSet
EndChar

StartChar: agrave.alt
Encoding: 65537 -1 341
GlifName: agrave.alt
Width: 567
VWidth: 0
Flags: HMW
LayerCount: 2
Fore
SplineSet
489 459 m 1
 618 460 l 1
 458 0 l 1
 333 0 l 1
 489 459 l 1
52 230 m 0
 89 350 204 471 337 470 c 0
 469 469 482 330 450 230 c 0
 414 116 320 -8 190 -9 c 0
 57 -10 18 121 52 230 c 0
185 230 m 0
 164 175 178 101 249 100 c 0
 320 99 386 168 409 230 c 0
 428 283 420 356 352 360 c 0
 279 364 209 293 185 230 c 0
298 684 m 1
 407 730 l 1
 498 565 l 1
 422 530 l 1
 298 684 l 1
EndSplineSet
EndChar

StartChar: aacute.alt
Encoding: 65538 -1 342
GlifName: aacute.alt
Width: 567
VWidth: 0
Flags: HMW
LayerCount: 2
Fore
SplineSet
489 459 m 1
 618 460 l 1
 458 1 l 1
 333 0 l 1
 489 459 l 1
52 230 m 0
 89 350 204 471 337 470 c 0
 469 469 482 330 450 230 c 0
 414 116 320 -8 190 -9 c 0
 57 -10 18 121 52 230 c 0
185 230 m 0
 164 175 178 101 249 100 c 0
 320 99 386 168 409 230 c 0
 428 283 420 356 352 360 c 0
 279 364 209 293 185 230 c 0
588 675 m 1
 372 532 l 1
 307 574 l 1
 498 728 l 1
 588 675 l 1
EndSplineSet
EndChar

StartChar: acircumflex.alt
Encoding: 65539 -1 343
GlifName: acircumflex.alt
Width: 567
VWidth: 0
Flags: HMW
LayerCount: 2
Fore
SplineSet
489 459 m 1
 618 460 l 1
 458 0 l 1
 333 0 l 1
 489 459 l 1
52 230 m 0
 89 350 204 471 337 470 c 0
 469 469 482 330 450 230 c 0
 414 116 320 -8 190 -9 c 0
 57 -10 18 121 52 230 c 0
185 230 m 0
 164 175 178 101 249 100 c 0
 320 99 386 168 409 230 c 0
 428 283 420 356 352 360 c 0
 279 364 209 293 185 230 c 0
451 617 m 1
 330 531 l 1
 259 598 l 1
 477 733 l 1
 613 589 l 1
 511 530 l 1
 451 617 l 1
EndSplineSet
EndChar

StartChar: atilde.alt
Encoding: 65540 -1 344
GlifName: atilde.alt
Width: 567
VWidth: 0
Flags: HMW
LayerCount: 2
Fore
SplineSet
489 459 m 1
 618 460 l 1
 458 0 l 1
 333 0 l 1
 489 459 l 1
52 230 m 0
 89 350 204 471 337 470 c 0
 469 469 482 330 450 230 c 0
 414 116 320 -8 190 -9 c 0
 57 -10 18 121 52 230 c 0
185 230 m 0
 164 175 178 101 249 100 c 0
 320 99 386 168 409 230 c 0
 428 283 420 356 352 360 c 0
 279 364 209 293 185 230 c 0
260 591 m 1
 291 637 336 678 394 678 c 0
 436 678 459 627 502 630 c 0
 533 632 559 661 581 680 c 1
 626 611 l 1
 592 575 540 530 485 534 c 0
 444 537 419 588 377 583 c 0
 347 580 328 555 311 534 c 1
 260 591 l 1
EndSplineSet
EndChar

StartChar: adieresis.alt
Encoding: 65541 -1 345
GlifName: adieresis.alt
Width: 567
VWidth: 0
Flags: HMW
LayerCount: 2
Fore
SplineSet
489 459 m 1
 618 460 l 1
 458 0 l 1
 333 0 l 1
 489 459 l 1
52 230 m 0
 89 350 204 471 337 470 c 0
 469 469 482 330 450 230 c 0
 414 116 320 -8 190 -9 c 0
 57 -10 18 121 52 230 c 0
185 230 m 0
 164 175 178 101 249 100 c 0
 320 99 386 168 409 230 c 0
 428 283 420 356 352 360 c 0
 279 364 209 293 185 230 c 0
468 607 m 0
 478 644 527 681 565 679 c 0
 605 677 631 642 621 603 c 0
 611 566 562 529 524 531 c 0
 484 533 458 568 468 607 c 0
250 607 m 0
 260 644 309 681 347 679 c 0
 387 677 412 642 402 603 c 0
 392 566 344 529 306 531 c 0
 266 533 240 568 250 607 c 0
EndSplineSet
EndChar

StartChar: aring.alt
Encoding: 65542 -1 346
GlifName: aring.alt
Width: 567
VWidth: 0
Flags: HMW
LayerCount: 2
Fore
SplineSet
489 459 m 1
 618 460 l 1
 458 0 l 1
 333 0 l 1
 489 459 l 1
52 230 m 0
 89 350 204 471 337 470 c 0
 469 469 482 330 450 230 c 0
 414 116 320 -8 190 -9 c 0
 57 -10 18 121 52 230 c 0
185 230 m 0
 164 175 178 101 249 100 c 0
 320 99 386 168 409 230 c 0
 428 283 420 356 352 360 c 0
 279 364 209 293 185 230 c 0
306 643 m 0
 323 702 388 753 450 752 c 0
 512 751 550 698 533 639 c 0
 516 580 450 530 388 531 c 0
 326 532 289 584 306 643 c 0
374 640 m 0
 368 622 377 594 398 593 c 0
 421 592 458 622 464 643 c 0
 470 661 462 688 441 689 c 0
 417 690 380 661 374 640 c 0
EndSplineSet
EndChar

StartChar: amacron.alt
Encoding: 65543 -1 347
GlifName: amacron.alt
Width: 567
VWidth: 0
Flags: HMW
LayerCount: 2
Fore
SplineSet
489 459 m 1
 618 460 l 1
 458 0 l 1
 333 0 l 1
 489 459 l 1
52 230 m 0
 89 350 204 471 337 470 c 0
 469 469 482 330 450 230 c 0
 414 116 320 -8 190 -9 c 0
 57 -10 18 121 52 230 c 0
185 230 m 0
 164 175 178 101 249 100 c 0
 320 99 386 168 409 230 c 0
 428 283 420 356 352 360 c 0
 279 364 209 293 185 230 c 0
236 542 m 1
 275 657 l 1
 625 657 l 1
 584 541 l 1
 236 542 l 1
EndSplineSet
EndChar

StartChar: abreve.alt
Encoding: 65544 -1 348
GlifName: abreve.alt
Width: 567
VWidth: 0
Flags: HMW
LayerCount: 2
Fore
SplineSet
489 459 m 1
 618 460 l 1
 458 0 l 1
 333 0 l 1
 489 459 l 1
52 230 m 0
 89 350 204 471 337 470 c 0
 469 469 482 330 450 230 c 0
 414 116 320 -8 190 -9 c 0
 57 -10 18 121 52 230 c 0
185 230 m 0
 164 175 178 101 249 100 c 0
 320 99 386 168 409 230 c 0
 428 283 420 356 352 360 c 0
 279 364 209 293 185 230 c 0
271 674 m 1
 357 674 l 1
 357 643 360 614 398 612 c 0
 439 610 468 643 489 673 c 1
 581 672 l 1
 546 592 480 531 388 531 c 0
 298 531 261 591 271 674 c 1
EndSplineSet
EndChar

StartChar: aogonek.alt
Encoding: 65545 -1 349
GlifName: aogonek.alt
Width: 567
VWidth: 0
Flags: HMW
LayerCount: 2
Fore
SplineSet
489 459 m 1
 618 460 l 1
 458 1 l 1
 333 0 l 1
 489 459 l 1
52 230 m 0
 89 350 204 471 337 470 c 0
 469 469 482 330 450 230 c 0
 414 116 320 -8 190 -9 c 0
 57 -10 18 121 52 230 c 0
185 230 m 0
 164 175 178 101 249 100 c 0
 320 99 386 168 409 230 c 0
 428 283 420 356 352 360 c 0
 279 364 209 293 185 230 c 0
398 -116 m 1
 411 -183 l 1
 380 -203 348 -219 311 -219 c 0
 252 -219 209 -180 226 -119 c 0
 247 -44 336 -6 399 24 c 1
 437 0 l 1
 400 -24 339 -49 325 -96 c 0
 320 -113 323 -131 343 -135 c 0
 361 -138 383 -124 398 -116 c 1
EndSplineSet
EndChar

StartChar: dagger
Encoding: 8224 8224 350
GlifName: dagger
Width: 578
VWidth: 0
Flags: HMW
LayerCount: 2
Fore
SplineSet
215 540 m 1
 630 540 l 1
 593 429 l 1
 179 429 l 1
 215 540 l 1
409 700 m 1
 533 700 l 1
 269 -150 l 1
 149 -149 l 1
 409 700 l 1
EndSplineSet
EndChar

StartChar: daggerdbl
Encoding: 8225 8225 351
GlifName: daggerdbl
Width: 578
VWidth: 0
Flags: HMW
LayerCount: 2
Fore
SplineSet
94 147 m 1
 509 147 l 1
 473 36 l 1
 58 36 l 1
 94 147 l 1
215 540 m 1
 630 540 l 1
 593 429 l 1
 179 429 l 1
 215 540 l 1
409 700 m 1
 533 700 l 1
 269 -150 l 1
 149 -149 l 1
 409 700 l 1
EndSplineSet
EndChar

StartChar: ellipsis
Encoding: 8230 8230 352
GlifName: ellipsis
Width: 863
VWidth: 0
Flags: HMW
LayerCount: 2
Fore
SplineSet
35 62 m 0
 46 102 96 144 138 142 c 0
 182 140 207 99 196 58 c 0
 185 18 135 -23 93 -21 c 0
 49 -19 24 21 35 62 c 0
317 62 m 0
 328 102 378 144 420 142 c 0
 464 140 489 99 478 58 c 0
 467 18 417 -23 375 -21 c 0
 331 -19 306 21 317 62 c 0
599 62 m 0
 610 102 660 144 702 142 c 0
 746 140 771 99 760 58 c 0
 749 18 699 -23 657 -21 c 0
 613 -19 588 21 599 62 c 0
EndSplineSet
EndChar

StartChar: uniFF10
Encoding: 65296 65296 353
GlifName: uniF_F_10
Width: 579
VWidth: 0
Flags: HMW
LayerCount: 2
Fore
SplineSet
224 350 m 0
 201 287 155 120 267 116 c 0
 380 112 454 261 486 350 c 0
 509 413 555 580 443 584 c 0
 330 588 256 439 224 350 c 0
87 350 m 0
 141 516 276 713 470 712 c 0
 669 711 669 492 623 350 c 0
 569 183 435 -13 240 -12 c 0
 43 -11 41 209 87 350 c 0
EndSplineSet
EndChar

StartChar: uniFF11
Encoding: 65297 65297 354
GlifName: uniF_F_11
Width: 579
VWidth: 0
Flags: HMW
LayerCount: 2
Fore
SplineSet
221 513 m 1
 269 648 l 1
 589 714 l 1
 343 0 l 1
 205 0 l 1
 396 555 l 1
 221 513 l 1
EndSplineSet
EndChar

StartChar: uniFF12
Encoding: 65298 65298 355
GlifName: uniF_F_12
Width: 579
VWidth: 0
Flags: HMW
LayerCount: 2
Fore
SplineSet
-44 0 m 1
 365 331 l 2
 417 372 485 422 507 488 c 0
 523 535 505 581 451 584 c 0
 371 588 318 510 287 447 c 1
 147 448 l 1
 200 589 321 715 482 713 c 0
 607 712 688 612 651 490 c 0
 627 412 564 350 500 302 c 2
 274 136 l 1
 544 134 l 1
 498 0 l 1
 -44 0 l 1
EndSplineSet
EndChar

StartChar: uniFF13
Encoding: 65299 65299 356
GlifName: uniF_F_13
Width: 579
VWidth: 0
Flags: HMW
LayerCount: 2
Fore
SplineSet
318 341 m 1
 339 410 l 1
 400 420 481 445 502 512 c 0
 515 552 500 590 455 592 c 0
 398 594 357 548 330 504 c 1
 197 505 l 1
 245 622 348 712 479 712 c 0
 588 712 679 633 644 519 c 0
 602 382 443 347 318 341 c 1
243 -14 m 0
 108 -13 41 85 65 212 c 1
 203 211 l 1
 195 156 206 109 271 107 c 0
 331 105 393 149 414 205 c 0
 443 283 369 304 307 311 c 1
 330 388 l 1
 448 382 594 338 549 189 c 0
 510 61 371 -15 243 -14 c 0
EndSplineSet
EndChar

StartChar: uniFF14
Encoding: 65300 65300 357
GlifName: uniF_F_14
Width: 579
VWidth: 0
Flags: HMW
LayerCount: 2
Fore
SplineSet
-6 130 m 1
 145 237 l 1
 411 238 l 1
 433 254 l 1
 595 254 l 1
 551 129 l 1
 -6 130 l 1
152 166 m 1
 -10 125 l 1
 549 698 l 1
 651 699 l 1
 412 0 l 1
 264 0 l 1
 321 164 l 1
 337 175 l 1
 435 454 l 1
 152 166 l 1
EndSplineSet
EndChar

StartChar: uniFF15
Encoding: 65301 65301 358
GlifName: uniF_F_15
Width: 579
VWidth: 0
Flags: HMW
LayerCount: 2
Fore
SplineSet
566 225 m 0
 522 84 380 -11 235 -12 c 0
 137 -12 62 30 6 96 c 1
 103 208 l 1
 134 161 176 124 239 123 c 0
 313 122 393 168 418 240 c 0
 440 305 397 350 333 353 c 0
 262 356 194 331 129 307 c 1
 241 384 l 1
 298 424 363 457 434 456 c 0
 560 454 599 331 566 225 c 0
418 572 m 1
 299 387 l 1
 116 297 l 1
 350 699 l 1
 718 700 l 1
 675 573 l 1
 418 572 l 1
EndSplineSet
EndChar

StartChar: uniFF16
Encoding: 65302 65302 359
GlifName: uniF_F_16
Width: 579
VWidth: 0
Flags: HMW
LayerCount: 2
Fore
SplineSet
198 241 m 0
 176 182 195 114 266 113 c 0
 340 112 413 175 438 242 c 0
 460 300 442 371 370 372 c 0
 295 374 223 308 198 241 c 0
477 697 m 1
 665 697 l 1
 362 437 l 1
 328 430 l 1
 363 452 399 469 442 468 c 0
 565 466 607 343 576 240 c 0
 533 96 390 -14 239 -14 c 0
 93 -14 18 105 60 241 c 0
 82 312 131 372 184 423 c 2
 477 697 l 1
EndSplineSet
EndChar

StartChar: uniFF17
Encoding: 65303 65303 360
GlifName: uniF_F_17
Width: 579
VWidth: 0
Flags: HMW
LayerCount: 2
Fore
SplineSet
176 563 m 1
 224 700 l 1
 749 699 l 1
 191 0 l 1
 32 0 l 1
 488 562 l 1
 176 563 l 1
EndSplineSet
EndChar

StartChar: uniFF18
Encoding: 65304 65304 361
GlifName: uniF_F_18
Width: 579
VWidth: 0
Flags: HMW
LayerCount: 2
Fore
SplineSet
212 532 m 0
 246 643 368 715 480 714 c 0
 584 713 671 640 639 530 c 0
 606 417 484 346 371 346 c 0
 265 346 179 421 212 532 c 0
339 516 m 0
 326 478 338 432 384 429 c 0
 432 426 486 474 502 517 c 0
 516 556 504 601 457 604 c 0
 408 607 355 560 339 516 c 0
72 191 m 0
 109 315 244 395 370 394 c 0
 486 394 583 312 546 189 c 0
 509 66 372 -15 248 -14 c 0
 133 -13 36 71 72 191 c 0
218 210 m 0
 200 162 217 109 274 107 c 0
 333 105 397 158 416 212 c 0
 432 258 413 312 359 314 c 0
 302 316 238 261 218 210 c 0
EndSplineSet
EndChar

StartChar: uniFF19
Encoding: 65305 65305 362
GlifName: uniF_F_19
Width: 579
VWidth: 0
Flags: HMW
LayerCount: 2
Fore
SplineSet
512 459 m 0
 534 518 515 586 444 587 c 0
 370 588 297 525 272 458 c 0
 250 400 268 329 340 328 c 0
 415 326 487 392 512 459 c 0
233 3 m 1
 44 3 l 1
 347 263 l 1
 382 270 l 1
 347 248 311 231 268 232 c 0
 145 234 102 357 133 460 c 0
 176 604 319 714 470 714 c 0
 616 714 692 595 650 459 c 0
 628 388 579 328 526 277 c 2
 233 3 l 1
EndSplineSet
EndChar

StartChar: caron
Encoding: 711 711 363
GlifName: caron
Width: 451
VWidth: 0
Flags: HMW
LayerCount: 2
Fore
SplineSet
394 672 m 1
 515 758 l 1
 586 691 l 1
 368 556 l 1
 232 700 l 1
 334 759 l 1
 394 672 l 1
EndSplineSet
EndChar

StartChar: napostrophe
Encoding: 329 329 364
GlifName: napostrophe
Width: 673
VWidth: 0
Flags: HMW
LayerCount: 2
Fore
SplineSet
437 460 m 1
 278 0 l 1
 148 0 l 1
 307 460 l 1
 437 460 l 1
528 280 m 1
 539 317 546 366 495 371 c 0
 440 376 399 322 374 282 c 1
 340 277 l 1
 378 370 448 469 560 470 c 0
 666 471 687 382 662 295 c 1
 561 0 l 1
 430 0 l 1
 528 280 l 1
290 699 m 1
 433 699 l 1
 250 453 l 1
 154 453 l 1
 290 699 l 1
EndSplineSet
EndChar

StartChar: IJ
Encoding: 306 306 365
GlifName: I_J_
Width: 552
VWidth: 0
Flags: HMW
LayerCount: 2
Fore
SplineSet
112 -75 m 1
 129 -93 148 -111 175 -109 c 0
 220 -106 253 -63 270 -25 c 1
 520 700 l 1
 670 700 l 1
 413 -56 l 2
 373 -164 275 -234 159 -233 c 0
 101 -232 52 -210 7 -176 c 1
 112 -75 l 1
253 699 m 1
 399 700 l 1
 158 0 l 1
 16 0 l 1
 253 699 l 1
EndSplineSet
EndChar

StartChar: ij
Encoding: 307 307 366
GlifName: ij
Width: 503
VWidth: 0
Flags: HMW
LayerCount: 2
Fore
SplineSet
463 640 m 0
 473 677 522 713 560 711 c 0
 600 709 625 674 615 635 c 0
 605 598 557 562 519 564 c 0
 479 566 453 601 463 640 c 0
136 -88 m 1
 145 -88 160 -113 171 -114 c 0
 207 -118 233 -64 244 -38 c 1
 417 460 l 1
 542 460 l 1
 362 -70 l 2
 329 -157 256 -236 156 -233 c 0
 112 -232 84 -212 54 -183 c 1
 136 -88 l 1
215 640 m 0
 225 677 273 713 311 711 c 0
 351 709 378 674 368 635 c 0
 358 598 309 562 271 564 c 0
 231 566 205 601 215 640 c 0
167 459 m 1
 295 460 l 1
 135 0 l 1
 11 0 l 1
 167 459 l 1
EndSplineSet
EndChar

StartChar: uni0237
Encoding: 567 567 367
GlifName: uni0237
Width: 250
VWidth: 0
Flags: HMW
LayerCount: 2
Fore
SplineSet
-118 -88 m 1
 -109 -100 -100 -114 -83 -114 c 0
 -46 -114 -21 -67 -8 -38 c 1
 163 460 l 1
 289 460 l 1
 109 -70 l 2
 76 -157 4 -236 -96 -233 c 0
 -140 -232 -169 -212 -199 -183 c 1
 -118 -88 l 1
EndSplineSet
EndChar

StartChar: Sacute
Encoding: 346 346 368
GlifName: S_acute
Width: 568
VWidth: 0
Flags: HMW
LayerCount: 2
Fore
SplineSet
157 244 m 1
 171 181 194 111 272 111 c 0
 323 110 377 142 396 191 c 0
 421 257 352 288 304 312 c 0
 219 354 163 428 192 525 c 0
 228 642 354 715 472 714 c 0
 573 713 641 656 661 559 c 1
 538 496 l 1
 524 542 506 586 450 587 c 0
 406 588 351 560 335 517 c 0
 311 456 401 428 442 408 c 0
 530 367 574 290 545 194 c 0
 506 63 375 -20 241 -19 c 0
 123 -18 54 64 36 174 c 1
 157 244 l 1
724 919 m 1
 508 776 l 1
 442 818 l 1
 634 972 l 1
 724 919 l 1
EndSplineSet
EndChar

StartChar: sacute
Encoding: 347 347 369
GlifName: sacute
Width: 415
VWidth: 0
Flags: HMW
LayerCount: 2
Fore
SplineSet
79 170 m 1
 99 129 129 89 184 89 c 0
 209 88 246 103 255 129 c 0
 268 167 202 187 176 201 c 0
 122 230 83 278 102 341 c 0
 127 425 222 468 304 469 c 0
 372 470 427 440 466 393 c 1
 389 315 l 1
 363 344 334 368 292 368 c 0
 270 368 229 357 222 333 c 0
 211 297 281 279 304 268 c 0
 360 241 401 194 384 129 c 0
 360 37 267 -16 176 -16 c 0
 91 -16 30 27 -6 90 c 1
 79 170 l 1
555 675 m 1
 340 532 l 1
 274 574 l 1
 465 728 l 1
 555 675 l 1
EndSplineSet
EndChar

StartChar: Scircumflex
Encoding: 348 348 370
GlifName: S_circumflex
Width: 568
VWidth: 0
Flags: HMW
LayerCount: 2
Fore
SplineSet
157 244 m 1
 171 181 194 111 272 111 c 0
 323 110 377 142 396 191 c 0
 421 257 352 288 304 312 c 0
 219 354 163 428 192 525 c 0
 228 642 354 715 472 714 c 0
 573 713 641 656 661 559 c 1
 538 496 l 1
 524 542 506 586 450 587 c 0
 406 588 351 560 335 517 c 0
 311 456 401 428 442 408 c 0
 530 367 574 290 545 194 c 0
 506 63 375 -20 241 -19 c 0
 123 -18 54 64 36 174 c 1
 157 244 l 1
538 861 m 1
 416 775 l 1
 346 842 l 1
 564 977 l 1
 700 833 l 1
 599 774 l 1
 538 861 l 1
EndSplineSet
EndChar

StartChar: scircumflex
Encoding: 349 349 371
GlifName: scircumflex
Width: 415
VWidth: 0
Flags: HMW
LayerCount: 2
Fore
SplineSet
79 170 m 1
 99 129 129 89 184 89 c 0
 209 88 246 103 255 129 c 0
 268 167 202 187 176 201 c 0
 122 230 83 278 102 341 c 0
 127 425 222 468 304 469 c 0
 372 470 427 440 466 393 c 1
 389 315 l 1
 363 344 334 368 292 368 c 0
 270 368 229 357 222 333 c 0
 211 297 281 279 304 268 c 0
 360 241 401 194 384 129 c 0
 360 37 267 -16 176 -16 c 0
 91 -16 30 27 -6 90 c 1
 79 170 l 1
378 617 m 1
 257 531 l 1
 186 598 l 1
 404 733 l 1
 539 589 l 1
 438 530 l 1
 378 617 l 1
EndSplineSet
EndChar

StartChar: uni1E9E
Encoding: 7838 7838 372
GlifName: uni1E_9E_
Width: 793
VWidth: 0
Flags: HMW
LayerCount: 2
Fore
SplineSet
449 -14 m 0
 313 -13 255 87 280 212 c 1
 405 211 l 1
 397 156 409 110 473 107 c 0
 533 105 595 148 615 205 c 0
 643 284 571 304 509 311 c 1
 529 379 l 1
 644 374 793 330 749 184 c 0
 712 60 573 -15 449 -14 c 0
522 346 m 1
 541 411 l 1
 602 420 675 442 697 508 c 0
 720 575 642 593 591 593 c 0
 444 592 331 481 281 350 c 1
 161 0 l 1
 18 0 l 1
 144 368 l 2
 214 566 396 709 609 710 c 0
 717 710 889 667 847 524 c 0
 807 387 645 352 522 346 c 1
EndSplineSet
EndChar

StartChar: Zacute
Encoding: 377 377 373
GlifName: Z_acute
Width: 563
VWidth: 0
Flags: HW
LayerCount: 2
Fore
SplineSet
184 568 m 1
 231 700 l 1
 741 699 l 1
 225 129 l 1
 513 128 l 1
 468 0 l 1
 -51 0 l 1
 461 567 l 1
 184 568 l 1
721 919 m 1
 505 776 l 1
 439 818 l 1
 631 972 l 1
 721 919 l 1
EndSplineSet
EndChar

StartChar: zacute
Encoding: 378 378 374
GlifName: zacute
Width: 474
VWidth: 0
Flags: HW
LayerCount: 2
Fore
SplineSet
307 338 m 1
 109 340 l 1
 152 460 l 1
 572 459 l 1
 225 122 l 1
 425 120 l 1
 382 0 l 1
 -47 0 l 1
 307 338 l 1
599 685 m 1
 383 543 l 1
 317 585 l 1
 509 739 l 1
 599 685 l 1
EndSplineSet
EndChar

StartChar: Zdotaccent
Encoding: 379 379 375
GlifName: Z_dotaccent
Width: 563
VWidth: 0
Flags: HW
LayerCount: 2
Fore
SplineSet
184 568 m 1
 231 700 l 1
 741 699 l 1
 225 129 l 1
 513 128 l 1
 468 0 l 1
 -51 0 l 1
 461 567 l 1
 184 568 l 1
458 852 m 0
 468 889 516 925 554 923 c 0
 594 921 620 886 610 847 c 0
 600 810 552 774 514 776 c 0
 474 778 448 813 458 852 c 0
EndSplineSet
EndChar

StartChar: zdotaccent
Encoding: 380 380 376
GlifName: zdotaccent
Width: 474
VWidth: 0
Flags: HW
LayerCount: 2
Fore
SplineSet
307 338 m 1
 109 340 l 1
 152 460 l 1
 572 459 l 1
 225 122 l 1
 425 120 l 1
 382 0 l 1
 -47 0 l 1
 307 338 l 1
338 624 m 0
 348 661 396 697 434 695 c 0
 474 693 500 658 490 619 c 0
 480 582 432 546 394 548 c 0
 354 550 328 585 338 624 c 0
EndSplineSet
EndChar

StartChar: Tcaron
Encoding: 356 356 377
GlifName: T_caron
Width: 503
VWidth: 0
Flags: HW
LayerCount: 2
Fore
SplineSet
141 568 m 1
 188 700 l 1
 686 700 l 1
 640 568 l 1
 463 568 l 1
 268 0 l 1
 126 0 l 1
 320 568 l 1
 141 568 l 1
495 891 m 1
 616 977 l 1
 687 910 l 1
 469 775 l 1
 333 919 l 1
 434 978 l 1
 495 891 l 1
EndSplineSet
EndChar

StartChar: tcaron
Encoding: 357 357 378
GlifName: tcaron
Width: 420
VWidth: 0
Flags: HW
LayerCount: 2
Fore
SplineSet
106 460 m 1
 381 460 l 1
 341 349 l 1
 66 349 l 1
 106 460 l 1
234 619 m 1
 361 620 l 1
 147 0 l 1
 24 0 l 1
 234 619 l 1
547 791 m 1
 671 757 l 1
 472 513 l 1
 378 537 l 1
 547 791 l 1
EndSplineSet
EndChar

StartChar: Uring
Encoding: 366 366 379
GlifName: U_ring
Width: 639
VWidth: 0
Flags: HW
LayerCount: 2
Fore
SplineSet
250 700 m 1
 392 700 l 1
 231 239 l 2
 213 179 219 112 295 110 c 0
 373 108 434 173 461 240 c 1
 620 700 l 1
 762 700 l 1
 602 230 l 2
 551 88 424 -23 267 -23 c 0
 118 -23 49 92 89 230 c 0
 250 700 l 1
455 888 m 0
 472 947 537 997 599 996 c 0
 661 995 699 943 682 884 c 0
 665 825 599 775 537 776 c 0
 475 777 438 829 455 888 c 0
523 884 m 0
 517 866 525 841 546 838 c 0
 569 835 607 866 613 887 c 0
 619 905 610 931 589 934 c 0
 566 937 529 905 523 884 c 0
EndSplineSet
EndChar

StartChar: uring
Encoding: 367 367 380
GlifName: uring
Width: 527
VWidth: 0
Flags: HW
LayerCount: 2
Fore
SplineSet
286 0 m 1
 445 460 l 1
 574 460 l 1
 416 0 l 1
 286 0 l 1
195 180 m 1
 184 143 177 94 228 89 c 0
 283 84 324 138 349 178 c 1
 378 183 l 1
 341 90 274 -9 163 -10 c 0
 57 -11 36 78 61 165 c 1
 162 460 l 1
 293 459 l 1
 195 180 l 1
315 644 m 0
 332 703 398 753 460 752 c 0
 522 751 560 699 543 640 c 0
 526 581 460 530 398 531 c 0
 336 532 298 585 315 644 c 0
384 640 m 0
 378 622 386 597 407 594 c 0
 430 591 468 622 474 643 c 0
 480 661 471 687 450 690 c 0
 427 693 390 661 384 640 c 0
EndSplineSet
EndChar

StartChar: Wcircumflex
Encoding: 372 372 381
GlifName: W_circumflex
Width: 982
VWidth: 0
Flags: HW
LayerCount: 2
Fore
SplineSet
713 262 m 1
 994 699 l 1
 1168 699 l 1
 643 -45 l 1
 587 410 l 1
 225 -46 l 1
 190 700 l 1
 351 700 l 1
 339 264 l 1
 685 742 l 1
 713 262 l 1
744 884 m 1
 623 799 l 1
 550 867 l 1
 767 1001 l 1
 904 857 l 1
 804 798 l 1
 744 884 l 1
EndSplineSet
EndChar

StartChar: wcircumflex
Encoding: 373 373 382
GlifName: wcircumflex
Width: 694
VWidth: 0
Flags: HW
LayerCount: 2
Fore
SplineSet
101 460 m 1
 230 460 l 1
 236 215 l 1
 459 501 l 1
 484 212 l 1
 665 459 l 1
 810 459 l 1
 422 -36 l 1
 384 253 l 1
 146 -36 l 1
 101 460 l 1
518 644 m 1
 397 559 l 1
 324 626 l 1
 541 761 l 1
 678 616 l 1
 578 557 l 1
 518 644 l 1
EndSplineSet
EndChar

StartChar: Ycircumflex
Encoding: 374 374 383
GlifName: Y_circumflex
Width: 595
VWidth: 0
Flags: HW
LayerCount: 2
Fore
SplineSet
616 699 m 1
 789 699 l 1
 413 281 l 1
 316 0 l 1
 170 0 l 1
 274 299 l 1
 188 700 l 1
 341 700 l 1
 383 426 l 1
 616 699 l 1
541 861 m 1
 420 776 l 1
 347 844 l 1
 564 978 l 1
 701 833 l 1
 601 775 l 1
 541 861 l 1
EndSplineSet
EndChar

StartChar: ycircumflex
Encoding: 375 375 384
GlifName: ycircumflex
Width: 468
VWidth: 0
Flags: HW
LayerCount: 2
Fore
SplineSet
587 459 m 1
 70 -219 l 1
 -71 -219 l 1
 138 54 l 1
 98 460 l 1
 234 460 l 1
 248 93 l 1
 182 97 l 1
 443 459 l 1
 587 459 l 1
394 617 m 1
 273 532 l 1
 201 599 l 1
 418 734 l 1
 555 589 l 1
 454 530 l 1
 394 617 l 1
EndSplineSet
EndChar

StartChar: Utilde
Encoding: 360 360 385
GlifName: U_tilde
Width: 639
VWidth: 0
Flags: HW
LayerCount: 2
Fore
SplineSet
250 700 m 1
 392 700 l 1
 231 239 l 2
 213 179 219 111 295 110 c 0
 384 109 436 173 461 240 c 1
 620 700 l 1
 762 700 l 1
 602 230 l 2
 552 87 441 -23 268 -23 c 0
 119 -23 46 93 89 230 c 1
 250 700 l 1
371 833 m 1
 401 875 446 923 503 920 c 0
 545 918 570 869 613 872 c 0
 644 874 669 902 690 921 c 1
 738 853 l 1
 704 816 653 771 598 775 c 0
 556 778 531 829 488 824 c 0
 458 821 441 797 425 775 c 1
 371 833 l 1
EndSplineSet
EndChar

StartChar: utilde
Encoding: 361 361 386
GlifName: utilde
Width: 527
VWidth: 0
Flags: HW
LayerCount: 2
Fore
SplineSet
286 0 m 1
 445 460 l 1
 574 460 l 1
 416 0 l 1
 286 0 l 1
195 180 m 1
 184 143 177 94 228 89 c 0
 283 84 324 138 349 178 c 1
 378 183 l 1
 341 90 274 -9 163 -10 c 0
 57 -11 36 78 61 165 c 1
 162 460 l 1
 293 459 l 1
 195 180 l 1
232 588 m 1
 262 630 307 678 364 675 c 0
 406 673 431 624 474 627 c 0
 505 629 530 658 551 677 c 1
 598 608 l 1
 564 571 514 526 459 530 c 0
 417 533 391 584 348 579 c 0
 318 576 302 552 286 530 c 1
 232 588 l 1
EndSplineSet
EndChar

StartChar: Umacron
Encoding: 362 362 387
GlifName: U_macron
Width: 639
VWidth: 0
Flags: HW
LayerCount: 2
Fore
SplineSet
250 700 m 1
 392 700 l 1
 231 239 l 2
 213 179 219 111 295 110 c 0
 384 109 436 173 461 240 c 1
 620 700 l 1
 762 700 l 1
 602 230 l 2
 552 87 441 -23 268 -23 c 0
 119 -23 46 93 89 230 c 1
 250 700 l 1
359 775 m 1
 395 890 l 1
 744 890 l 1
 707 775 l 1
 359 775 l 1
EndSplineSet
EndChar

StartChar: umacron
Encoding: 363 363 388
GlifName: umacron
Width: 527
VWidth: 0
Flags: HW
LayerCount: 2
Fore
SplineSet
286 0 m 1
 445 460 l 1
 574 460 l 1
 416 0 l 1
 286 0 l 1
195 180 m 1
 184 143 177 94 228 89 c 0
 283 84 324 138 349 178 c 1
 378 183 l 1
 341 90 274 -9 163 -10 c 0
 57 -11 36 78 61 165 c 1
 162 460 l 1
 293 459 l 1
 195 180 l 1
219 530 m 1
 256 646 l 1
 604 646 l 1
 568 530 l 1
 219 530 l 1
EndSplineSet
EndChar

StartChar: Ubreve
Encoding: 364 364 389
GlifName: U_breve
Width: 639
VWidth: 0
Flags: HW
LayerCount: 2
Fore
SplineSet
250 700 m 1
 392 700 l 1
 231 239 l 2
 213 179 219 111 295 110 c 0
 384 109 436 173 461 240 c 1
 620 700 l 1
 762 700 l 1
 602 230 l 2
 552 87 441 -23 268 -23 c 0
 119 -23 46 93 89 230 c 1
 250 700 l 1
425 918 m 1
 510 918 l 1
 510 887 516 857 554 855 c 0
 595 853 623 887 643 917 c 1
 734 916 l 1
 700 836 636 775 544 775 c 0
 454 775 416 835 425 918 c 1
EndSplineSet
EndChar

StartChar: ubreve
Encoding: 365 365 390
GlifName: ubreve
Width: 527
VWidth: 0
Flags: HW
LayerCount: 2
Fore
SplineSet
286 0 m 1
 445 460 l 1
 574 460 l 1
 416 0 l 1
 286 0 l 1
195 180 m 1
 184 143 177 94 228 89 c 0
 283 84 324 138 349 178 c 1
 378 183 l 1
 341 90 274 -9 163 -10 c 0
 57 -11 36 78 61 165 c 1
 162 460 l 1
 293 459 l 1
 195 180 l 1
286 673 m 1
 371 673 l 1
 371 642 376 613 414 611 c 0
 455 609 484 642 504 672 c 1
 595 671 l 1
 561 591 496 530 404 530 c 0
 314 530 277 590 286 673 c 1
EndSplineSet
EndChar

StartChar: uni0123
Encoding: 291 291 391
GlifName: uni0123
Width: 536
VWidth: 0
Flags: HW
LayerCount: 2
Fore
SplineSet
-99 -32 m 1
 22 -33 l 1
 18 -86 32 -125 92 -127 c 0
 172 -129 234 -57 262 10 c 1
 418 460 l 1
 546 460 l 1
 394 10 l 2
 346 -124 234 -235 85 -236 c 0
 -45 -237 -112 -158 -99 -32 c 1
-16 235 m 0
 20 355 132 471 264 470 c 0
 395 469 417 337 386 234 c 0
 352 120 258 1 129 -0 c 0
 -3 -1 -49 124 -16 235 c 0
119 233 m 0
 98 178 111 111 180 109 c 0
 250 107 317 175 340 236 c 0
 359 288 353 356 287 360 c 0
 215 365 143 296 119 233 c 0
357 544 m 1
 242 603 l 1
 464 821 l 1
 554 779 l 1
 357 544 l 1
EndSplineSet
EndChar

StartChar: Hbar
Encoding: 294 294 392
GlifName: H_bar
Width: 721
VWidth: 0
Flags: HW
LayerCount: 2
Fore
SplineSet
95 307 m 1
 140 438 l 1
 634 438 l 1
 588 307 l 1
 95 307 l 1
625 699 m 1
 773 700 l 1
 531 0 l 1
 388 0 l 1
 625 699 l 1
182 699 m 1
 331 700 l 1
 89 0 l 1
 -54 0 l 1
 182 699 l 1
63 538 m 1
 97 635 l 1
 817 635 l 1
 784 538 l 1
 63 538 l 1
EndSplineSet
EndChar

StartChar: hbar
Encoding: 295 295 393
GlifName: hbar
Width: 523
VWidth: 0
Flags: HW
LayerCount: 2
Fore
SplineSet
333 780 m 1
 65 0 l 1
 -68 0 l 1
 200 780 l 1
 333 780 l 1
313 280 m 1
 324 315 334 365 284 370 c 0
 229 376 187 322 162 282 c 1
 131 283 l 1
 166 376 233 472 343 474 c 0
 450 476 471 387 446 299 c 1
 344 0 l 1
 215 0 l 1
 313 280 l 1
86 605 m 1
 126 720 l 1
 440 720 l 1
 401 605 l 1
 86 605 l 1
EndSplineSet
EndChar

StartChar: uni0400
Encoding: 1024 1024 394
GlifName: uni0400
Width: 517
VWidth: 0
Flags: HW
LayerCount: 2
Fore
SplineSet
104 0 m 1
 145 123 l 1
 485 123 l 1
 443 0 l 1
 104 0 l 1
300 577 m 1
 342 700 l 1
 682 700 l 1
 640 577 l 1
 300 577 l 1
210 311 m 1
 251 431 l 1
 572 431 l 1
 530 311 l 1
 210 311 l 1
250 699 m 1
 395 700 l 1
 152 0 l 1
 14 0 l 1
 250 699 l 1
382 929 m 1
 489 974 l 1
 585 807 l 1
 510 774 l 1
 382 929 l 1
EndSplineSet
EndChar

StartChar: uni0401
Encoding: 1025 1025 395
GlifName: uni0401
Width: 517
VWidth: 0
Flags: HW
LayerCount: 2
Fore
SplineSet
104 0 m 1
 145 123 l 1
 485 123 l 1
 443 0 l 1
 104 0 l 1
300 577 m 1
 342 700 l 1
 682 700 l 1
 640 577 l 1
 300 577 l 1
210 311 m 1
 251 431 l 1
 572 431 l 1
 530 311 l 1
 210 311 l 1
250 699 m 1
 395 700 l 1
 152 0 l 1
 14 0 l 1
 250 699 l 1
562 852 m 0
 571 889 618 924 656 922 c 0
 696 920 725 886 716 846 c 0
 707 809 660 773 622 775 c 0
 582 777 553 812 562 852 c 0
344 852 m 0
 353 889 400 924 438 922 c 0
 478 920 507 886 498 846 c 0
 489 809 442 773 404 775 c 0
 364 777 335 812 344 852 c 0
EndSplineSet
EndChar

StartChar: uni0403
Encoding: 1027 1027 396
GlifName: uni0403
Width: 458
VWidth: 0
Flags: HW
LayerCount: 2
Fore
SplineSet
254 699 m 1
 639 700 l 1
 592 568 l 1
 357 568 l 1
 161 0 l 1
 19 0 l 1
 254 699 l 1
678 917 m 1
 466 775 l 1
 397 819 l 1
 584 972 l 1
 678 917 l 1
EndSplineSet
EndChar

StartChar: uni040C
Encoding: 1036 1036 397
GlifName: uni040C_
Width: 531
VWidth: 0
Flags: HW
LayerCount: 2
Fore
SplineSet
250 699 m 1
 403 700 l 1
 161 0 l 1
 14 0 l 1
 250 699 l 1
620 699 m 1
 806 699 l 1
 408 362 l 1
 564 0 l 1
 407 0 l 1
 244 378 l 1
 620 699 l 1
720 907 m 1
 508 766 l 1
 438 812 l 1
 626 964 l 1
 720 907 l 1
EndSplineSet
EndChar

StartChar: uni040D
Encoding: 1037 1037 398
GlifName: uni040D_
Width: 741
VWidth: 0
Flags: HW
LayerCount: 2
Fore
SplineSet
800 538 m 1
 -7 -51 l 1
 73 162 l 1
 880 752 l 1
 800 538 l 1
394 700 m 1
 191 107 l 1
 -7 -51 l 1
 252 700 l 1
 394 700 l 1
880 752 m 1
 620 0 l 1
 478 0 l 1
 680 588 l 1
 880 752 l 1
458 910 m 1
 565 955 l 1
 659 787 l 1
 585 754 l 1
 458 910 l 1
EndSplineSet
EndChar

StartChar: uni040E
Encoding: 1038 1038 399
GlifName: uni040E_
Width: 558
VWidth: 0
Flags: HW
LayerCount: 2
Fore
SplineSet
760 700 m 1
 210 0 l 1
 54 0 l 1
 225 223 l 1
 180 700 l 1
 327 700 l 1
 342 269 l 1
 275 272 l 1
 602 700 l 1
 760 700 l 1
376 919 m 1
 462 918 l 1
 462 888 465 858 502 856 c 0
 543 853 572 888 593 918 c 1
 687 916 l 1
 654 836 588 775 497 775 c 0
 407 775 367 835 376 919 c 1
EndSplineSet
EndChar

StartChar: uni0410
Encoding: 1040 1040 400
GlifName: uni0410
Width: 671
VWidth: 0
Flags: HW
LayerCount: 2
Fore
SplineSet
160 156 m 1
 213 270 l 1
 539 271 l 1
 515 155 l 1
 160 156 l 1
451 470 m 1
 270 229 l 1
 263 196 l 1
 110 0 l 1
 -64 0 l 1
 533 749 l 1
 616 0 l 1
 463 0 l 1
 443 192 l 1
 459 228 l 1
 451 470 l 1
EndSplineSet
EndChar

StartChar: uni0411
Encoding: 1041 1041 401
GlifName: uni0411
Width: 600
VWidth: 0
Flags: HW
LayerCount: 2
Fore
SplineSet
171 311 m 1
 210 431 l 1
 420 431 l 1
 540 428 622 338 587 216 c 0
 551 90 427 3 299 0 c 1
 60 0 l 1
 104 123 l 1
 294 123 l 2
 356 125 417 157 442 218 c 0
 465 274 430 306 375 309 c 1
 171 311 l 1
254 699 m 1
 703 700 l 1
 660 577 l 1
 362 577 l 1
 163 0 l 1
 19 0 l 1
 254 699 l 1
EndSplineSet
EndChar

StartChar: uni0412
Encoding: 1042 1042 402
GlifName: uni0412
Width: 598
VWidth: 0
Flags: HW
LayerCount: 2
Fore
SplineSet
239 355 m 1
 262 420 l 1
 360 421 l 1
 413 424 473 451 493 504 c 0
 511 552 483 581 437 584 c 1
 362 585 l 1
 196 115 l 1
 270 116 l 1
 337 120 409 152 434 219 c 0
 456 280 416 309 359 313 c 1
 225 315 l 1
 253 394 l 1
 377 395 l 1
 492 392 609 331 573 198 c 0
 536 61 398 4 268 0 c 1
 13 0 l 1
 253 700 l 1
 466 700 l 1
 570 696 681 643 646 522 c 0
 613 405 485 358 374 355 c 2
 239 355 l 1
EndSplineSet
EndChar

StartChar: uni0413
Encoding: 1043 1043 403
GlifName: uni0413
Width: 458
VWidth: 0
Flags: HW
LayerCount: 2
Fore
SplineSet
254 699 m 1
 639 700 l 1
 592 568 l 1
 357 568 l 1
 161 0 l 1
 19 0 l 1
 254 699 l 1
EndSplineSet
EndChar

StartChar: uni0414
Encoding: 1044 1044 404
GlifName: uni0414
Width: 807
VWidth: 0
Flags: HW
LayerCount: 2
Fore
SplineSet
508 453 m 1
 216 31 l 1
 41 31 l 1
 597 742 l 1
 662 30 l 1
 509 30 l 1
 508 453 l 1
577 0 m 1
 124 0 l 1
 84 -109 l 1
 -58 -109 l 1
 24 128 l 1
 760 128 l 1
 677 -109 l 1
 536 -109 l 1
 577 0 l 1
EndSplineSet
EndChar

StartChar: uni0415
Encoding: 1045 1045 405
GlifName: uni0415
Width: 555
VWidth: 0
Flags: HW
LayerCount: 2
Fore
SplineSet
105 0 m 1
 147 123 l 1
 487 123 l 1
 445 0 l 1
 105 0 l 1
302 577 m 1
 343 700 l 1
 684 700 l 1
 641 577 l 1
 302 577 l 1
211 311 m 1
 252 431 l 1
 573 431 l 1
 532 311 l 1
 211 311 l 1
252 699 m 1
 396 700 l 1
 154 0 l 1
 16 0 l 1
 252 699 l 1
EndSplineSet
EndChar

StartChar: uni0416
Encoding: 1046 1046 406
GlifName: uni0416
Width: 972
VWidth: 0
Flags: HW
LayerCount: 2
Fore
SplineSet
356 700 m 1
 524 359 l 1
 120 0 l 1
 -65 0 l 1
 365 382 l 1
 205 700 l 1
 356 700 l 1
597 699 m 1
 750 700 l 1
 508 0 l 1
 362 0 l 1
 597 699 l 1
965 699 m 1
 1155 699 l 1
 753 362 l 1
 912 0 l 1
 756 0 l 1
 598 381 l 1
 965 699 l 1
EndSplineSet
EndChar

StartChar: uni0417
Encoding: 1047 1047 407
GlifName: uni0417
Width: 612
VWidth: 0
Flags: HW
LayerCount: 2
Fore
SplineSet
341 341 m 1
 360 410 l 1
 427 417 518 437 544 509 c 0
 562 560 530 591 480 592 c 0
 415 594 364 556 330 504 c 1
 194 505 l 1
 241 634 359 712 496 712 c 0
 606 712 725 646 689 519 c 0
 648 374 469 346 341 341 c 1
276 -14 m 0
 134 -14 37 66 60 212 c 1
 198 211 l 1
 192 144 219 108 288 107 c 0
 356 106 431 138 457 205 c 0
 492 292 395 307 333 312 c 1
 354 389 l 1
 473 385 638 345 595 189 c 0
 557 52 408 -14 276 -14 c 0
EndSplineSet
EndChar

StartChar: uni0418
Encoding: 1048 1048 408
GlifName: uni0418
Width: 741
VWidth: 0
Flags: HW
LayerCount: 2
Fore
SplineSet
800 538 m 1
 -7 -51 l 1
 73 162 l 1
 880 752 l 1
 800 538 l 1
394 700 m 1
 191 107 l 1
 -7 -51 l 1
 252 700 l 1
 394 700 l 1
880 752 m 1
 620 0 l 1
 478 0 l 1
 680 588 l 1
 880 752 l 1
EndSplineSet
EndChar

StartChar: uni0419
Encoding: 1049 1049 409
GlifName: uni0419
Width: 741
VWidth: 0
Flags: HW
LayerCount: 2
Fore
SplineSet
800 538 m 1
 -7 -51 l 1
 73 162 l 1
 880 752 l 1
 800 538 l 1
394 700 m 1
 191 107 l 1
 -7 -51 l 1
 252 700 l 1
 394 700 l 1
880 752 m 1
 620 0 l 1
 478 0 l 1
 680 588 l 1
 880 752 l 1
466 920 m 1
 551 920 l 1
 551 889 556 860 594 858 c 0
 635 856 663 889 683 919 c 1
 775 918 l 1
 741 838 676 777 584 777 c 0
 494 777 457 837 466 920 c 1
EndSplineSet
EndChar

StartChar: uni041A
Encoding: 1050 1050 410
GlifName: uni041A_
Width: 627
VWidth: 0
Flags: HW
LayerCount: 2
Fore
SplineSet
250 699 m 1
 403 700 l 1
 161 0 l 1
 14 0 l 1
 250 699 l 1
620 699 m 1
 806 699 l 1
 408 362 l 1
 564 0 l 1
 407 0 l 1
 244 378 l 1
 620 699 l 1
EndSplineSet
EndChar

StartChar: uni041B
Encoding: 1051 1051 411
GlifName: uni041B_
Width: 695
VWidth: 0
Flags: HW
LayerCount: 2
Fore
SplineSet
810 700 m 1
 570 0 l 1
 422 0 l 1
 617 568 l 1
 387 568 l 1
 290 280 l 2
 234 119 130 17 -43 2 c 1
 -9 123 l 1
 70 144 112 206 141 280 c 1
 286 700 l 1
 810 700 l 1
EndSplineSet
EndChar

StartChar: uni041C
Encoding: 1052 1052 412
GlifName: uni041C_
Width: 817
VWidth: 0
Flags: HW
LayerCount: 2
Fore
SplineSet
303 385 m 1
 128 0 l 1
 -28 0 l 1
 325 737 l 1
 446 292 l 1
 889 750 l 1
 732 0 l 1
 582 0 l 1
 671 370 l 1
 381 61 l 1
 303 385 l 1
EndSplineSet
EndChar

StartChar: uni041D
Encoding: 1053 1053 413
GlifName: uni041D_
Width: 722
VWidth: 0
Flags: HW
LayerCount: 2
Fore
SplineSet
163 306 m 1
 208 438 l 1
 702 438 l 1
 656 306 l 1
 163 306 l 1
693 699 m 1
 841 700 l 1
 600 0 l 1
 457 0 l 1
 693 699 l 1
250 699 m 1
 399 700 l 1
 157 0 l 1
 14 0 l 1
 250 699 l 1
EndSplineSet
EndChar

StartChar: uni041E
Encoding: 1054 1054 414
GlifName: uni041E_
Width: 763
VWidth: 0
Flags: HW
LayerCount: 2
Fore
SplineSet
248 350 m 0
 210 251 229 125 357 123 c 0
 488 121 604 235 648 350 c 0
 686 449 666 575 538 577 c 0
 407 579 292 465 248 350 c 0
95 350 m 0
 155 546 348 716 558 715 c 0
 761 714 855 532 800 350 c 0
 740 153 547 -20 335 -19 c 0
 130 -18 39 168 95 350 c 0
EndSplineSet
EndChar

StartChar: uni041F
Encoding: 1055 1055 415
GlifName: uni041F_
Width: 710
VWidth: 0
Flags: HW
LayerCount: 2
Fore
SplineSet
635 568 m 1
 359 568 l 1
 164 0 l 1
 16 0 l 1
 257 700 l 1
 825 700 l 1
 584 0 l 1
 439 0 l 1
 635 568 l 1
EndSplineSet
EndChar

StartChar: uni0420
Encoding: 1056 1056 416
GlifName: uni0420
Width: 570
VWidth: 0
Flags: HW
LayerCount: 2
Fore
SplineSet
252 699 m 1
 401 700 l 1
 158 0 l 1
 16 0 l 1
 252 699 l 1
298 577 m 1
 338 700 l 1
 459 700 l 1
 590 695 687 613 647 475 c 0
 606 335 473 258 333 253 c 1
 184 253 l 1
 228 375 l 1
 349 376 l 2
 414 378 483 413 508 477 c 0
 531 536 498 573 440 576 c 1
 298 577 l 1
EndSplineSet
EndChar

StartChar: uni0421
Encoding: 1057 1057 417
GlifName: uni0421
Width: 653
VWidth: 0
Flags: HW
LayerCount: 2
Fore
SplineSet
251 350 m 0
 211 248 244 130 369 127 c 0
 458 125 540 173 611 220 c 1
 566 57 l 1
 497 14 422 -16 340 -15 c 0
 136 -14 38 165 95 350 c 0
 156 550 350 714 563 715 c 0
 639 716 701 690 758 641 c 1
 711 478 l 1
 674 540 621 573 548 573 c 0
 418 572 297 468 251 350 c 0
EndSplineSet
EndChar

StartChar: uni0422
Encoding: 1058 1058 418
GlifName: uni0422
Width: 505
VWidth: 0
Flags: HW
LayerCount: 2
Fore
SplineSet
141 568 m 1
 187 700 l 1
 689 700 l 1
 643 568 l 1
 465 568 l 1
 271 0 l 1
 125 0 l 1
 320 568 l 1
 141 568 l 1
EndSplineSet
EndChar

StartChar: uni0423
Encoding: 1059 1059 419
GlifName: uni0423
Width: 567
VWidth: 0
Flags: HW
LayerCount: 2
Fore
SplineSet
769 700 m 1
 219 0 l 1
 58 0 l 1
 229 223 l 1
 180 700 l 1
 331 700 l 1
 346 269 l 1
 279 272 l 1
 606 700 l 1
 769 700 l 1
EndSplineSet
EndChar

StartChar: uni0424
Encoding: 1060 1060 420
GlifName: uni0424
Width: 838
VWidth: 0
Flags: HW
LayerCount: 2
Fore
SplineSet
529 699 m 1
 680 700 l 1
 438 0 l 1
 293 0 l 1
 529 699 l 1
725 350 m 0
 764 447 685 485 600 488 c 1
 490 490 l 2
 391 487 285 450 245 350 c 0
 206 253 285 215 370 212 c 1
 480 210 l 2
 579 213 685 250 725 350 c 0
871 350 m 0
 821 183 651 83 483 80 c 1
 330 80 l 1
 176 82 51 187 99 350 c 0
 149 517 319 617 487 620 c 1
 640 620 l 1
 794 618 919 513 871 350 c 0
EndSplineSet
EndChar

StartChar: uni0425
Encoding: 1061 1061 421
GlifName: uni0425
Width: 654
VWidth: 0
Flags: HW
LayerCount: 2
Fore
SplineSet
612 699 m 1
 800 699 l 1
 469 350 l 1
 561 0 l 1
 398 0 l 1
 355 242 l 1
 141 0 l 1
 -48 0 l 1
 311 372 l 1
 229 700 l 1
 392 700 l 1
 427 490 l 1
 612 699 l 1
EndSplineSet
EndChar

StartChar: uni0426
Encoding: 1062 1062 422
GlifName: uni0426
Width: 783
VWidth: 0
Flags: HW
LayerCount: 2
Fore
SplineSet
202 132 m 1
 499 132 l 1
 695 700 l 1
 843 700 l 1
 648 132 l 1
 746 132 l 1
 656 -128 l 1
 518 -128 l 1
 562 0 l 1
 12 0 l 1
 253 700 l 1
 398 699 l 1
 202 132 l 1
EndSplineSet
EndChar

StartChar: uni0427
Encoding: 1063 1063 423
GlifName: uni0427
Width: 648
VWidth: 0
Flags: HW
LayerCount: 2
Fore
SplineSet
320 238 m 1
 391 365 l 1
 567 366 l 1
 521 237 l 1
 320 238 l 1
612 699 m 1
 764 700 l 1
 522 0 l 1
 375 0 l 1
 612 699 l 1
398 700 m 1
 325 497 l 1
 301 425 321 365 391 365 c 1
 320 238 l 1
 194 238 143 358 179 482 c 1
 252 700 l 1
 398 700 l 1
EndSplineSet
EndChar

StartChar: uni0428
Encoding: 1064 1064 424
GlifName: uni0428
Width: 992
VWidth: 0
Flags: HW
LayerCount: 2
Fore
SplineSet
766 132 m 1
 961 700 l 1
 1107 700 l 1
 867 0 l 1
 17 0 l 1
 257 700 l 1
 403 700 l 1
 208 132 l 1
 416 132 l 1
 611 700 l 1
 753 700 l 1
 558 132 l 1
 766 132 l 1
EndSplineSet
EndChar

StartChar: uni0429
Encoding: 1065 1065 425
GlifName: uni0429
Width: 1052
VWidth: 0
Flags: HW
LayerCount: 2
Fore
SplineSet
766 132 m 1
 961 700 l 1
 1107 700 l 1
 913 132 l 1
 1010 132 l 1
 921 -128 l 1
 782 -128 l 1
 827 0 l 1
 17 0 l 1
 257 700 l 1
 403 700 l 1
 208 132 l 1
 416 132 l 1
 611 700 l 1
 753 700 l 1
 558 132 l 1
 766 132 l 1
EndSplineSet
EndChar

StartChar: uni042A
Encoding: 1066 1066 426
GlifName: uni042A_
Width: 672
VWidth: 0
Flags: HW
LayerCount: 2
Fore
SplineSet
316 325 m 1
 357 447 l 1
 477 447 l 2
 608 445 705 361 665 223 c 0
 624 83 491 2 351 0 c 2
 202 0 l 1
 246 123 l 1
 367 123 l 2
 432 125 502 161 527 225 c 0
 550 284 516 322 458 323 c 2
 316 325 l 1
318 569 m 1
 144 568 l 1
 191 700 l 1
 506 700 l 1
 265 0 l 1
 122 0 l 1
 318 569 l 1
EndSplineSet
EndChar

StartChar: uni042B
Encoding: 1067 1067 427
GlifName: uni042B_
Width: 817
VWidth: 0
Flags: HW
LayerCount: 2
Fore
SplineSet
787 699 m 1
 937 700 l 1
 696 0 l 1
 551 0 l 1
 787 699 l 1
250 699 m 1
 399 700 l 1
 157 0 l 1
 14 0 l 1
 250 699 l 1
210 325 m 1
 251 447 l 1
 371 447 l 2
 502 445 599 361 559 223 c 0
 518 83 385 2 245 0 c 2
 96 0 l 1
 141 123 l 1
 262 123 l 2
 327 125 395 161 420 225 c 0
 443 284 411 322 353 323 c 2
 210 325 l 1
EndSplineSet
EndChar

StartChar: uni042C
Encoding: 1068 1068 428
GlifName: uni042C_
Width: 566
VWidth: 0
Flags: HW
LayerCount: 2
Fore
SplineSet
250 699 m 1
 399 700 l 1
 157 0 l 1
 14 0 l 1
 250 699 l 1
210 325 m 1
 251 447 l 1
 371 447 l 2
 502 445 599 361 559 223 c 0
 518 83 385 2 245 0 c 2
 96 0 l 1
 141 123 l 1
 262 123 l 2
 327 125 395 161 420 225 c 0
 443 284 411 322 353 323 c 2
 210 325 l 1
EndSplineSet
EndChar

StartChar: uni042D
Encoding: 1069 1069 429
GlifName: uni042D_
Width: 654
VWidth: 0
Flags: HW
LayerCount: 2
Fore
SplineSet
170 290 m 1
 211 410 l 1
 583 410 l 1
 541 290 l 1
 170 290 l 1
547 350 m 0
 589 457 543 574 418 577 c 0
 332 579 251 536 179 493 c 1
 220 643 l 1
 288 686 363 716 445 715 c 0
 649 714 748 535 691 350 c 0
 630 150 436 -14 223 -15 c 0
 147 -16 85 10 28 59 c 1
 70 208 l 1
 111 153 165 122 236 122 c 0
 369 123 500 229 547 350 c 0
EndSplineSet
EndChar

StartChar: uni042E
Encoding: 1070 1070 430
GlifName: uni042E_
Width: 1045
VWidth: 0
Flags: HW
LayerCount: 2
Fore
SplineSet
163 306 m 1
 208 438 l 1
 504 438 l 1
 459 306 l 1
 163 306 l 1
250 699 m 1
 399 700 l 1
 157 0 l 1
 14 0 l 1
 250 699 l 1
529 350 m 0
 491 251 511 125 639 123 c 0
 770 121 885 235 929 350 c 0
 967 449 948 575 820 577 c 0
 689 579 573 465 529 350 c 0
376 350 m 0
 436 546 630 716 840 715 c 0
 1043 714 1137 532 1082 350 c 0
 1022 153 828 -20 616 -19 c 0
 411 -18 320 168 376 350 c 0
EndSplineSet
EndChar

StartChar: uni042F
Encoding: 1071 1071 431
GlifName: uni042F_
Width: 586
VWidth: 0
Flags: HW
LayerCount: 2
Fore
SplineSet
431 324 m 1
 123 0 l 1
 -60 0 l 1
 266 324 l 1
 431 324 l 1
706 700 m 1
 465 0 l 1
 319 0 l 1
 560 700 l 1
 706 700 l 1
576 575 m 1
 455 575 l 2
 389 575 320 535 295 471 c 0
 272 413 303 374 362 370 c 1
 508 368 l 1
 466 253 l 1
 337 253 l 0
 207 258 109 341 149 477 c 0
 189 616 325 698 464 700 c 1
 621 700 l 1
 576 575 l 1
EndSplineSet
EndChar

StartChar: uni0430
Encoding: 1072 1072 432
GlifName: uni0430
Width: 496
VWidth: 0
Flags: HW
LayerCount: 2
Fore
SplineSet
142 135 m 0
 132 103 156 84 185 82 c 0
 253 78 300 132 332 184 c 1
 331 128 l 1
 293 48 225 -9 132 -9 c 0
 50 -9 -12 48 12 133 c 0
 40 231 147 280 242 280 c 0
 297 280 342 263 381 227 c 1
 363 164 l 1
 332 189 300 205 259 204 c 0
 216 203 155 181 142 135 c 0
172 327 m 1
 149 421 l 1
 212 449 280 473 349 472 c 0
 437 471 536 424 503 325 c 2
 393 0 l 1
 265 0 l 1
 375 304 l 2
 389 341 366 365 325 368 c 0
 273 373 218 347 172 327 c 1
EndSplineSet
Substitution2: "alt a" a.alt
EndChar

StartChar: uni0431
Encoding: 1073 1073 433
GlifName: uni0431
Width: 555
VWidth: 0
Flags: HW
LayerCount: 2
Fore
SplineSet
357 360 m 1
 401 469 l 1
 531 469 598 359 564 229 c 0
 529 94 398 -10 258 -10 c 0
 95 -10 75 132 75 192 c 1
 200 185 l 1
 201 155 207 103 269 102 c 0
 341 101 408 167 430 231 c 0
 455 301 425 360 357 360 c 1
148 232 m 1
 190 358 263 469 401 469 c 1
 357 360 l 1
 283 360 200 298 200 185 c 1
 148 232 l 1
75 192 m 1
 75 395 217 593 378 661 c 0
 447 690 508 718 555 779 c 1
 684 778 l 1
 636 674 546 620 444 577 c 0
 340 534 207 417 199 291 c 1
 200 185 l 1
 75 192 l 1
EndSplineSet
EndChar

StartChar: uni0432
Encoding: 1074 1074 434
GlifName: uni0432
Width: 475
VWidth: 0
Flags: HW
LayerCount: 2
Fore
SplineSet
165 239 m 1
 306 240 l 2
 378 238 461 213 439 124 c 0
 419 45 342 2 266 1 c 2
 85 0 l 1
 115 87 l 1
 233 88 l 2
 265 88 309 107 321 141 c 0
 331 171 310 187 284 188 c 2
 152 190 l 1
 165 239 l 1
163 221 m 1
 179 275 l 1
 290 276 l 2
 319 276 356 296 367 326 c 0
 376 351 360 370 337 371 c 2
 211 373 l 1
 241 460 l 1
 371 460 l 2
 444 459 516 417 492 334 c 0
 470 256 386 224 312 221 c 2
 163 221 l 1
168 460 m 1
 300 460 l 1
 139 0 l 1
 14 0 l 1
 168 460 l 1
EndSplineSet
EndChar

StartChar: uni0433
Encoding: 1075 1075 435
GlifName: uni0433
Width: 329
VWidth: 0
Flags: HW
LayerCount: 2
Fore
SplineSet
160 459 m 1
 435 460 l 1
 395 349 l 1
 254 349 l 1
 133 0 l 1
 6 0 l 1
 160 459 l 1
EndSplineSet
EndChar

StartChar: uni0434
Encoding: 1076 1076 436
GlifName: uni0434
Width: 650
VWidth: 0
Flags: HW
LayerCount: 2
Fore
SplineSet
373 284 m 1
 177 31 l 1
 46 57 l 1
 434 500 l 1
 516 50 l 1
 392 28 l 1
 373 284 l 1
436 0 m 1
 111 0 l 1
 78 -90 l 1
 -53 -90 l 1
 17 107 l 1
 595 107 l 1
 526 -90 l 1
 403 -90 l 1
 436 0 l 1
EndSplineSet
EndChar

StartChar: uni0435
Encoding: 1077 1077 437
GlifName: uni0435
Width: 525
VWidth: 0
Flags: HW
LayerCount: 2
Fore
SplineSet
125 201 m 1
 149 280 l 1
 403 281 l 1
 414 326 406 373 350 376 c 0
 278 380 226 312 199 255 c 2
 188 230 l 1
 168 174 168 95 243 91 c 0
 295 88 341 124 379 156 c 1
 489 117 l 1
 422 43 334 -10 231 -9 c 0
 95 -7 25 102 59 230 c 0
 64 247 69 263 76 279 c 0
 127 390 241 470 364 469 c 0
 502 468 559 363 529 236 c 0
 526 224 522 213 519 201 c 1
 125 201 l 1
EndSplineSet
EndChar

StartChar: uni0436
Encoding: 1078 1078 438
GlifName: uni0436
Width: 776
VWidth: 0
Flags: HW
LayerCount: 2
Fore
SplineSet
704 459 m 1
 873 459 l 1
 603 255 l 1
 717 0 l 1
 582 0 l 1
 463 280 l 1
 704 459 l 1
553 459 m 1
 397 1 l 1
 272 0 l 1
 429 459 l 1
 553 459 l 1
259 460 m 1
 390 260 l 1
 101 0 l 1
 -66 0 l 1
 245 275 l 1
 128 460 l 1
 259 460 l 1
EndSplineSet
EndChar

StartChar: uni0437
Encoding: 1079 1079 439
GlifName: uni0437
Width: 489
VWidth: 0
Flags: HW
LayerCount: 2
Fore
SplineSet
272 230 m 1
 288 284 l 1
 316 289 361 299 371 331 c 0
 377 352 362 368 337 369 c 0
 301 370 277 341 261 313 c 1
 137 315 l 1
 173 403 249 469 348 469 c 0
 424 469 517 421 492 332 c 0
 467 240 350 234 272 230 c 1
210 -9 m 0
 105 -9 46 52 50 155 c 1
 167 154 l 1
 171 119 179 89 224 88 c 0
 267 87 312 112 323 148 c 0
 337 192 296 199 264 205 c 1
 281 260 l 1
 354 255 469 235 443 134 c 0
 418 38 300 -9 210 -9 c 0
EndSplineSet
EndChar

StartChar: uni0438
Encoding: 1080 1080 440
GlifName: uni0438
Width: 544
VWidth: 0
Flags: HW
LayerCount: 2
Fore
SplineSet
542 337 m 1
 -16 -50 l 1
 51 123 l 1
 609 511 l 1
 542 337 l 1
290 460 m 1
 163 89 l 1
 -16 -50 l 1
 162 460 l 1
 290 460 l 1
609 511 m 1
 431 0 l 1
 303 0 l 1
 430 371 l 1
 609 511 l 1
EndSplineSet
EndChar

